%FSTAX23Y23*%
%MOMM*%
%SFA1B1*%

%IPPOS*%
%AMD124*
4,1,4,1.551940,0.071120,0.071120,1.551940,-1.551940,-0.071120,-0.071120,-1.551940,1.551940,0.071120,0.0*
1,1,2.298700,-0.739140,0.739140*
1,1,2.298700,0.739140,-0.739140*
%
%AMD127*
4,1,4,-1.501140,-0.401320,0.401320,-1.501140,1.501140,0.401320,-0.401320,1.501140,-1.501140,-0.401320,0.0*
%
%AMD131*
4,1,4,0.000000,-1.203960,1.203960,0.000000,0.000000,1.203960,-1.203960,0.000000,0.000000,-1.203960,0.0*
%
%AMD133*
4,1,4,5.659120,7.564120,-7.564120,-5.659120,-5.659120,-7.564120,7.564120,5.659120,5.659120,7.564120,0.0*
%
%AMD134*
4,1,4,-2.689860,4.640580,-4.640580,2.689860,2.689860,-4.640580,4.640580,-2.689860,-2.689860,4.640580,0.0*
%
%ADD99R,1.303274X1.603248*%
%ADD103R,2.203196X2.203196*%
%ADD104R,2.203196X2.203196*%
%ADD106R,1.603248X1.303274*%
%ADD120C,3.603244*%
%ADD121C,2.203196*%
%ADD122R,1.703324X1.703324*%
%ADD123C,1.703324*%
G04~CAMADD=124~3~0.0~0.0~1730.0~905.0~0.0~0.0~0~0.0~0.0~0.0~0.0~0~0.0~0.0~0.0~0.0~0~0.0~0.0~0.0~315.0~1486.0~1486.0*
%ADD124D124*%
%ADD125R,1.703324X1.703324*%
%ADD126O,3.860800X2.032000*%
G04~CAMADD=127~10~0.0~867.4~0.0~0.0~0.0~0.0~0~0.0~0.0~0.0~0.0~0~0.0~0.0~0.0~0.0~0~0.0~0.0~0.0~150.0~867.4~0.0*
%ADD127D127*%
%ADD128C,3.403600*%
%ADD129C,1.625600*%
%ADD130C,1.574800*%
G04~CAMADD=131~10~0.0~670.5~0.0~0.0~0.0~0.0~0~0.0~0.0~0.0~0.0~0~0.0~0.0~0.0~0.0~0~0.0~0.0~0.0~225.0~670.5~0.0*
%ADD131D131*%
%ADD132C,0.803148*%
G04~CAMADD=133~9~0.0~0.0~7362.3~1060.7~0.0~0.0~0~0.0~0.0~0.0~0.0~0~0.0~0.0~0.0~0.0~0~0.0~0.0~0.0~45.0~5956.0~5955.0*
%ADD133D133*%
G04~CAMADD=134~9~0.0~0.0~1086.7~4083.5~0.0~0.0~0~0.0~0.0~0.0~0.0~0~0.0~0.0~0.0~0.0~0~0.0~0.0~0.0~45.0~3654.0~3653.0*
%ADD134D134*%
%ADD135R,2.921000X8.128000*%
%LNramps_tmc-1*%
%LPD*%
G54D99*
X16521Y32892D03*
X18022D03*
X16521Y31114D03*
X18022D03*
G54D103*
X75251Y91195D03*
X4997Y85842D03*
X3981D03*
X60257D03*
G54D104*
X81797Y87562D03*
X08762Y60342D03*
X08137Y18855D03*
G54D106*
X22732Y43041D03*
Y4154D03*
X2578Y38619D03*
Y4012D03*
G54D120*
X26796Y04317D03*
X91566Y86359D03*
X79501Y05841D03*
G54D121*
X81797Y92642D03*
X70171Y91195D03*
X5505Y85842D03*
X4489D03*
X65337D03*
X08762Y71991D03*
X19041Y69433D03*
X08137Y23935D03*
G54D122*
X26034Y93471D03*
X31114D03*
X76315Y75197D03*
X78855D03*
X81395D03*
X83935D03*
X86475D03*
X89015D03*
X98297Y69849D03*
X95757Y72516D03*
X32384Y8547D03*
G54D123*
X28574Y93471D03*
X26034Y90931D03*
X28574D03*
X26034Y88391D03*
X28574D03*
X33654Y93471D03*
X31114Y90931D03*
X33654D03*
X31114Y88391D03*
X33654D03*
X76315Y77737D03*
Y80277D03*
X78855Y77737D03*
Y80277D03*
X81395Y77737D03*
Y80277D03*
X83935Y77737D03*
Y80277D03*
X86475Y77737D03*
Y80277D03*
X89015Y77737D03*
Y80277D03*
X75437Y16509D03*
X77977D03*
X80517D03*
X83057D03*
X85597D03*
X90677Y13969D03*
Y16509D03*
X93217Y13969D03*
Y16509D03*
X95757Y13969D03*
Y16509D03*
X98297Y13969D03*
Y26669D03*
Y29209D03*
Y31749D03*
Y34289D03*
Y36829D03*
Y39369D03*
Y41909D03*
Y44449D03*
Y46989D03*
Y49529D03*
Y52069D03*
Y54609D03*
Y57149D03*
Y59689D03*
Y62229D03*
Y64769D03*
Y67309D03*
X83057D03*
X80517D03*
X77977D03*
X62737D03*
X60197D03*
X57657D03*
X42417D03*
X39877D03*
X37337D03*
X62991Y4483D03*
X60451D03*
X57911D03*
X42671D03*
X40131D03*
X37591D03*
X73151Y35051D03*
X75691Y32511D03*
Y35051D03*
X78231Y32511D03*
Y35051D03*
X83311Y46862D03*
Y44322D03*
X80771Y46862D03*
Y44322D03*
X78231Y46862D03*
Y44322D03*
X75691Y46862D03*
X95757Y80136D03*
Y77596D03*
Y75056D03*
X57149Y12318D03*
Y14858D03*
X59689Y12318D03*
Y14858D03*
X62229Y12318D03*
Y14858D03*
X64769Y12318D03*
Y14858D03*
X67309Y12318D03*
X47751Y14858D03*
Y12318D03*
X45211Y14858D03*
Y12318D03*
X42671Y14858D03*
Y12318D03*
X40131Y14858D03*
X32765Y12318D03*
Y14858D03*
X35305Y12318D03*
X32384Y8293D03*
Y8039D03*
Y7785D03*
X21716Y0927D03*
X24256D03*
X26796D03*
X11919Y02648D03*
Y06241D03*
X10123Y04444D03*
Y08037D03*
X08327Y06241D03*
Y09833D03*
X06531Y08037D03*
Y11629D03*
X04735Y09833D03*
Y13425D03*
X02939Y11629D03*
G54D124*
X07728Y77506D03*
X11321Y81098D03*
X14913Y8469D03*
X18505Y88283D03*
G54D125*
X72897Y16509D03*
X98297D03*
X75437Y67309D03*
X55117D03*
X34797D03*
X55371Y4483D03*
X35051D03*
X73151Y32511D03*
X75691Y44322D03*
X67309Y14858D03*
X40131Y12318D03*
X35305Y14858D03*
X19176Y0927D03*
G54D126*
X07619Y31114D03*
Y36194D03*
Y41274D03*
Y46354D03*
Y51434D03*
Y56514D03*
G54D127*
X13216Y59344D03*
G54D128*
X14477Y69849D03*
X95757Y21589D03*
G54D129*
X44957Y21589D03*
X60197Y69849D03*
X62737D03*
X32257Y21589D03*
X95757Y26669D03*
X93217D03*
X25653Y69849D03*
X42417Y21589D03*
X39877D03*
X95757Y29209D03*
X93217D03*
X95757Y31749D03*
X93217D03*
X95757Y34289D03*
X93217D03*
X95757Y36829D03*
X93217D03*
X95757Y39369D03*
X93217D03*
X95757Y41909D03*
X93217D03*
X95757Y44449D03*
X93217D03*
X95757Y46989D03*
X93217D03*
X95757Y49529D03*
X93217D03*
X95757Y52069D03*
X93217D03*
X95757Y54609D03*
X93217D03*
X95757Y57149D03*
X93217D03*
X95757Y59689D03*
X93217D03*
X95757Y62229D03*
X93217D03*
X95757Y64769D03*
X93217D03*
X95757Y67309D03*
X93217D03*
X85597Y69849D03*
X83057D03*
X80517D03*
X77977D03*
X75437D03*
X72897D03*
X70357D03*
X67817D03*
X28193D03*
X30733D03*
X33273D03*
X35813D03*
X38353D03*
X40893D03*
X44957D03*
X47497D03*
X50037D03*
X52577D03*
X55117D03*
X57657D03*
X23113D03*
X90677Y21589D03*
X88137D03*
X85597D03*
X83057D03*
X80517D03*
X77977D03*
X75437D03*
X72897D03*
X67817D03*
X65277D03*
X62737D03*
X60197D03*
X57657D03*
X55117D03*
X52577D03*
X50037D03*
X95757Y69849D03*
X93217D03*
X37337Y21589D03*
X34797D03*
G54D130*
X70611Y40639D03*
X85851D03*
Y27939D03*
X83311D03*
X80771D03*
X78231D03*
X75691D03*
X73151D03*
Y40639D03*
X88391D03*
X70611Y27939D03*
X88391D03*
X75691Y40639D03*
X78231D03*
X83311D03*
X80771D03*
X50291D03*
X65531D03*
Y27939D03*
X62991D03*
X60451D03*
X57911D03*
X55371D03*
X52831D03*
Y40639D03*
X68071D03*
X50291Y27939D03*
X68071D03*
X55371Y40639D03*
X57911D03*
X62991D03*
X60451D03*
X70357Y63118D03*
X85597D03*
Y50418D03*
X83057D03*
X80517D03*
X77977D03*
X75437D03*
X72897D03*
Y63118D03*
X88137D03*
X70357Y50418D03*
X88137D03*
X75437Y63118D03*
X77977D03*
X83057D03*
X80517D03*
X29717D03*
X44957D03*
Y50418D03*
X42417D03*
X39877D03*
X37337D03*
X34797D03*
X32257D03*
Y63118D03*
X47497D03*
X29717Y50418D03*
X47497D03*
X34797Y63118D03*
X37337D03*
X42417D03*
X39877D03*
X50037D03*
X65277D03*
Y50418D03*
X62737D03*
X60197D03*
X57657D03*
X55117D03*
X52577D03*
Y63118D03*
X67817D03*
X50037Y50418D03*
X67817D03*
X55117Y63118D03*
X57657D03*
X62737D03*
X60197D03*
X29971Y40639D03*
X45211D03*
Y27939D03*
X42671D03*
X40131D03*
X37591D03*
X35051D03*
X32511D03*
Y40639D03*
X47751D03*
X29971Y27939D03*
X47751D03*
X35051Y40639D03*
X37591D03*
X42671D03*
X40131D03*
G54D131*
X13715Y04444D03*
G54D132*
X72008Y03644D03*
X6134Y05714D03*
X68071Y0673D03*
X5683Y05968D03*
X53847Y12064D03*
G54D133*
X09532Y85478D03*
G54D134*
X06611Y69D03*
G54D135*
X03428Y75755D03*
M02*