%FSTAX23Y23*%
%MOMM*%
%SFA1B1*%

%IPPOS*%
%AMD124*
4,1,4,1.551940,0.071120,0.071120,1.551940,-1.551940,-0.071120,-0.071120,-1.551940,1.551940,0.071120,0.0*
1,1,2.298700,-0.739140,0.739140*
1,1,2.298700,0.739140,-0.739140*
%
%AMD127*
4,1,4,-1.501140,-0.401320,0.401320,-1.501140,1.501140,0.401320,-0.401320,1.501140,-1.501140,-0.401320,0.0*
%
%AMD131*
4,1,4,0.000000,-1.203960,1.203960,0.000000,0.000000,1.203960,-1.203960,0.000000,0.000000,-1.203960,0.0*
%
%ADD99R,1.303274X1.603248*%
%ADD100R,1.603248X1.903222*%
%ADD101R,6.203188X3.203194*%
%ADD102R,2.203196X5.003292*%
%ADD103R,2.203196X2.203196*%
%ADD104R,2.203196X2.203196*%
%ADD105R,1.903222X1.703324*%
%ADD106R,1.603248X1.303274*%
%ADD107R,1.903222X1.603248*%
%ADD108R,0.903224X1.503172*%
%ADD109R,3.203194X1.703324*%
%ADD110R,1.603248X3.203194*%
%ADD111R,1.703324X3.203194*%
%ADD112R,2.403094X1.403096*%
%ADD113R,6.003290X6.603238*%
%ADD114R,4.203192X2.203196*%
%ADD115R,1.353312X0.803148*%
%ADD116R,0.803148X1.353312*%
%ADD117R,2.303272X1.703324*%
%ADD118R,2.303272X1.703324*%
%ADD119R,1.703324X1.903222*%
%ADD120C,3.603244*%
%ADD121C,2.203196*%
%ADD122R,1.703324X1.703324*%
%ADD123C,1.703324*%
G04~CAMADD=124~3~0.0~0.0~1730.0~905.0~0.0~0.0~0~0.0~0.0~0.0~0.0~0~0.0~0.0~0.0~0.0~0~0.0~0.0~0.0~315.0~1486.0~1486.0*
%ADD124D124*%
%ADD125R,1.703324X1.703324*%
%ADD126O,3.860800X2.032000*%
G04~CAMADD=127~10~0.0~867.4~0.0~0.0~0.0~0.0~0~0.0~0.0~0.0~0.0~0~0.0~0.0~0.0~0.0~0~0.0~0.0~0.0~150.0~867.4~0.0*
%ADD127D127*%
%ADD128C,3.403600*%
%ADD129C,1.625600*%
%ADD130C,1.574800*%
G04~CAMADD=131~10~0.0~670.5~0.0~0.0~0.0~0.0~0~0.0~0.0~0.0~0.0~0~0.0~0.0~0.0~0.0~0~0.0~0.0~0.0~225.0~670.5~0.0*
%ADD131D131*%
%ADD132C,0.803148*%
%LNramps_tmc-1*%
%LPD*%
G36*
X14844Y72974D02*
X15037Y72781D01*
X15088Y7273*
X15158Y72465*
X14957Y72415*
X14172Y732*
X14523Y73294*
X14844Y72974*
G37*
G36*
X15414Y72611D02*
X1531Y72507D01*
X15209Y7248*
X1513Y72772*
X15191Y72833*
X15493Y72914*
X15414Y72611*
G37*
G36*
X16118Y72956D02*
X16467Y72608D01*
X16412Y72552*
X16154Y72624*
X15598Y72941*
X15885Y73019*
X16118Y72956*
G37*
G36*
X21453Y7552D02*
X21646Y75327D01*
X21697Y75276*
X21767Y75011*
X21567Y7496*
X20781Y75746*
X21133Y7584*
X21453Y7552*
G37*
G36*
X21797Y76504D02*
X21727Y76434D01*
X21577Y76284*
X21354Y76061*
X21206Y75913*
X20744Y75792*
X20742Y75796*
X20738Y75804*
X20735Y75816*
X20732Y75834*
Y75852*
X20737Y75874*
X20745Y75895*
X20762Y75915*
X21132Y76284*
X21354Y76507*
X21704Y76857*
X21797Y76504*
G37*
G36*
X15408Y7241D02*
X15554Y72264D01*
X158Y72018*
X15922Y71554*
X15919*
X15912Y7155*
X15898Y71545*
X15882Y71544*
X15863Y71542*
X15841Y71548*
X15821Y71557*
X158Y71572*
X15001Y72371*
X15171Y72416*
X15189Y72422*
X15354Y72464*
X15408Y7241*
G37*
G36*
X15221Y74356D02*
X15243Y74346D01*
X15263Y7433*
X16061Y73531*
X15708Y73438*
X15508Y73638*
X15261Y73885*
X1514Y74348*
X15145Y74349*
X15152Y74354*
X15164Y74356*
X15182Y7436*
X152*
X15221Y74356*
G37*
G36*
X16308Y74439D02*
X16501Y74246D01*
X16552Y74195*
X16623Y7393*
X16422Y73879*
X15637Y74665*
X15988Y74759*
X16308Y74439*
G37*
G36*
X16878Y74075D02*
X16775Y73972D01*
X16673Y73945*
X16594Y74237*
X16656Y74298*
X16958Y74379*
X16878Y74075*
G37*
G36*
X15934Y73131D02*
X15873Y7307D01*
X15568Y72989*
X1565Y73293*
X15752Y73395*
X15854Y73422*
X15934Y73131*
G37*
G36*
X16872Y73875D02*
X17019Y73728D01*
X17264Y73483*
X17387Y73019*
X17384*
X17377Y73015*
X17363Y7301*
X17347Y73008*
X17327Y73007*
X17306Y73013*
X17285Y73022*
X17264Y73037*
X16466Y73836*
X16636Y73881*
X16654Y73887*
X16819Y73929*
X16872Y73875*
G37*
G36*
X15188Y73959D02*
X15118Y73888D01*
X14968Y73739*
X14745Y73516*
X14597Y73368*
X14135Y73246*
X14133Y73251*
X14129Y73258*
X14125Y7327*
X14123Y73288*
Y73306*
X14127Y73329*
X14136Y7335*
X14152Y73369*
X14522Y73739*
X14745Y73962*
X15095Y74312*
X15188Y73959*
G37*
G36*
X18868Y73575D02*
X18798Y73504D01*
X18648Y73355*
X18425Y73132*
X18277Y72984*
X17815Y72862*
X17813Y72867*
X17808Y72874*
X17806Y72886*
X17803Y72904*
Y72922*
X17807Y72945*
X17816Y72966*
X17833Y72985*
X18202Y73355*
X18425Y73578*
X18775Y73928*
X18868Y73575*
G37*
G36*
X21272Y7366D02*
X21428Y73504D01*
X21205Y73281*
X21049Y73437*
X20747Y7396*
X21272Y7366*
G37*
G36*
X19988Y74055D02*
X20181Y73862D01*
X20232Y73811*
X20302Y73546*
X20102Y73495*
X19317Y74281*
X19668Y74375*
X19988Y74055*
G37*
G36*
X19807Y72195D02*
X19963Y7204D01*
X1974Y71817*
X19584Y71972*
X19282Y72496*
X19807Y72195*
G37*
G36*
X20552Y73491D02*
X20699Y73344D01*
X20944Y73099*
X21067Y72635*
X21064*
X21057Y72631*
X21043Y72626*
X21027Y72625*
X21007Y72623*
X20986Y72629*
X20965Y72638*
X20944Y72653*
X20146Y73452*
X20316Y73497*
X20334Y73503*
X20499Y73545*
X20552Y73491*
G37*
G36*
X18838Y73165D02*
X19139Y72639D01*
X18615Y72942*
X18461Y73096*
X18684Y73319*
X18838Y73165*
G37*
G36*
X20681Y74619D02*
X20742Y74387D01*
X20666Y74098*
X20347Y74656*
X20277Y74912*
X20332Y74968*
X20681Y74619*
G37*
G36*
X23539Y752D02*
X23543Y75192D01*
X23548Y75178*
X23549Y75162*
Y75144*
X23546Y75123*
X23536Y75101*
X23519Y75081*
X2315Y74712*
X22927Y74489*
X22577Y74139*
X22484Y74489*
X22554Y74559*
X22705Y7471*
X22928Y74933*
X23075Y7508*
X23539Y75202*
Y752*
G37*
G36*
X20365Y75437D02*
X20388Y75427D01*
X20407Y7541*
X21206Y74611*
X20853Y74519*
X20653Y74719*
X20406Y74966*
X20285Y75428*
X20289Y7543*
X20297Y75434*
X20309Y75437*
X20327Y7544*
X20344*
X20365Y75437*
G37*
G36*
X22035Y73783D02*
X21683Y73688D01*
X21658Y73714*
X21648Y73724*
X21363Y74008*
X21194Y74178*
X21119Y74252*
X21049Y74517*
X21248Y7457*
X22035Y73783*
G37*
G36*
X20053Y74362D02*
X20609Y74042D01*
X20322Y73967*
X20089Y74027*
X1974Y74375*
X19795Y7443*
X20053Y74362*
G37*
G36*
X22017Y74956D02*
X22164Y74809D01*
X22409Y74563*
X22532Y741*
X22529*
X22521Y74095*
X22508Y74091*
X22491Y74089*
X22472Y74088*
X22451Y74094*
X2243Y74103*
X22409Y74118*
X2161Y74917*
X21781Y74962*
X21799Y74968*
X21963Y7501*
X22017Y74956*
G37*
G36*
X18355Y74166D02*
X18004Y74072D01*
X17978Y74098*
X17967Y74108*
X17683Y74393*
X17514Y74561*
X17439Y74636*
X17369Y74901*
X17568Y74954*
X18355Y74166*
G37*
G36*
X19582Y78353D02*
X19512Y78282D01*
X19362Y78133*
X19139Y7791*
X18991Y77762*
X18529Y7764*
X18527Y77645*
X18523Y77652*
X1852Y77665*
X18517Y77682*
Y777*
X18521Y77723*
X1853Y77744*
X18547Y77763*
X18916Y78133*
X19139Y78356*
X19489Y78706*
X19582Y78353*
G37*
G36*
X19615Y78751D02*
X19637Y7874D01*
X19657Y78724*
X20456Y77925*
X20103Y77832*
X19902Y78033*
X19655Y7828*
X19534Y78742*
X19538Y78743*
X19546Y78748*
X19558Y78751*
X19576Y78754*
X19594*
X19615Y78751*
G37*
G36*
X20703Y78833D02*
X20895Y7864D01*
X20946Y78589*
X21017Y78324*
X20816Y78273*
X20031Y79059*
X20382Y79153*
X20703Y78833*
G37*
G36*
X19808Y77005D02*
X19705Y76902D01*
X19603Y76875*
X19523Y77166*
X19585Y77228*
X19887Y77308*
X19808Y77005*
G37*
G36*
X20328Y77525D02*
X20267Y77464D01*
X19962Y77383*
X20044Y77687*
X20146Y77789*
X20248Y77816*
X20328Y77525*
G37*
G36*
X22788Y78513D02*
X22792Y78505D01*
X22797Y78492*
X22799Y78475*
Y78457*
X22795Y78436*
X22785Y78414*
X22769Y78395*
X22399Y78025*
X22176Y77802*
X21826Y77452*
X21733Y77802*
X21804Y77872*
X21955Y78023*
X22178Y78246*
X22324Y78393*
X22788Y78516*
Y78513*
G37*
G36*
X20767Y7914D02*
X21323Y7882D01*
X21036Y78745*
X20803Y78805*
X20454Y79153*
X20509Y79208*
X20767Y7914*
G37*
G36*
X21793Y7899D02*
X21732Y78929D01*
X21427Y78848*
X21509Y79152*
X21611Y79253*
X21712Y7928*
X21793Y7899*
G37*
G36*
X21046Y79817D02*
X20976Y79747D01*
X20827Y79598*
X20604Y79374*
X20456Y79226*
X19993Y79105*
X19992Y7911*
X19987Y79117*
X19984Y79129*
X19981Y79147*
Y79165*
X19986Y79188*
X19995Y79208*
X20011Y79228*
X20381Y79598*
X20604Y7982*
X20954Y80171*
X21046Y79817*
G37*
G36*
X21273Y78469D02*
X21169Y78366D01*
X21068Y78339*
X20988Y78631*
X21049Y78692*
X21352Y78773*
X21273Y78469*
G37*
G36*
X21977Y78815D02*
X22326Y78466D01*
X2227Y78411*
X22013Y78483*
X21456Y788*
X21744Y78878*
X21977Y78815*
G37*
G36*
X22749Y78561D02*
X22397Y78466D01*
X22372Y78492*
X22362Y78502*
X22077Y78786*
X21908Y78956*
X21834Y7903*
X21763Y79295*
X21962Y79348*
X22749Y78561*
G37*
G36*
X16686Y75821D02*
X16708Y75811D01*
X16727Y75794*
X17526Y74995*
X17173Y74903*
X16973Y75103*
X16726Y7535*
X16604Y75812*
X16609Y75814*
X16616Y75818*
X16629Y75821*
X16646Y75824*
X16664*
X16686Y75821*
G37*
G36*
X19057Y75509D02*
X19212Y75353D01*
X18989Y7513*
X18834Y75286*
X18532Y75809*
X19057Y75509*
G37*
G36*
X17773Y75904D02*
X17966Y75711D01*
X18017Y7566*
X18087Y75395*
X17887Y75344*
X17101Y76129*
X17453Y76224*
X17773Y75904*
G37*
G36*
X17399Y74596D02*
X17338Y74535D01*
X17032Y74454*
X17115Y74758*
X17216Y74859*
X17318Y74886*
X17399Y74596*
G37*
G36*
X18337Y75339D02*
X18484Y75193D01*
X18729Y74948*
X18852Y74484*
X18849*
X18841Y74479*
X18828Y74475*
X18812Y74473*
X18792Y74472*
X18771Y74478*
X1875Y74487*
X18729Y74502*
X1793Y75301*
X18101Y75346*
X18119Y75351*
X18283Y75393*
X18337Y75339*
G37*
G36*
X16653Y75423D02*
X16582Y75353D01*
X16433Y75203*
X1621Y74981*
X16061Y74832*
X15599Y74711*
X15598Y74716*
X15593Y74723*
X1559Y74735*
X15587Y74753*
Y74771*
X15592Y74793*
X15601Y74814*
X15617Y74834*
X15987Y75203*
X1621Y75426*
X1656Y75776*
X16653Y75423*
G37*
G36*
X18466Y76468D02*
X18527Y76236D01*
X18451Y75947*
X18132Y76505*
X18062Y76761*
X18117Y76816*
X18466Y76468*
G37*
G36*
X1815Y77286D02*
X18172Y77275D01*
X18192Y77259*
X18991Y7646*
X18638Y76367*
X18437Y76568*
X1819Y76815*
X18069Y77277*
X18074Y77278*
X18081Y77283*
X18093Y77286*
X18111Y77289*
X18129*
X1815Y77286*
G37*
G36*
X19238Y77368D02*
X19431Y77175D01*
X19482Y77124*
X19552Y7686*
X19352Y76809*
X18566Y77594*
X18918Y77688*
X19238Y77368*
G37*
G36*
X1982Y75631D02*
X19468Y75537D01*
X19443Y75562*
X19432Y75573*
X19148Y75857*
X18979Y76026*
X18904Y76101*
X18834Y76366*
X19033Y76418*
X1982Y75631*
G37*
G36*
X17837Y7621D02*
X18394Y7589D01*
X18107Y75815*
X17873Y75875*
X17525Y76224*
X1758Y76279*
X17837Y7621*
G37*
G36*
X19802Y76804D02*
X19948Y76657D01*
X20194Y76412*
X20316Y75949*
X20313*
X20306Y75944*
X20293Y75939*
X20276Y75938*
X20257Y75936*
X20236Y75942*
X20215Y75951*
X20194Y75966*
X19395Y76765*
X19565Y7681*
X19583Y76816*
X19748Y76858*
X19802Y76804*
G37*
G54D99*
X71766Y04444D03*
X73267D03*
X50303Y72897D03*
X51804D03*
X48375Y74421D03*
X46874D03*
X31103Y67309D03*
X29602D03*
X34278Y73278D03*
X32777D03*
X80633Y13969D03*
X79132D03*
X8599Y14096D03*
X87491D03*
X7583Y13842D03*
X77331D03*
Y11937D03*
X7583D03*
X73267Y55498D03*
X71766D03*
X51065Y54228D03*
X52566D03*
X47867Y53974D03*
X46366D03*
X15759Y58546D03*
X1726D03*
X17133Y46735D03*
X15632D03*
X64908Y06984D03*
X66409D03*
X61208Y05014D03*
X62708D03*
X63234Y06984D03*
X61733D03*
X43191Y03428D03*
X44692D03*
X71639Y67309D03*
X7314D03*
X71639Y6515D03*
X7314D03*
X86856Y67436D03*
X85355D03*
X89269Y71246D03*
X87768D03*
X66409Y67055D03*
X64908D03*
X28078Y65277D03*
X29579D03*
X15886Y56387D03*
X17387D03*
X34786Y2578D03*
X33285D03*
X47636Y24256D03*
X49137D03*
X6948Y31622D03*
X70981D03*
X13473Y25018D03*
X14974D03*
X59955Y73532D03*
X61456D03*
G54D100*
X69214Y0673D03*
X73278D03*
X31622Y19176D03*
X35686D03*
G54D101*
X54863Y8039D03*
Y75818D03*
G54D102*
X4102Y73913D03*
G54D103*
X44068Y72516D03*
X75251Y91195D03*
X4997Y85842D03*
X3981D03*
X60257D03*
G54D104*
X44068Y7531D03*
X81797Y87562D03*
X08762Y60342D03*
X08137Y18855D03*
G54D105*
X63322Y77165D03*
Y80213D03*
X44322Y80644D03*
Y77596D03*
G54D106*
X6134Y7837D03*
Y79871D03*
X42163D03*
Y7837D03*
X14731Y37072D03*
Y35571D03*
X1689Y34682D03*
Y36183D03*
X11683Y62114D03*
Y63615D03*
X98424Y72909D03*
Y7441D03*
Y78497D03*
Y79998D03*
X82422Y12711D03*
Y14212D03*
X84327Y12711D03*
Y14212D03*
X44957Y65924D03*
Y67425D03*
X50418Y05472D03*
Y06973D03*
X37718Y12688D03*
Y11187D03*
X52704Y66178D03*
Y67679D03*
X25653Y72147D03*
Y73648D03*
X69849Y17283D03*
Y18784D03*
X20954Y35421D03*
Y3392D03*
G54D107*
X59241Y8039D03*
Y76326D03*
X2832Y79755D03*
Y75691D03*
X37972Y80771D03*
Y76707D03*
G54D108*
X50606Y77921D03*
X49656D03*
X48707D03*
Y8032D03*
X49656D03*
X50606D03*
G54D109*
X41909Y34416D03*
X36575D03*
X61721Y34543D03*
X56387D03*
X41274Y56387D03*
X3594D03*
X6134D03*
X56006D03*
X82295Y56641D03*
X76961D03*
X86994Y34416D03*
X8166D03*
X6515Y74929D03*
X70484D03*
X26542Y21208D03*
X21208D03*
G54D110*
X02031Y6134D03*
X06476D03*
G54D111*
X03555Y72008D03*
Y66674D03*
G54D112*
X21317Y38995D03*
Y43554D03*
Y27438D03*
Y31997D03*
X21444Y49409D03*
Y53968D03*
G54D113*
X15018Y41274D03*
Y29717D03*
X15145Y51688D03*
G54D114*
X52577Y13207D03*
Y16509D03*
G54D115*
X39478Y08508D03*
X37229Y07559D03*
Y09458D03*
X54464Y06349D03*
X52215Y054D03*
Y07299D03*
X41801Y06349D03*
X4405Y07299D03*
Y054D03*
X56406Y06349D03*
X58655Y07299D03*
Y054D03*
X68979Y81975D03*
Y80076D03*
X71228Y81025D03*
G54D116*
X4737Y04971D03*
X46421Y0722D03*
X4832D03*
G54D117*
X31876Y05714D03*
X36956D03*
G54D118*
X31876Y01396D03*
X36956D03*
G54D119*
X49021Y18922D03*
X45973D03*
G54D120*
X26796Y04317D03*
X91566Y86359D03*
X79501Y05841D03*
G54D121*
X81797Y92642D03*
X70171Y91195D03*
X5505Y85842D03*
X4489D03*
X65337D03*
X08762Y71991D03*
X19041Y69433D03*
X08137Y23935D03*
G54D122*
X26034Y93471D03*
X31114D03*
X76315Y75197D03*
X78855D03*
X81395D03*
X83935D03*
X86475D03*
X89015D03*
X98297Y69849D03*
X95757Y72516D03*
X32384Y8547D03*
G54D123*
X28574Y93471D03*
X26034Y90931D03*
X28574D03*
X26034Y88391D03*
X28574D03*
X33654Y93471D03*
X31114Y90931D03*
X33654D03*
X31114Y88391D03*
X33654D03*
X76315Y77737D03*
Y80277D03*
X78855Y77737D03*
Y80277D03*
X81395Y77737D03*
Y80277D03*
X83935Y77737D03*
Y80277D03*
X86475Y77737D03*
Y80277D03*
X89015Y77737D03*
Y80277D03*
X75437Y16509D03*
X77977D03*
X80517D03*
X83057D03*
X85597D03*
X90677Y13969D03*
Y16509D03*
X93217Y13969D03*
Y16509D03*
X95757Y13969D03*
Y16509D03*
X98297Y13969D03*
Y26669D03*
Y29209D03*
Y31749D03*
Y34289D03*
Y36829D03*
Y39369D03*
Y41909D03*
Y44449D03*
Y46989D03*
Y49529D03*
Y52069D03*
Y54609D03*
Y57149D03*
Y59689D03*
Y62229D03*
Y64769D03*
Y67309D03*
X83057D03*
X80517D03*
X77977D03*
X62737D03*
X60197D03*
X57657D03*
X42417D03*
X39877D03*
X37337D03*
X62991Y4483D03*
X60451D03*
X57911D03*
X42671D03*
X40131D03*
X37591D03*
X73151Y35051D03*
X75691Y32511D03*
Y35051D03*
X78231Y32511D03*
Y35051D03*
X83311Y46862D03*
Y44322D03*
X80771Y46862D03*
Y44322D03*
X78231Y46862D03*
Y44322D03*
X75691Y46862D03*
X95757Y80136D03*
Y77596D03*
Y75056D03*
X57149Y12318D03*
Y14858D03*
X59689Y12318D03*
Y14858D03*
X62229Y12318D03*
Y14858D03*
X64769Y12318D03*
Y14858D03*
X67309Y12318D03*
X47751Y14858D03*
Y12318D03*
X45211Y14858D03*
Y12318D03*
X42671Y14858D03*
Y12318D03*
X40131Y14858D03*
X32765Y12318D03*
Y14858D03*
X35305Y12318D03*
X32384Y8293D03*
Y8039D03*
Y7785D03*
X21716Y0927D03*
X24256D03*
X26796D03*
X11919Y02648D03*
Y06241D03*
X10123Y04444D03*
Y08037D03*
X08327Y06241D03*
Y09833D03*
X06531Y08037D03*
Y11629D03*
X04735Y09833D03*
Y13425D03*
X02939Y11629D03*
G54D124*
X07728Y77506D03*
X11321Y81098D03*
X14913Y8469D03*
X18505Y88283D03*
G54D125*
X72897Y16509D03*
X98297D03*
X75437Y67309D03*
X55117D03*
X34797D03*
X55371Y4483D03*
X35051D03*
X73151Y32511D03*
X75691Y44322D03*
X67309Y14858D03*
X40131Y12318D03*
X35305Y14858D03*
X19176Y0927D03*
G54D126*
X07619Y31114D03*
Y36194D03*
Y41274D03*
Y46354D03*
Y51434D03*
Y56514D03*
G54D127*
X13216Y59344D03*
G54D128*
X14477Y69849D03*
X95757Y21589D03*
G54D129*
X44957Y21589D03*
X60197Y69849D03*
X62737D03*
X32257Y21589D03*
X95757Y26669D03*
X93217D03*
X25653Y69849D03*
X42417Y21589D03*
X39877D03*
X95757Y29209D03*
X93217D03*
X95757Y31749D03*
X93217D03*
X95757Y34289D03*
X93217D03*
X95757Y36829D03*
X93217D03*
X95757Y39369D03*
X93217D03*
X95757Y41909D03*
X93217D03*
X95757Y44449D03*
X93217D03*
X95757Y46989D03*
X93217D03*
X95757Y49529D03*
X93217D03*
X95757Y52069D03*
X93217D03*
X95757Y54609D03*
X93217D03*
X95757Y57149D03*
X93217D03*
X95757Y59689D03*
X93217D03*
X95757Y62229D03*
X93217D03*
X95757Y64769D03*
X93217D03*
X95757Y67309D03*
X93217D03*
X85597Y69849D03*
X83057D03*
X80517D03*
X77977D03*
X75437D03*
X72897D03*
X70357D03*
X67817D03*
X28193D03*
X30733D03*
X33273D03*
X35813D03*
X38353D03*
X40893D03*
X44957D03*
X47497D03*
X50037D03*
X52577D03*
X55117D03*
X57657D03*
X23113D03*
X90677Y21589D03*
X88137D03*
X85597D03*
X83057D03*
X80517D03*
X77977D03*
X75437D03*
X72897D03*
X67817D03*
X65277D03*
X62737D03*
X60197D03*
X57657D03*
X55117D03*
X52577D03*
X50037D03*
X95757Y69849D03*
X93217D03*
X37337Y21589D03*
X34797D03*
G54D130*
X70611Y40639D03*
X85851D03*
Y27939D03*
X83311D03*
X80771D03*
X78231D03*
X75691D03*
X73151D03*
Y40639D03*
X88391D03*
X70611Y27939D03*
X88391D03*
X75691Y40639D03*
X78231D03*
X83311D03*
X80771D03*
X50291D03*
X65531D03*
Y27939D03*
X62991D03*
X60451D03*
X57911D03*
X55371D03*
X52831D03*
Y40639D03*
X68071D03*
X50291Y27939D03*
X68071D03*
X55371Y40639D03*
X57911D03*
X62991D03*
X60451D03*
X70357Y63118D03*
X85597D03*
Y50418D03*
X83057D03*
X80517D03*
X77977D03*
X75437D03*
X72897D03*
Y63118D03*
X88137D03*
X70357Y50418D03*
X88137D03*
X75437Y63118D03*
X77977D03*
X83057D03*
X80517D03*
X29717D03*
X44957D03*
Y50418D03*
X42417D03*
X39877D03*
X37337D03*
X34797D03*
X32257D03*
Y63118D03*
X47497D03*
X29717Y50418D03*
X47497D03*
X34797Y63118D03*
X37337D03*
X42417D03*
X39877D03*
X50037D03*
X65277D03*
Y50418D03*
X62737D03*
X60197D03*
X57657D03*
X55117D03*
X52577D03*
Y63118D03*
X67817D03*
X50037Y50418D03*
X67817D03*
X55117Y63118D03*
X57657D03*
X62737D03*
X60197D03*
X29971Y40639D03*
X45211D03*
Y27939D03*
X42671D03*
X40131D03*
X37591D03*
X35051D03*
X32511D03*
Y40639D03*
X47751D03*
X29971Y27939D03*
X47751D03*
X35051Y40639D03*
X37591D03*
X42671D03*
X40131D03*
G54D131*
X13715Y04444D03*
G54D132*
X72008Y03644D03*
X6134Y05714D03*
X68071Y0673D03*
X5683Y05968D03*
X53847Y12064D03*
M02*