%FSTAX23Y23*%
%MOMM*%
%SFA1B1*%

%IPPOS*%
%ADD34C,0.254000*%
%ADD96C,0.177800*%
%LNramps_tmc-1*%
%LPD*%
G36*
X25562Y47346D02*
X25746D01*
Y473*
X25792*
X25838*
Y47254*
X25884*
Y47208*
X2593*
X25976*
Y47162*
X26022*
Y47116*
X26068*
Y4707*
X26113*
Y47024*
X26159*
Y46932*
X26205*
Y46886*
X26251*
Y46748*
X26297*
Y46702*
X26344*
Y46472*
X2639*
Y45828*
X26344*
Y45645*
X26297*
Y45553*
X26205*
Y45507*
X26251*
Y45415*
X26205*
Y45369*
X26159*
Y45277*
X26113*
Y45231*
X26068*
Y45185*
X26022*
Y45139*
X25976*
Y45093*
X2593*
Y45047*
X25884*
X25838*
Y45001*
X25792*
Y44955*
X25746*
X257*
Y44909*
X25562*
Y44863*
X2547*
Y44817*
X25194*
Y44771*
X25148*
X25102*
X25056*
X2501*
Y44817*
X24688*
Y44863*
X24596*
Y44909*
X24504*
Y44955*
X24412*
Y45001*
X24366*
Y45047*
X2432*
X24274*
Y45093*
X24228*
Y45139*
X24182*
Y45185*
X24136*
Y45277*
X2409*
Y45323*
X24044*
Y45369*
X23998*
Y45507*
X23952*
Y45645*
X23906*
Y45875*
X2386*
Y46013*
X23906*
Y46242*
X23952*
Y4638*
X23998*
Y46518*
X24044*
Y46564*
X2409*
Y4661*
X24044*
Y46656*
X23998*
X23952*
Y4661*
X23768*
Y46564*
X23722*
X23584*
X23538*
X23492*
Y46518*
X23401*
X23355*
X23309*
X23217*
Y45185*
X23171*
Y45001*
X23125*
Y44955*
X23079*
Y44909*
X22757*
Y44955*
X22711*
Y45001*
X22665*
Y45185*
X22619*
Y46702*
X22665*
Y46886*
X22711*
Y46932*
X22757*
Y46978*
X22849*
Y47024*
X22895*
X22986*
Y4707*
X23309*
Y47116*
X23355*
X23492*
Y47162*
X23768*
Y47208*
X23814*
X2386*
X23906*
X23952*
X23998*
X24044*
X2409*
Y47254*
X24136*
X24182*
X24228*
X24274*
Y473*
X2432*
X24458*
X24504*
X2455*
Y47254*
X24596*
Y47208*
X24642*
Y47162*
X24688*
Y47024*
X24734*
Y46932*
X24688*
Y4684*
X24642*
Y46748*
X24596*
Y46702*
X2455*
Y46656*
X24504*
Y46564*
X24458*
Y46518*
X24412*
Y46426*
X24366*
Y45875*
X24412*
Y45782*
X24458*
Y45691*
X24504*
Y45645*
X2455*
Y45599*
X24642*
Y45553*
X24734*
Y45507*
X2478*
Y45461*
X24826*
X24872*
X24918*
X24964*
X2501*
X25056*
X25102*
X25148*
X25194*
X2524*
X25286*
X25332*
X25378*
Y45415*
X25424*
Y45461*
X2547*
Y45507*
X25516*
X25562*
Y45553*
X25654*
Y45599*
X257*
Y45645*
X25746*
Y45599*
X25792*
Y45645*
X25746*
Y45691*
X25792*
Y45737*
X25838*
Y45828*
X25884*
Y45921*
X2593*
Y46334*
X25976*
Y4638*
X2593*
Y46334*
X25884*
Y46426*
X25838*
Y46518*
X25792*
Y46564*
X25746*
Y4661*
X257*
Y46656*
X25654*
Y46702*
X25608*
Y46748*
X25562*
X25516*
Y46794*
X2547*
X25424*
Y4684*
X25332*
Y46886*
X25286*
Y46932*
X2524*
Y47024*
X25194*
Y47162*
X2524*
Y473*
X25286*
X25332*
Y47346*
X25424*
Y47392*
X25562*
Y47346*
G37*
G36*
X20319Y62981D02*
X20411D01*
Y62889*
X20457*
Y62935*
X20503*
Y62889*
X20549*
Y62843*
X20503*
Y62797*
X20595*
Y62521*
X20549*
Y62429*
X20457*
Y62383*
X20365*
Y62337*
X20319*
Y62291*
X20182*
Y62245*
X20044*
Y62199*
X19952*
Y62153*
X19814*
Y62107*
X19676*
Y62061*
X1963*
Y60544*
X19676*
Y6059*
X19722*
Y60682*
X19768*
Y60728*
X19814*
Y60774*
X1986*
Y6082*
X19906*
Y60866*
X19952*
Y60911*
X19998*
Y61003*
X20044*
Y61049*
X2009*
Y61095*
X20136*
Y61142*
X20182*
Y61187*
X20228*
Y61234*
X20274*
Y6128*
X20319*
Y61326*
X20411*
Y61371*
X20457*
Y61417*
X20503*
Y61463*
X20549*
Y61509*
X20595*
Y61555*
X20641*
Y61601*
X20733*
Y61647*
X20779*
Y61693*
X20825*
Y61739*
X20917*
Y61785*
X20963*
Y61831*
X21055*
Y61877*
X21101*
Y61923*
X21193*
Y61969*
X21239*
Y62015*
X21331*
Y62061*
X21423*
Y62107*
X21515*
Y62153*
X21561*
Y62199*
X21653*
Y62245*
X21745*
Y62291*
X21883*
Y62337*
X21975*
Y62383*
X22067*
Y62429*
X22159*
X22205*
Y62475*
X22297*
Y62521*
X22435*
Y62567*
X22573*
Y62613*
X22757*
Y62659*
X22849*
X22895*
X22941*
Y62705*
X22986*
X23032*
X23079*
X23125*
Y62751*
X23171*
X23309*
X23355*
X23401*
Y62797*
X23768*
Y62843*
X24918*
Y62797*
X25286*
Y62751*
X25332*
X2547*
X25516*
X25562*
Y62705*
X25608*
X25654*
X257*
X25746*
Y62659*
X25792*
X25838*
X25884*
X2593*
Y62613*
X26113*
Y62567*
X26251*
Y62521*
X2639*
Y62475*
X26482*
Y62429*
X26619*
Y62383*
X26711*
Y62337*
X26803*
Y62291*
X26941*
Y62245*
X27033*
Y62199*
X27079*
X27125*
Y62153*
X27171*
Y62107*
X27263*
Y62061*
X27355*
Y62015*
X27447*
Y61969*
X27493*
Y61923*
X27585*
Y61877*
X27631*
Y61831*
X27723*
Y61785*
X27769*
Y61739*
X27861*
Y61693*
X27907*
Y61647*
X27953*
Y61601*
X28045*
Y61555*
X28091*
Y61509*
X28137*
Y61463*
X28183*
Y61417*
X28229*
Y61371*
X28275*
Y61326*
X28367*
Y6128*
X28413*
Y61234*
X28459*
Y61187*
X28505*
Y61142*
X28551*
Y61095*
X28597*
Y61049*
X28643*
Y61003*
X28689*
Y60911*
X28735*
Y60866*
X28781*
Y6082*
X28827*
Y60774*
X28873*
Y60728*
X28919*
Y60682*
X28965*
Y6059*
X29011*
Y60544*
X29057*
Y60498*
X29103*
Y60406*
X29149*
Y6036*
X29195*
Y60268*
X2924*
Y60222*
X29286*
Y6013*
X29332*
Y60084*
X29378*
Y59992*
X29424Y59992*
Y599*
X2947*
Y59854*
X29516*
Y59762*
X29563*
Y5967*
X29608*
Y59578*
X29655*
Y59486*
X297*
Y59394*
X29746*
Y59256*
X29792*
Y59164*
X29838*
Y59026*
X29884*
Y58888*
X2993*
Y5875*
X29976*
Y58612*
X30022*
Y58428*
X30068*
Y58199*
X30114*
Y57969*
X3016*
Y57601*
X30206*
Y56451*
X3016*
Y56083*
X30114*
Y55853*
X30068*
Y55623*
X30022*
Y55439*
X29976*
Y55301*
X2993*
Y55163*
X29884*
Y55026*
X29838*
Y54888*
X29792*
Y54796*
X29746*
Y54658*
X297*
Y54566*
X29655*
Y54474*
X29608*
Y54382*
X29563*
Y5429*
X29516*
Y54198*
X2947*
Y54152*
X29424*
Y5406*
X29378*
Y53968*
X29332*
Y53922*
X29286*
Y5383*
X2924*
Y53784*
X29195*
Y53692*
X29149*
Y53646*
X29103*
Y53554*
X29057*
Y53508*
X29011*
Y53462*
X28965*
Y5337*
X28919*
Y53324*
X28873*
Y53278*
X28827*
Y53232*
X28781*
Y53186*
X28735*
Y5314*
X28689*
Y53048*
X28643*
Y53002*
X28597*
Y52956*
X28551*
Y5291*
X28505*
Y52864*
X28459*
Y52818*
X28413*
Y52772*
X28367*
Y52726*
X28275*
Y5268*
X28229*
Y52634*
X28183*
Y52588*
X28137*
Y52542*
X28091*
Y52496*
X28045*
Y5245*
X27953*
Y52404*
X27907*
Y52358*
X27861*
Y52312*
X27815*
X27769*
Y52266*
X27723*
Y5222*
X27631*
Y52174*
X27585*
Y52128*
X27493*
Y52082*
X27447*
Y52036*
X27355*
Y51991*
X27263*
Y51945*
X27171*
Y51899*
X27125*
Y51853*
X27033*
Y51807*
X26941*
Y51761*
X26895*
X26849*
X26803*
Y51715*
X26711*
Y51669*
X26619*
Y51623*
X26482*
Y51577*
X26436*
X2639*
Y51531*
X26251*
Y51485*
X26113*
Y51439*
X2593*
Y51393*
X25746*
Y51347*
X25562*
Y51255*
X25516*
Y51071*
X2547*
Y51025*
X25424*
Y50979*
X25378*
Y50933*
X25148*
Y50979*
X25056*
Y51117*
X2501*
Y51255*
X24964*
X24918*
Y51209*
X24596*
Y51117*
X2455*
Y50887*
X24504*
Y50703*
X24458*
Y50565*
X24412*
Y50427*
X24366*
Y50289*
X2432*
Y50151*
X24274*
Y50059*
X24228*
Y49921*
X24182*
Y49829*
X24136*
Y49737*
X24182*
Y49783*
X24228*
Y49829*
X24504*
Y49783*
X2455*
Y49737*
X24596*
Y49047*
X24642*
Y48909*
X24688*
Y48864*
X24734*
Y48772*
X24826*
Y48726*
X24872*
Y4868*
X24918*
X24964*
Y48634*
X25516*
Y4868*
X25562*
X25608*
Y48726*
X25654*
Y48772*
X25746*
Y48864*
X25838*
Y48955*
X25884*
Y49093*
X2593*
Y49461*
X25884*
Y49599*
X25838*
Y49691*
X25792*
Y49737*
X257*
Y49783*
X25654*
Y49829*
X25608*
Y49875*
X2547*
Y49921*
X25424*
Y49967*
X25286*
Y50013*
X25194*
Y50059*
X25148*
Y50151*
X25102*
Y50289*
X25148*
Y50335*
X25102*
Y50381*
X25148*
Y50427*
X25194*
Y50473*
X2524*
Y50519*
X25608*
Y50473*
X257*
Y50427*
X25792*
Y50381*
X25884*
Y50335*
X2593*
Y50289*
X25976*
Y50243*
X26022*
Y50197*
X26068*
Y50151*
X26113*
Y50105*
X26159*
Y50059*
X26205*
Y49967*
X26251*
Y49875*
X26297*
Y49783*
X26344*
Y49691*
X26297*
Y49645*
X26344*
Y49599*
X2639*
Y48955*
X26344*
Y48772*
X26297*
Y4868*
X26251*
X26205*
Y48634*
X26251*
Y48588*
X26205*
Y48496*
X26159*
Y4845*
X26113*
Y48358*
X26068*
Y48312*
X26022*
Y48266*
X25976*
Y4822*
X2593*
X25884*
Y48174*
X25838*
Y48128*
X25746*
Y48082*
X257*
Y48128*
X25654*
Y48036*
X25562*
Y4799*
X25516*
X2547*
X25332*
X25286*
Y47944*
X2524*
X25194*
X25148*
X25102*
Y4799*
X25056*
Y48036*
X2501*
Y4799*
X24964*
X24918*
X24872*
Y48036*
X24826*
Y48082*
X24734*
Y48128*
X24642*
Y48174*
X24688*
Y4822*
X24642*
Y48174*
X24596*
Y4822*
X2455*
Y48266*
X24504*
Y48312*
X24458*
Y48358*
X24412*
Y4845*
X24366*
Y48542*
X24228*
Y4845*
X24182*
Y48404*
X24136*
X2409*
Y48358*
X24044*
Y48312*
X23998*
Y48266*
X23952*
X23906*
Y4822*
X2386*
X23814*
Y48174*
X23768*
X23722*
X23676*
Y48128*
X23309*
Y48174*
X23263*
X23217*
Y4822*
X23171*
X23125*
X23079*
X23032*
Y48174*
X22986*
Y48128*
X22941*
Y48082*
X22895*
Y48036*
X22849*
Y4799*
X22757*
Y47944*
X22711*
Y47898*
X22665*
Y47852*
X22619*
Y47806*
X22573*
Y4776*
X22527*
Y47714*
X22435*
Y47668*
X22389*
Y47622*
X22343*
Y47576*
X22251*
Y4753*
X22205*
Y47484*
X22113*
Y47438*
X22067*
Y47392*
X21975*
Y47346*
X21929*
Y473*
X21837*
Y47254*
X21745*
Y47208*
X21653*
Y47162*
X21607*
Y47116*
X21515*
Y4707*
X21423*
Y47024*
X21285*
Y46978*
X21193*
Y46932*
X21101*
Y46886*
X20963*
Y4684*
X20871*
Y46794*
X20733*
Y46748*
X20595*
Y46702*
X20411*
Y46656*
X20228*
Y4661*
X20044*
Y46564*
X19768*
Y46518*
X19492*
X19446*
X194*
Y46472*
X19354*
X19216*
X1917*
X19124*
X18986*
X1894*
X18894*
X18756*
X1871*
X18664*
X18526*
X1848*
X18434*
X18388*
X18342*
X18296*
X1825*
Y46518*
X18204*
X18158*
X18112*
X18066*
X1802*
X17974*
X17928*
X17882*
Y46564*
X17836*
X1779*
X17744*
X17606*
Y4661*
X17422*
Y46656*
X17376*
X1733*
X17284*
X17238*
Y46702*
X17193*
X17147*
X17101*
X17055*
Y46748*
X17009*
X16963*
X16917*
Y46794*
X16825*
X16779*
Y4684*
X16687*
Y46886*
X16595*
X16549*
Y46932*
X16503*
X16457*
Y46978*
X16411*
X16365*
Y47024*
X16319*
X16273*
X16227*
Y4707*
X16135*
Y47116*
X16043*
Y47162*
X15997*
Y47208*
X15951*
X15905*
Y47254*
X15859*
X15813*
Y473*
X15721*
Y47346*
X15675*
Y47392*
X15583*
Y47438*
X15537*
Y47484*
X15445*
X15445Y4753*
X15399*
Y47576*
X15307*
Y47622*
X15261*
Y47668*
X15215*
Y47714*
X15169*
X15123*
Y4776*
X15077*
Y47806*
X15031*
Y47852*
X14985*
Y47898*
X14939*
Y47944*
X14893*
Y4799*
X14801*
Y48036*
X14755*
Y48082*
X14709*
Y48128*
X14663*
Y48174*
X14617*
Y4822*
X14571*
Y48266*
X14526*
Y48312*
X1448*
Y48404*
X14434*
Y4845*
X14388*
Y48496*
X14341*
Y48542*
X14295*
Y48588*
X1425*
Y48634*
X14203*
Y48726*
X14157*
Y48772*
X14111*
Y48818*
X14066*
Y48909*
X1402*
Y48955*
X13974*
Y49047*
X13928*
Y49093*
X13882*
Y49186*
X13836*
Y49232*
X1379*
Y49324*
X13744*
Y49415*
X13698*
Y49461*
X13652*
Y49553*
X13606*
Y49645*
X1356*
Y49737*
X13514*
Y49829*
X13468*
Y49921*
X13422*
Y50059*
X13376*
Y50151*
X1333*
Y50289*
X13284*
Y50427*
X13238*
Y50565*
X13192*
Y50703*
X13146*
Y50887*
X131*
Y51117*
X13054*
Y51347*
X13008*
Y51715*
X12962*
Y52864*
X13008*
Y53232*
X13054*
Y53462*
X131*
Y53692*
X13146*
Y53876*
X13192*
Y54014*
X13238*
Y54152*
X13284*
Y5429*
X1333*
Y54428*
X13376*
Y5452*
X13422*
Y54658*
X13468*
Y5475*
X13514*
Y54842*
X1356*
Y54934*
X13606*
Y55026*
X13652*
Y55117*
X13698*
Y55163*
X13744*
Y55255*
X1379*
Y55347*
X13836*
Y55393*
X13882*
Y55485*
X13928*
Y55531*
X13974*
Y55623*
X1402*
Y55669*
X14066*
Y55761*
X14111*
Y55807*
X14157*
Y55853*
X14203*
Y55945*
X14249*
X1425Y55991*
X14295*
Y56037*
X14341*
Y56083*
X14388*
Y56129*
X14434*
Y56175*
X1448*
Y56267*
X14526*
Y56313*
X14571*
Y56359*
X14617*
Y56405*
X14663*
Y56451*
X14709*
Y56497*
X14755*
Y56543*
X14801*
Y56589*
X14893*
Y56635*
X14939*
Y56681*
X14985*
Y56727*
X15031*
Y56773*
X15077*
Y56819*
X15123*
Y56865*
X15215*
Y56911*
X15261*
Y56957*
X15307*
Y57003*
X15399*
Y57049*
X15445*
Y57095*
X15537*
Y57141*
X15583*
Y57187*
X15675*
Y57233*
X15721*
Y57279*
X15813*
Y57325*
X15905*
Y57371*
X15997*
Y57417*
X16043*
Y57463*
X16135*
Y57509*
X16227*
Y57555*
X16365*
Y57601*
X16411*
X16457*
Y57647*
X16549*
Y57693*
X16687*
Y57739*
X16779*
Y57784*
X16825*
Y58704*
X16871*
Y58796*
X16917*
Y58842*
X16963*
Y58888*
X17193*
Y58934*
X17744*
X1779*
X17836*
X17974*
X1802*
X18066*
X18204*
X1825*
X18296*
X18434*
X1848*
X18526*
X18802*
Y59026*
X18848*
Y59164*
X18894*
Y59256*
X1894*
Y59394*
X18986*
Y59486*
X19032*
Y59578*
X19078*
Y5967*
X19124*
Y59762*
X1917*
Y59854*
X19216*
Y599*
X19262*
Y59946*
X19124*
Y59992*
X19032*
X18986Y59992*
Y60038*
X1894*
X18894*
Y60084*
X18802*
Y6013*
X18664*
Y60176*
X18572*
Y60222*
X18526*
X1848*
X18434*
Y60268*
X18388*
X18342*
X18296*
Y60314*
X1825*
Y6036*
X18112*
Y60406*
X18066*
X1802*
X17974*
Y60452*
X17928*
X17882*
Y60498*
X17836*
X1779*
X17744*
Y60544*
X17698*
X17652*
Y6059*
X17561*
Y60636*
X17422*
Y60682*
X1733*
X17284*
Y60728*
X17238*
X17193*
Y60774*
X17147*
X17101*
X17055*
Y6082*
X17009*
Y60866*
X16963*
Y60911*
X16871*
Y61003*
X16825*
Y61049*
X16779*
Y61234*
X16733*
Y61326*
X16779*
Y61509*
X16825*
Y61601*
X16871*
Y61647*
X16917*
Y61693*
X16963*
Y61739*
X17009*
X17055*
X17101*
Y61785*
X17147*
Y61831*
X17238*
X17284*
Y61877*
X17422*
Y61923*
X17468*
X17514*
Y61969*
X17561*
X17606*
X17652*
Y62015*
X17698*
X17744*
Y62061*
X1779*
X17836*
Y62107*
X17928*
Y62061*
X17974*
Y62153*
X18066*
Y62199*
X18112*
X18158*
X18204*
Y62153*
X1825*
Y62199*
X18204*
Y62245*
X1825*
X18296*
X18342*
Y62291*
X18434*
Y62337*
X18526*
Y62383*
X18664*
Y62429*
X1871*
X18756*
Y62475*
X18894*
Y62521*
X1894*
X18986*
X19032*
Y62567*
X19124*
Y62521*
X1917*
Y62567*
X19124*
Y62613*
X19262*
Y62659*
X19308*
X19354*
X194*
Y62705*
X19446*
X19492*
Y62751*
X19584*
Y62797*
X19722*
Y62843*
X19814*
Y62889*
X19952*
Y62935*
X20044*
Y62889*
X2009*
Y62981*
X20274*
Y63027*
X20319*
Y62981*
G37*
G36*
X19078Y66752D02*
X1917D01*
X19216*
X19262*
Y66706*
X19446*
Y6666*
X19584*
Y66614*
X19676*
Y66568*
X19768*
Y66522*
X1986*
Y66476*
X19906*
Y6643*
X19952*
Y66384*
X20044*
Y66338*
X2009*
Y66292*
X20136*
Y66246*
X20182*
Y662*
X20228*
Y66154*
X20274*
Y66108*
X20319*
Y66016*
X20365*
Y6597*
X20411*
Y65878*
X20457*
Y6574*
X20503*
Y65648*
X20549*
Y65418*
X20595*
Y64636*
X20549*
Y64452*
X20503*
Y6436*
X20457*
Y64222*
X20411*
Y6413*
X20365*
Y64084*
X20319*
Y63993*
X20274*
Y64038*
X20228*
Y63993*
X20274*
Y63947*
X20228*
Y63901*
X20182*
Y63855*
X20136*
Y63809*
X2009*
Y63855*
X20044*
Y63809*
X2009*
Y63763*
X20044*
Y63717*
X19998*
Y63763*
X19952*
Y63671*
X19906*
Y63625*
X19814*
Y63579*
X19722*
Y63533*
X1963*
Y63487*
X19216*
Y63533*
X1917*
Y63579*
X19124*
Y63625*
X19078*
Y63763*
X19032*
Y63809*
X19078*
Y63947*
X19124*
Y63993*
X1917*
Y64038*
X19216*
Y64084*
X19354*
Y6413*
X194*
X19446*
X19492*
Y64176*
X19538*
Y64222*
X1963*
Y64268*
X19722*
Y64314*
X19768*
Y6436*
X19814*
Y64452*
X1986*
Y64498*
X19906*
Y6459*
X19952*
Y64682*
X19998*
Y6482*
X20044*
Y6528*
X19998*
Y65372*
X19952*
Y6551*
X19906*
Y65602*
X1986*
Y65648*
X19814*
Y65694*
X19768*
Y6574*
X19814*
Y65786*
X19768*
Y6574*
X19722*
Y65786*
X19676*
Y65832*
X1963*
Y65878*
X19538*
Y65924*
X19446*
Y6597*
X194*
X19308*
Y66016*
X19216*
X1917*
X19124*
X19078*
Y66062*
X19032*
X18986*
X1894*
X18894*
X18848*
X18802*
X18756*
X1871*
X18664*
X18618*
X18572*
X18526*
X1848*
X18434*
X18388*
X18342*
Y66016*
X18296*
X1825*
X18204*
X18112*
Y6597*
X18066*
X1802*
X17974*
X17928*
Y65924*
X17882*
Y65878*
X1779*
Y65832*
X17744*
X17698*
Y65786*
X17652*
Y6574*
X17606*
Y65786*
X17561*
Y6574*
X17606*
Y65694*
X17561*
Y65648*
X17514*
Y65694*
X17468*
Y65648*
X17514*
Y65556*
X17468*
Y6551*
X17422*
Y65418*
X17376*
Y65234*
X1733*
Y64774*
X17376*
Y64636*
X17422*
Y64544*
X17468*
Y64498*
X17514*
Y64407*
X17561*
Y6436*
X17606*
Y64314*
X17652*
Y64268*
X17744*
Y64222*
X1779*
Y64176*
X17882*
Y6413*
X17928*
X17974*
Y64084*
X1802*
Y64038*
X18112*
Y63993*
X18158*
Y63855*
X18204*
Y63763*
X18158*
Y63625*
X18112*
Y63579*
X18066*
Y63533*
X1802*
Y63487*
X17698*
Y63533*
X17606*
Y63579*
X17514*
Y63671*
X17468*
Y63625*
X17422*
Y63671*
X17376*
Y63717*
X17284*
Y63763*
X17238*
Y63809*
X17193*
Y63855*
X17147*
Y63901*
X17101*
Y63993*
X17055*
Y64038*
X17009*
Y64084*
X17055*
Y6413*
X17009*
X16963*
Y64222*
X16917*
Y64314*
X16871*
Y64452*
X16825*
Y64636*
X16779*
Y64958*
X16733*
Y65096*
X16779*
Y65418*
X16825*
Y65602*
X16871*
Y6574*
X16917*
Y65832*
X16963*
Y65924*
X17055*
Y6597*
X17009*
Y66016*
X17055*
Y66062*
X17101*
Y66016*
X17147*
Y66062*
X17101*
Y66108*
X17147*
Y662*
X17193*
Y66246*
X17238*
Y66292*
X17284*
Y66338*
X1733*
Y66384*
X17422*
Y6643*
X17468*
Y66384*
X17514*
Y6643*
X17468*
Y66476*
X17514*
Y66522*
X17561*
Y66476*
X17606*
Y66568*
X17652*
X17698Y66568*
Y66614*
X1779*
Y6666*
X17928*
Y66706*
X17974*
X1802*
X18066*
X18112*
Y66752*
X18158*
X18204*
X1825*
Y66798*
X18296*
X18342*
X18388*
X18434*
X1848*
X18526*
X18572*
X18618*
X18664*
X1871*
X18756*
X18894*
X1894*
X18986*
X19078*
Y66752*
G37*
%LNramps_tmc-2*%
%LPC*%
G36*
X16963Y5406D02*
X16917D01*
Y54014*
X16871*
Y53968*
X16825*
Y53922*
X16779*
Y53876*
X16733*
Y53784*
X16687*
Y53738*
X16641*
Y53692*
X16595*
Y536*
X16549*
Y53508*
X16503*
Y53416*
X16457*
Y53324*
X16411*
Y53232*
X16365*
Y53094*
X16319*
Y52956*
X16273*
Y5268*
X16227*
Y51945*
X16273*
Y51623*
X16319*
Y51531*
X16365*
Y51347*
X16411*
Y51255*
X16457*
Y51163*
X16503*
Y51071*
X16549*
Y51025*
X16595*
Y50933*
X16641*
Y50887*
X16687*
Y50795*
X16733*
Y50703*
X16779*
X16825*
Y50611*
X16871*
Y50565*
X16917*
Y50519*
X16963*
Y50473*
X17009*
Y50427*
X17055*
Y50381*
X17101*
Y50335*
X17147*
Y50289*
X17193*
X17238*
Y50243*
X17284*
Y50197*
X1733*
X17376*
Y50151*
X17468*
Y50105*
X17514*
Y50059*
X17561*
X17606*
Y50013*
X17744*
Y49967*
X1779*
X17836*
Y49921*
X17974*
Y49875*
X18112*
Y49829*
X18204*
X1825*
X18296*
X18342*
Y49783*
X18388*
X18434*
X1848*
X18526*
X18572*
X18618*
X19078*
Y49829*
X19354*
Y49875*
X194*
X19446*
X19492*
Y49921*
X19538*
Y50013*
X19492*
Y50059*
X19446*
Y50151*
X194*
Y50243*
X19354*
Y50289*
X19308*
Y50381*
X19262*
Y50427*
X19216*
Y50519*
X1917*
Y50565*
X19124*
Y50519*
X1848*
X18434*
X18388*
X18342*
Y50565*
X18296*
X1825*
X18158*
Y50611*
X18066*
Y50657*
X17928*
Y50703*
X17882*
Y50749*
X1779*
Y50795*
X17744*
Y50841*
X17698*
X17652*
Y50887*
X17606*
Y50933*
X17561*
Y50979*
X17514*
Y51025*
X17422*
Y51117*
X17376*
Y51163*
X1733*
Y51209*
X17284*
Y51255*
X17238*
Y51347*
X17193*
Y51393*
X17147*
Y51485*
X17101*
Y51623*
X17055*
Y51715*
X17009*
Y51899*
X16963*
Y52128*
X16917*
Y52496*
X16963*
Y5268*
X17009*
Y52864*
X17055*
Y53002*
X17101*
Y53094*
X17147*
Y53186*
X17193*
Y53278*
X17238*
Y53324*
X17284*
Y53416*
X1733*
Y53462*
X17284*
Y53554*
X17238*
Y53646*
X17193*
Y53692*
X17147*
Y53784*
X17101*
Y5383*
X17055*
Y53922*
X17009*
Y53968*
X16963*
Y5406*
G37*
G36*
X19032Y54796D02*
X18986D01*
X1894*
X18894*
X18848*
X18802*
X18756*
X1871*
X18664*
X18618*
X18572*
X18526*
X1848*
X18434*
X18388*
X18342*
X1825*
Y5475*
X18066*
Y54704*
X17974*
X17928*
Y54612*
X17974*
Y5452*
X1802*
Y54474*
X18066*
Y54382*
X18112*
Y54336*
X18158*
Y54244*
X18204*
Y54152*
X1825*
Y54106*
X18296*
Y5406*
X18572*
Y54106*
X18894*
Y5406*
X1894*
X18986*
X19032*
X19078*
X19124*
X1917*
X19216*
Y54014*
X19262*
X19308*
X19354*
Y53968*
X19446*
Y53922*
X19584*
Y53876*
X1963*
Y5383*
X19676*
X19722*
Y53784*
X19768*
Y53738*
X1986*
Y53692*
X19906*
Y53646*
X19952*
Y536*
X19998*
Y53554*
X20044*
Y53508*
X2009*
Y53462*
X20136*
Y53416*
X20182*
Y53324*
X20228*
Y53278*
X20274*
Y53186*
X20319*
Y53094*
X20365*
Y53002*
X20411*
Y52864*
X20457*
Y52726*
X20503*
Y52496*
X20549*
Y52082*
X20503*
Y51899*
X20457*
Y51715*
X20411*
Y51577*
X20365*
Y51485*
X20319*
Y51393*
X20274*
Y51347*
X20228*
Y51255*
X20182*
Y51209*
X20136*
Y51117*
X20182*
Y51071*
X20228*
Y50979*
X20274*
Y50933*
X20319*
Y50841*
X20365*
Y50749*
X20411*
Y50703*
X20457*
Y50611*
X20503*
Y50565*
X20595*
Y50611*
X20641*
Y50657*
X20687*
Y50703*
X20733*
Y50795*
X20779*
Y50841*
X20825*
Y50933*
X20871*
Y50979*
X20917*
Y51071*
X20963*
Y51117*
X21009*
Y51255*
X21055*
Y51393*
X21101*
Y51485*
X21147*
Y51669*
X21193*
Y51853*
X21239*
Y52726*
X21193*
Y52956*
X21147*
Y53094*
X21101*
Y53232*
X21055*
Y53324*
X21009*
Y53462*
X20963*
Y53508*
X20917*
Y536*
X20871*
Y53692*
X20825*
Y53738*
X20779*
Y5383*
X20733*
Y53876*
X20687*
Y53922*
X20641*
Y53968*
X20595*
Y54014*
X20549*
Y5406*
X20503*
Y54106*
X20457*
Y54152*
X20411*
Y54198*
X20365*
Y54244*
X20319*
Y5429*
X20274*
Y54336*
X20228*
X20182*
Y54382*
X20136*
X2009*
Y54428*
X20044*
Y54474*
X19952*
Y5452*
X19906*
Y54566*
X19814*
Y54612*
X19676*
Y54658*
X19538*
Y54704*
X19446*
Y5475*
X19216*
Y54796*
X19078*
X19032*
G37*
G36*
X25424Y53186D02*
X25332D01*
Y5314*
X25424*
Y53186*
G37*
G36*
X18756Y53324D02*
X18664D01*
Y53278*
X18434*
Y53232*
X18388*
X18342*
X18296*
Y53186*
X1825*
Y5314*
X18158*
Y53094*
X18112*
Y53048*
X18066*
Y53002*
X1802*
Y52956*
X17974*
Y5291*
X17928*
Y52864*
X17882*
Y52818*
X17836*
Y5268*
X1779*
Y52588*
X17744*
Y52036*
X1779*
Y51991*
X17836*
Y52036*
X17882*
X17928*
Y52082*
X17974*
X1802*
Y52496*
X18066*
Y52588*
X18112*
Y52726*
X18204*
Y52818*
X1825*
Y52864*
X18342*
Y5291*
X18388*
Y52956*
X1848*
Y53002*
X18894*
X1894*
X18986*
Y52956*
X19032*
X19078*
Y5291*
X1917*
Y52864*
X19216*
Y5291*
X19308*
Y52956*
X19354*
Y53002*
X19446*
Y53048*
X19354*
Y53094*
X19308*
Y5314*
X19262*
Y53186*
X19216*
X1917*
Y53232*
X19124*
X19032*
Y53278*
X18986*
X1894*
X18894*
X18756*
Y53324*
G37*
G36*
X2478Y53646D02*
X24734D01*
Y536*
X2478*
Y53462*
X24826*
Y53324*
X24872*
Y53232*
X24918*
Y53324*
X24872*
Y53462*
X24826*
Y536*
X2478*
Y53646*
G37*
G36*
X19262Y55853D02*
X19216D01*
Y55807*
X1917*
Y55761*
X19124*
Y55715*
X19078*
X19032*
Y55761*
X18756*
Y55715*
X18526*
Y55761*
X18342*
Y55715*
X1825*
Y55761*
X18204*
Y55807*
X18158*
X18112*
X18066*
X1802*
Y55761*
X17974*
Y55853*
X17928*
X17882*
Y55807*
X17928*
Y55669*
X17974*
Y55623*
X1802*
Y55577*
X18066*
Y55531*
X18204*
X1825*
X18296*
X18342*
X18388*
X18434*
X1848*
X18526*
X18572*
X18618*
X18664*
X19078*
Y55577*
X19124*
Y55623*
X1917*
Y55669*
X19216*
Y55761*
X19262*
Y55853*
G37*
G36*
X17468Y56083D02*
X17422D01*
Y56037*
X17468*
X17561*
Y56083*
X17514*
X17468*
G37*
G36*
X194Y56175D02*
X19354D01*
Y56083*
X194*
Y56129*
X19446*
Y56175*
X194*
G37*
G36*
X19722Y56129D02*
Y56083D01*
X19814*
Y56129*
X19768*
X19722*
G37*
G36*
X17744D02*
X17561D01*
Y56083*
X17744*
Y56037*
X1779*
Y55945*
X17836*
Y55853*
X17882*
Y55945*
X17836*
Y56037*
X1779*
Y56083*
X17744*
Y56129*
G37*
G36*
X19308Y55945D02*
X19262D01*
Y55853*
X19308*
Y55945*
G37*
G36*
X19354Y56083D02*
X19308D01*
Y55991*
X19354*
Y56083*
G37*
G36*
X25286Y5314D02*
X25194D01*
Y53094*
X2524*
X25286*
Y5314*
G37*
G36*
X24504Y48404D02*
X24458D01*
Y48358*
X24504*
Y48404*
G37*
G36*
X24596Y49047D02*
X2455D01*
Y49001*
X24596*
Y49047*
G37*
G36*
X24136Y49737D02*
X2409D01*
Y49645*
X24044*
Y49553*
X23998*
Y49461*
X23952*
Y49415*
X23906*
Y49324*
X2386*
Y49232*
X23814*
Y49186*
X23768*
Y49093*
X23722*
Y49047*
X23676*
Y48955*
X2363*
Y48909*
X23584*
Y48818*
X23538*
Y48772*
X23722*
Y48818*
X23768*
X23814*
Y48864*
X2386*
X23906*
Y48909*
X23952*
Y48955*
X23998*
Y49047*
X24044*
Y4914*
X2409*
Y49553*
X24136*
Y49737*
G37*
G36*
X24458Y45645D02*
Y45599D01*
X24504*
Y45645*
X24458*
G37*
G36*
X25884Y45737D02*
X25838D01*
Y45691*
X25884*
Y45737*
G37*
G36*
X24596Y47208D02*
X2455D01*
Y47162*
X24596*
Y47208*
G37*
G36*
X22711Y52128D02*
X22665D01*
Y51991*
X22711*
Y52128*
G37*
G36*
X19722Y52588D02*
X19584D01*
Y52542*
X19538*
Y52496*
X19492*
X19446*
Y52082*
X194*
Y51945*
X19354*
Y51899*
X19308*
Y51853*
X19262*
Y51761*
X1917*
Y51715*
X19124*
Y51669*
X19032*
Y51623*
X1894*
Y51577*
X18664*
X18618*
X18572*
X18526*
Y51623*
X1848*
X18434*
Y51669*
X18342*
Y51715*
X18204*
Y51669*
X18158*
Y51623*
X18066*
Y51531*
X18112*
Y51485*
X18204*
Y51439*
X1825*
Y51393*
X18296*
X18342*
Y51347*
X18388*
X18434*
X18526*
Y51301*
X18802*
X18848*
X18894*
X1894*
X18986*
Y51347*
X19032*
X19078*
X19124*
Y51393*
X1917*
X19216*
Y51439*
X19262*
X19308*
Y51485*
X19354*
Y51531*
X194*
Y51577*
X19446*
Y51623*
X19492*
Y51669*
X19538*
Y51715*
X19584*
Y51807*
X1963*
Y51853*
X19676*
Y52036*
X19722*
Y52588*
G37*
G36*
X24918Y53186D02*
X24872D01*
Y53094*
X24826*
Y53048*
X2478*
Y53094*
X24734*
Y53048*
X24688*
Y52956*
X24642*
Y5291*
X24596*
Y52956*
X2455*
Y5291*
X24504*
Y52818*
X24458*
Y52864*
X24412*
Y52818*
X24458*
Y52772*
X24412*
Y52818*
X24366*
Y52772*
X2432*
Y5268*
X24182*
Y52634*
X24136*
X2409*
Y52588*
X24136*
Y52542*
X2409*
X24044*
X23998*
Y52496*
X23952*
Y52404*
X23906*
Y5245*
X2386*
Y52404*
X23814*
Y52312*
X23768*
Y52358*
X23722*
Y52312*
X23676*
Y52266*
X2363*
Y52174*
X23584*
Y5222*
X23538*
Y52174*
X23584*
Y52128*
X23538*
Y52174*
X23492*
Y52128*
X23446*
Y52082*
X23492*
X23538*
X23584*
X2363*
X24136*
X24182*
X24228*
X24274*
X2432*
X24366*
X24412*
X24458*
X24504*
X2455*
X24596*
X24642*
X24688*
X24734*
X24964*
Y52174*
X2501*
Y5222*
X24964*
Y52266*
X2501*
Y52312*
X24964*
Y52358*
X2501*
Y52404*
X24964*
Y5245*
X2501*
Y52496*
X24964*
Y52542*
X2501*
Y52588*
X24964*
Y52634*
X2501*
Y5268*
X24964*
Y52726*
X2501*
Y52772*
X24964*
Y52818*
X2501*
Y52864*
X24964*
Y5291*
X2501*
Y52956*
X24964*
Y53002*
X2501*
Y53048*
X24964*
Y53094*
X2501*
Y53048*
X25148*
Y53094*
X2501*
Y5314*
X24918*
Y53186*
G37*
G36*
X26068Y50151D02*
X26022D01*
Y50105*
X26068*
Y50151*
G37*
G36*
X25884Y50335D02*
X25838D01*
Y50289*
X25884*
Y50335*
G37*
G36*
X25608Y51485D02*
X25562D01*
Y51439*
X25654*
Y51485*
X25608*
G37*
G36*
X20274Y62383D02*
X20228D01*
Y62337*
X20274*
Y62383*
G37*
G36*
X24274Y62751D02*
X24228D01*
X24182*
X24136*
X2409*
X2386*
Y62705*
X23492*
Y62659*
X23355*
X23309*
X23263*
X23217*
Y62613*
X23032*
Y62567*
X22849*
Y62521*
X22665*
Y62475*
X22527*
Y62429*
X22389*
Y62383*
X22297*
Y62337*
X22159*
Y62291*
X22067*
Y62245*
X22021*
X21975*
Y62199*
X21837*
Y62153*
X21745*
Y62107*
X21653*
Y62061*
X21607*
Y62015*
X21515*
Y61969*
X21469*
X21423*
Y61923*
X21377*
X21331*
Y61877*
X21285*
Y61831*
X21193*
Y61785*
X21147*
Y61739*
X21055*
Y61693*
X21009*
Y61647*
X20917*
Y61601*
X20871*
Y61555*
X20825*
Y61509*
X20733*
Y61463*
X20687*
Y61417*
X20641*
Y61371*
X20595*
Y61326*
X20549*
Y6128*
X20503*
Y61234*
X20411*
Y61187*
X20365*
Y61142*
X20319*
Y61095*
X20274*
Y61049*
X20228*
Y61003*
X20182*
Y60957*
X20136*
Y60911*
X2009*
Y6082*
X20044*
Y60774*
X19998*
Y60728*
X19952*
Y60682*
X19906*
Y60636*
X1986*
Y6059*
X19814*
Y60406*
X1986*
X19952*
Y6036*
X19998*
Y60406*
X20044*
Y6036*
X2009*
Y60314*
X20136*
Y6036*
X20182*
Y60268*
X20274*
Y60222*
X20365*
Y60268*
X20411*
Y60176*
X20457*
Y6013*
X20503*
Y60176*
X20549*
Y6013*
X20595*
Y60084*
X20549*
Y60038*
X20595*
X20641*
Y59992*
X20595*
Y59808*
X20641*
Y59762*
X20549*
Y59716*
X20595*
Y5967*
X20503*
Y59578*
X20457*
Y59532*
X20411*
Y59578*
X20319*
Y59532*
X20228*
Y59578*
X20182*
X20136*
X2009*
Y59532*
X20044*
Y59578*
X19998*
Y59624*
X19952*
Y59578*
X19906*
Y5967*
X1986*
Y59624*
X19814*
Y59716*
X19722*
Y5967*
X19676*
Y59762*
X1963*
Y59716*
X19584*
Y59762*
X19538*
Y59808*
X19492*
X19446*
Y59854*
X194*
Y59808*
X19354*
X19308*
Y59762*
X19262*
Y5967*
X19216*
Y59578*
X1917*
Y59486*
X19124*
Y59394*
X19078*
Y59302*
X19032*
Y59164*
X18986*
Y59072*
X1894*
Y58934*
X18986*
X19032*
X19078*
X19124*
X19262*
X19308*
X19354*
X194*
X19446*
X19492*
X19538*
X19584*
X1963*
X19676*
X19722*
X19906*
X19952*
X19998*
X20044*
X2009*
X20136*
Y58888*
X20228*
X20274*
X20319*
Y58934*
X20365*
Y58888*
X20411*
X20457*
Y58842*
X20503*
Y58796*
X20457*
Y5875*
X20503*
Y58658*
X20595*
Y58336*
X20871*
Y5829*
X21285*
Y58336*
X21331*
Y58382*
X21377*
Y58428*
X21423*
Y58474*
X21469*
Y58566*
X21515*
Y58612*
X21561*
Y58704*
X21607*
Y5875*
X21653*
Y58842*
X21699*
Y58934*
X21745*
Y5898*
X21791*
Y59072*
X21837*
Y59256*
X21791*
Y59348*
X21745*
Y59394*
X21699*
Y5944*
X21653*
Y59532*
X21607*
Y59578*
X21561*
Y59624*
X21515*
Y59808*
X21561*
Y59854*
X21607*
Y599*
X21653*
Y59946*
X21745*
Y59992*
X21791*
Y60038*
X21837*
Y60084*
X21883*
Y6013*
X21929*
Y60176*
X22021*
Y60222*
X22067*
Y60268*
X22159*
Y60314*
X22205*
Y6036*
X22297*
Y60406*
X22343*
Y6036*
X22435*
Y60314*
X22481*
Y60268*
X22527*
Y60176*
X22573*
Y6013*
X22619*
Y60084*
X22665*
Y60038*
X22711*
Y59946*
X23125*
Y59992*
X23171*
X23217*
Y60038*
X23263*
X23309*
X23355*
X23401*
Y60084*
X23446*
X23492*
X23538*
Y6013*
X2363*
Y60176*
X23768*
Y60222*
X23814*
Y60268*
X2386*
Y60498*
X23906*
Y60866*
X23952*
Y60911*
X2409*
Y60957*
X24136*
X24182*
X24228*
X24274*
X2432*
Y60911*
X24918*
Y60866*
X2501*
Y60774*
X25056*
Y60452*
X2501*
Y60314*
X25056*
Y60176*
X25102*
Y6013*
X25148*
X25194*
Y60084*
X2524*
X25286*
Y60038*
X25424*
Y59992*
X25516*
Y59946*
X25608*
Y599*
X25746*
Y59854*
X25838*
Y59808*
X25884*
X2593*
X25976*
X26022*
X26068*
X26159*
Y59854*
X26205*
Y599*
X26251*
Y59946*
X26297*
Y60038*
X26344*
Y60084*
X2639*
Y6013*
X26436*
Y60176*
X26528*
Y60222*
X26619*
Y60176*
X26711*
Y6013*
X26757*
Y60084*
X26803*
Y60038*
X26849*
Y59992*
X26895*
Y59946*
X26941*
Y599*
X26987*
Y59854*
X27033*
Y59808*
X27125*
Y59762*
X27171*
Y59716*
X27217*
Y5967*
X27263*
Y59578*
X27309*
Y59532*
X27355*
Y5944*
X27309*
Y59394*
X27263*
Y59302*
X27217*
Y59256*
X27171*
Y5921*
X27125*
Y59164*
X27079*
Y59118*
X27033*
Y59072*
X26987*
Y58796*
X27033*
Y58704*
X27079*
Y58612*
X27125*
Y5852*
X27171*
Y58428*
X27217*
Y58336*
X27263*
Y58244*
X27309*
Y58199*
X27355*
Y58107*
X27401*
Y58061*
X27447*
Y58015*
X27539*
Y57969*
X27585*
Y58015*
X27723*
X27769*
X27815*
X27861*
X27907*
X27953*
X28137*
Y57969*
X28183*
Y57693*
X28229*
Y57463*
X28275*
Y56957*
X28229*
Y56911*
X28045*
Y56865*
X27723*
Y56819*
X27631*
Y56773*
X27585*
Y56681*
X27539*
Y56497*
X27493*
Y56267*
X27447*
Y56083*
X27401*
Y55669*
X27447*
X27493*
Y55623*
X27539*
Y55577*
X27631*
Y55531*
X27677*
Y55485*
X27769*
Y55439*
X27815*
Y55393*
X27861*
X27907*
Y55255*
X27861*
Y55117*
X27815*
Y55072*
X27769*
Y5498*
X27723*
Y54934*
X27677*
Y54842*
X27631*
Y5475*
X27585*
Y54704*
X27539*
Y54612*
X27493*
Y54566*
X27447*
Y54474*
X27401*
Y54428*
X27217*
Y54474*
X27125*
Y5452*
X27079*
Y54566*
X27033*
X26987*
Y54612*
X26895*
Y54658*
X26849*
Y54704*
X26665*
Y54658*
X26573*
Y54612*
X26528*
Y54566*
X26482*
Y5452*
X2639*
Y54474*
X26344*
Y54428*
X26297*
Y54382*
X26205*
Y54336*
X26159*
Y5429*
X26113*
Y54244*
X26022*
Y54198*
X25976*
Y54152*
X2593*
Y54106*
X25884*
Y53876*
X2593*
Y53692*
X25976*
Y53554*
X26022*
Y53416*
X25976*
Y5337*
X2593*
Y53324*
X25838*
Y53278*
X257*
Y53232*
X2547*
Y53186*
X25562*
Y52082*
X26068*
Y52128*
X26205*
Y52036*
X26251*
Y52082*
X26297*
Y51991*
X26344*
X2639*
Y51899*
X26436*
Y51853*
X2639*
Y51715*
X26528*
Y51761*
X26619*
Y51807*
X26711*
Y51853*
X26849*
Y51899*
X26941*
Y51945*
X27033*
Y51991*
X27079*
Y52036*
X27125*
X27171*
Y52082*
X27263*
Y52128*
X27355*
Y52174*
X27401*
Y5222*
X27493*
Y52266*
X27539*
Y52312*
X27585*
X27631*
Y52358*
X27677*
Y52404*
X27723*
X27769*
Y5245*
X27815*
Y52496*
X27861*
Y52542*
X27953*
Y52588*
X27999*
Y52634*
X28045*
Y5268*
X28091*
Y52726*
X28137*
Y52772*
X28183*
Y52818*
X28275*
Y52864*
X28321*
Y5291*
X28367*
Y52956*
X28413*
Y53002*
X28459*
Y53048*
X28505*
Y53094*
X28551*
Y5314*
X28597*
Y53232*
X28643*
Y53278*
X28689*
Y53324*
X28735*
Y5337*
X28781*
Y53416*
X28827*
Y53462*
X28873*
Y53554*
X28919*
Y536*
X28965*
Y53646*
X29011*
Y53738*
X29057*
Y53784*
X29103*
Y53876*
X29149*
Y53922*
X29195*
Y54014*
X2924*
Y5406*
X29286*
Y54152*
X29332*
Y54244*
X29378*
Y5429*
X29424*
Y54382*
X2947*
Y54474*
X29516*
Y54566*
X29563*
Y54658*
X29608*
Y5475*
X29655*
Y54888*
X297*
Y5498*
X29746*
Y55117*
X29792*
Y55255*
X29838*
Y55393*
X29884*
Y55531*
X2993*
Y55715*
X29976*
Y55945*
X30022*
Y56175*
X30068*
Y56543*
X30114*
Y57509*
X30068*
Y57877*
X30022*
Y58107*
X29976*
Y58336*
X2993*
Y5852*
X29884*
Y58658*
X29838*
Y58796*
X29792*
Y58934*
X29746*
Y59072*
X297*
Y59164*
X29655*
Y59302*
X29608*
Y59394*
X29563*
Y59486*
X29516*
Y59578*
X2947*
Y5967*
X29424*
Y59762*
X29378*
Y59808*
X29332*
Y599*
X29286*
Y59992*
X2924*
Y60038*
X29195*
Y6013*
X29149*
Y60176*
X29103*
Y60268*
X29057*
Y60314*
X29011*
Y60406*
X28965*
Y60452*
X28919*
Y60498*
X28873*
Y6059*
X28827*
Y60636*
X28781*
Y60682*
X28735*
Y60728*
X28689*
Y60774*
X28643*
Y6082*
X28597*
Y60911*
X28551*
Y60957*
X28505*
Y61003*
X28459*
Y61049*
X28413*
Y61095*
X28367*
Y61142*
X28321*
Y61187*
X28275*
Y61234*
X28183*
Y6128*
X28137*
Y61326*
X28091*
Y61371*
X28045*
Y61417*
X27999*
Y61463*
X27953*
Y61509*
X27861*
Y61555*
X27815*
Y61601*
X27769*
Y61647*
X27677*
Y61693*
X27631*
Y61739*
X27539*
Y61785*
X27493*
Y61831*
X27401*
Y61877*
X27355*
Y61923*
X27263*
Y61969*
X27171*
Y62015*
X27079*
Y62061*
X27033*
Y62107*
X26987*
X26941*
Y62153*
X26849*
Y62199*
X26711*
Y62245*
X26665*
X26619*
Y62291*
X26528*
Y62337*
X26482*
X26436*
X2639*
Y62383*
X26297*
Y62429*
X26159*
Y62475*
X26022*
Y62521*
X25976*
X2593*
X25884*
X25838*
Y62567*
X257*
X25654*
Y62613*
X2547*
Y62659*
X25194*
Y62705*
X25148*
X25102*
X25056*
X2501*
X24826*
Y62751*
X2432*
X24274*
G37*
G36*
X17974Y63579D02*
X17928D01*
Y63533*
X17974*
Y63579*
G37*
G36*
X2455Y59486D02*
X24504D01*
X23998*
Y5944*
X23722*
Y59394*
X2363*
X23584*
X23538*
Y59348*
X23446*
Y59302*
X23309*
Y59256*
X23263*
X23217*
Y5921*
X23125*
Y59164*
X23032*
Y59118*
X22986*
Y59072*
X22895*
Y59026*
X22849*
Y5898*
X22757*
Y58934*
X22711*
Y58888*
X22665*
Y58842*
X22619*
Y58796*
X22573*
Y5875*
X22527*
Y58704*
X22481*
Y58658*
X22435*
Y58612*
X22389*
Y58566*
X22343*
Y5852*
X22297*
Y58428*
X22251*
Y58382*
X22205*
Y58336*
X22159*
Y58199*
X22113*
Y58153*
X22067*
Y58061*
X22021*
Y57969*
X21975*
Y5783*
X21929*
Y57693*
X21883*
Y57509*
X21837*
Y57279*
X21791*
Y56589*
X21837*
Y56451*
X21883*
Y56221*
X21929*
Y56083*
X21975*
Y55991*
X22021*
Y55899*
X22067*
Y55761*
X22113*
Y55715*
X22159*
Y55623*
X22205*
Y55577*
X22251*
Y55485*
X22297*
Y55393*
X22343*
Y55347*
X22389*
Y55301*
X22435*
Y55255*
X22481*
Y55209*
X22527*
Y55255*
X22573*
Y55301*
X22619*
Y55393*
X22665*
Y55439*
X22711*
Y55531*
X22757*
Y55623*
X22803*
Y55669*
X22849*
Y55761*
X22895*
Y55899*
X22849*
Y55991*
X22803*
Y56037*
X22757*
Y56129*
X22711*
Y56221*
X22665*
Y56313*
X22619*
Y56451*
X22573*
Y56635*
X22527*
Y57279*
X22573*
Y57463*
X22619*
Y57601*
X22665*
Y57739*
X22711*
Y57784*
X22757*
Y57923*
X22803*
Y57969*
X22849*
Y58015*
X22895*
Y58107*
X22941*
Y58153*
X22986*
Y58199*
X23032*
Y58244*
X23079*
Y5829*
X23125*
Y58336*
X23171*
Y58382*
X23263*
Y58428*
X23309*
Y58474*
X23355*
X23401*
Y5852*
X23446*
Y58566*
X23538*
Y58612*
X2363*
X23676*
Y58658*
X23722*
X23768*
Y58704*
X23814*
X23998*
Y5875*
X24642*
Y58704*
X24688*
X24734*
X2478*
Y58796*
X24826*
Y58842*
X24872*
Y58934*
X24918*
Y59026*
X24964*
Y59072*
X2501*
Y59164*
X25056*
Y5921*
X25102*
Y59302*
X25148*
Y59348*
X25102*
Y59394*
X24918*
Y5944*
X24596*
Y59486*
X2455*
G37*
G36*
X16963Y61647D02*
X16917D01*
Y61601*
X16963*
Y61647*
G37*
G36*
X19124Y61877D02*
X19032D01*
Y61831*
X18894*
Y61785*
X18802*
Y61739*
X18664*
Y61693*
X18618*
X18572*
X18526*
Y61647*
X18434*
Y61601*
X18388*
X18342*
X18296*
X1825*
Y61555*
X18204*
X18158*
X18112*
Y61509*
X18066*
X1802*
Y61463*
X17974*
X17882*
Y61417*
X17744*
Y61371*
X17652*
Y61326*
X17514*
Y6128*
X17606*
Y61234*
X17698*
Y61187*
X17836*
Y61142*
X17882*
X17928*
X17974*
Y61095*
X18066*
Y61049*
X18204*
Y61003*
X1825*
X18296*
X18342*
Y60957*
X18434*
Y60911*
X1848*
X18526*
X18572*
Y60866*
X18618*
X1871*
Y6082*
X18848*
Y60774*
X18986*
Y60728*
X19032*
Y60682*
X19078*
Y60728*
X19124*
Y61877*
G37*
G36*
X19262Y63579D02*
X19216D01*
Y63533*
X19262*
Y63579*
G37*
G36*
X19722Y65878D02*
X19676D01*
Y65832*
X19722*
Y65878*
G37*
G36*
X20365Y6597D02*
X20319D01*
Y65924*
X20365*
Y6597*
G37*
G36*
X20274Y66062D02*
X20228D01*
Y66016*
X20274*
Y66062*
G37*
G36*
X17606Y64314D02*
X17561D01*
Y64268*
X17606*
Y64314*
G37*
G36*
X1733Y64774D02*
X17284D01*
Y64728*
X1733*
Y64774*
G37*
G36*
Y65326D02*
X17284D01*
Y6528*
X1733*
Y65326*
G37*
G36*
X16825Y57647D02*
X16779D01*
Y57601*
X16641*
Y57555*
X16549*
Y57509*
X16457*
Y57463*
X16319*
Y57417*
X16227*
Y57371*
X16135*
Y57325*
X16089*
Y57279*
X15997*
Y57233*
X15905*
Y57187*
X15859*
X15813*
Y57141*
X15767*
Y57095*
X15721*
X15675*
Y57049*
X15629*
Y57003*
X15537*
Y56957*
X15491*
Y56911*
X15445*
X15399*
Y56865*
X15353*
Y56819*
X15307*
Y56773*
X15261*
X15215*
Y56727*
X15169*
Y56681*
X15123*
Y56635*
X15077*
Y56589*
X15031*
Y56543*
X14985*
Y56497*
X14939*
X14893*
Y56451*
X14847*
Y56405*
X14801*
Y56359*
X14755*
Y56313*
X14709*
Y56267*
X14663*
Y56221*
X14617*
Y56175*
X14571*
Y56083*
X14526*
Y56037*
X1448*
Y55991*
X14434*
Y55945*
X14388*
Y55899*
X14341*
Y55853*
X14295*
Y55761*
X1425*
Y55715*
X14203*
Y55669*
X14157*
Y55577*
X14111*
Y55531*
X14066*
Y55439*
X1402*
Y55393*
X13974*
Y55301*
X13928*
Y55255*
X13882*
Y55163*
X13836*
Y55072*
X1379*
Y55026*
X13744*
Y54934*
X13698*
Y54842*
X13652*
Y5475*
X13606*
Y54658*
X1356*
Y54566*
X13514*
Y54428*
X13468*
Y54336*
X13422*
Y54198*
X13376*
Y5406*
X1333*
Y53922*
X13284*
Y53784*
X13238*
Y536*
X13192*
Y5337*
X13146*
Y5314*
X131*
Y52772*
X13054*
Y51807*
X131*
Y51439*
X13146*
Y51209*
X13192*
Y50979*
X13238*
Y50795*
X13284*
Y50657*
X1333*
Y50519*
X13376*
Y50381*
X13422*
Y50243*
X13468*
Y50151*
X13514*
Y50013*
X1356*
Y49921*
X13606*
Y49829*
X13652*
Y49737*
X13698*
Y49645*
X13744*
Y49553*
X1379*
Y49507*
X13836*
Y49415*
X13882*
Y49324*
X13928*
Y49278*
X13974*
Y49186*
X1402*
Y4914*
X14066*
Y49047*
X14111*
Y49001*
X14157*
Y48909*
X14203*
Y48864*
X1425*
Y48818*
X14295*
Y48726*
X14341*
Y4868*
X14388*
Y48634*
X14434*
Y48588*
X1448*
Y48542*
X14526*
Y48496*
X14571*
Y48404*
X14617*
Y48358*
X14663*
Y48312*
X14709*
Y48266*
X14755*
Y4822*
X14801*
Y48174*
X14847*
Y48128*
X14893*
Y48082*
X14985*
Y48036*
X15031*
Y4799*
X15077*
Y47944*
X15123*
Y47898*
X15169*
Y47852*
X15215*
Y47806*
X15307*
Y4776*
X15353*
Y47714*
X15399*
Y47668*
X15491*
Y47622*
X15537*
Y47576*
X15583*
X15629*
Y4753*
X15675*
Y47484*
X15767*
Y47438*
X15813*
Y47392*
X15859*
X15905*
Y47346*
X15951*
X15997*
Y473*
X16089*
Y47254*
X16135*
Y47208*
X16227*
Y47162*
X16273*
X16319*
Y47116*
X16457*
Y4707*
X16503*
X16549*
Y47024*
X16595*
X16641*
Y46978*
X16779*
Y46932*
X16871*
Y46886*
X17009*
Y4684*
X17055*
X17101*
X17147*
Y46794*
X17193*
X17238*
X17284*
X1733*
Y46748*
X17514*
Y46702*
X17698*
Y46656*
X17974*
Y4661*
X1802*
X18066*
X18112*
X18158*
X18342*
Y46564*
X1871*
X18756*
X18802*
X18848*
X18894*
X1894*
X18986*
X19032*
X19078*
X19308*
Y4661*
X19676*
Y46656*
X19952*
Y46702*
X19998*
X20044*
X20136*
Y46748*
X20319*
Y46794*
X20503*
Y4684*
X20641*
Y46886*
X20779*
Y46932*
X20871*
Y46978*
X20917*
X20963*
X21009*
Y47024*
X21055*
X21101*
Y4707*
X21193*
Y47116*
X21331*
Y47162*
X21377*
X21423*
Y47208*
X21515*
Y47254*
X21561*
Y473*
X21653*
Y47346*
X21699*
X21745*
Y47392*
X21837*
Y47438*
X21883*
Y47484*
X21975*
Y4753*
X22021*
Y47576*
X22067*
X22113*
Y47622*
X22159*
Y47668*
X22251*
Y47714*
X22297*
Y4776*
X22343*
Y47806*
X22435*
Y47852*
X22481*
Y47898*
X22527*
Y47944*
X22573*
Y4799*
X22619*
Y48036*
X22665*
Y48082*
X22757*
Y48128*
X22803*
Y48174*
X22849*
Y4822*
X22895*
Y48266*
X22941*
Y48358*
X22895*
Y48404*
X22849*
Y4845*
X22757*
Y48588*
X22711*
X22665*
Y48634*
X22711*
Y4868*
X22619*
Y48726*
X22665*
Y48818*
X22573*
Y48864*
X22619*
Y49093*
X22573*
Y49047*
X22527*
Y49415*
X22573*
X22619*
Y49599*
X22573*
Y49645*
X22619*
Y49691*
X22665*
Y49829*
X22711*
Y49875*
X22665*
Y49921*
X22757*
Y49967*
X22803*
Y50059*
X22849*
Y50105*
X22895*
Y50151*
X22941*
Y50197*
X22895*
Y50243*
X23032*
Y50289*
X23079*
Y50381*
X23125*
Y50335*
X23171*
Y50427*
X23217*
Y50381*
X23309*
Y50473*
X23355*
Y50427*
X23492*
Y50473*
X23538*
Y50381*
X2363*
Y50335*
X23676*
X23722*
Y50289*
X23676*
Y50243*
X23768*
Y50105*
X23722*
Y50059*
X23676*
Y50013*
X23722*
Y49967*
X23676*
Y49921*
X2363*
Y49967*
X23584*
Y49875*
X23538*
Y49921*
X23492*
Y49829*
X23446*
Y49875*
X23401*
Y49829*
X23355*
X23309*
Y49737*
X23171*
Y49691*
X23125*
Y49645*
X23171*
Y49599*
X23125*
X23079*
Y49553*
X23125*
Y49507*
X23032*
Y4914*
X23079*
Y49001*
X23125*
Y48955*
X23171*
Y48909*
X23217*
Y48864*
X23263*
Y48909*
X23309*
Y48818*
X23401*
Y48864*
X23446*
Y48909*
X23492*
Y49001*
X23538*
Y49047*
X23584*
Y4914*
X2363*
Y49186*
X23676*
Y49278*
X23722*
Y49324*
X23768*
Y49415*
X23814*
Y49507*
X2386*
Y49553*
X23906*
Y49645*
X23952*
Y49737*
X23998*
Y49829*
X24044*
Y49921*
X2409*
Y50013*
X24136*
Y50151*
X24182*
Y50243*
X24228*
Y50381*
X24274*
Y50519*
X2432*
Y50657*
X24366*
Y50795*
X24412*
Y50979*
X24458*
Y51301*
X24872*
Y51347*
X2501*
Y51393*
X24964*
Y51439*
X24918*
X24872*
X24826*
X2478*
X24734*
X2432*
X24274*
X24228*
X24182*
X24136*
X2409*
X24044*
X23998*
X23952*
X23906*
X2386*
X23355*
X23309*
X23263*
X23217*
X23171*
X23125*
X23079*
X23032*
X22986*
X22941*
X22895*
X22803*
Y51531*
X22757*
Y51485*
X22711*
Y51577*
X22665*
Y51899*
X22619*
Y51577*
X22665*
Y51531*
X22619*
Y51347*
X22573*
Y51255*
X22527*
X22481*
Y51209*
X22343*
Y51255*
X22021*
Y51301*
X21929*
Y51255*
X21883*
X21837*
Y51163*
X21791*
Y51117*
X21745*
Y51025*
X21699*
Y50933*
X21653*
Y50841*
X21607*
Y50749*
X21561*
Y50703*
X21515*
Y50565*
X21469*
Y50519*
X21423*
Y50427*
X21377*
Y50243*
X21423*
Y50151*
X21469*
Y50105*
X21515*
Y50059*
X21561*
Y50013*
X21607*
Y49967*
X21653*
Y49921*
X21699*
Y49875*
X21745*
Y49691*
X21699*
Y49645*
X21653*
Y49553*
X21561*
Y49507*
X21515*
Y49461*
X21469*
Y49415*
X21423*
Y49369*
X21377*
Y49324*
X21331*
Y49278*
X21285*
Y49232*
X21239*
Y49186*
X21147*
Y4914*
X21101*
Y49093*
X21055*
Y49047*
X20917*
Y49093*
X20871*
Y4914*
X20825*
Y49186*
X20779*
Y49232*
X20733*
Y49278*
X20687*
Y49324*
X20641*
Y49369*
X20595*
Y49415*
X20549*
Y49461*
X20503*
X20319*
Y49415*
X20182*
X20136*
Y49369*
X2009*
Y49324*
X19998*
X19952*
Y49278*
X19814*
Y49232*
X19768*
X19722*
Y49186*
X1963*
Y4914*
X19584*
X19538*
Y49093*
X19492*
Y49047*
X19446*
Y4845*
X194*
Y48358*
X1894*
Y48312*
X18848*
X18802*
X18756*
X1871*
X18664*
X18618*
X18572*
X18526*
X1848*
X18434*
Y48358*
X18342*
Y48634*
X18296*
Y48955*
X1825*
Y49047*
X18158*
Y49093*
X18066*
Y4914*
X17974*
X17928*
Y49186*
X17882*
X17836*
X1779*
X17744*
Y49232*
X17698*
X17652*
X17606*
Y49278*
X17468*
Y49324*
X17284*
X17238*
X17193*
X17147*
Y49278*
X17101*
Y49232*
X17055*
Y4914*
X17009*
Y49093*
X16963*
Y49047*
X16917*
Y49001*
X16871*
Y48909*
X16779*
Y48864*
X16733*
X16687*
Y48909*
X16641*
X16595*
Y48955*
X16549*
Y49001*
X16503*
X16457*
Y49047*
X16411*
Y49093*
X16365*
Y4914*
X16319*
Y49186*
X16273*
X16227*
Y49232*
X16181*
Y49278*
X16135*
Y49324*
X16089*
Y49369*
X16043*
X15997*
Y49415*
X15951*
Y49507*
X15905*
Y49599*
X15951*
Y49645*
X15997*
Y49737*
X16043*
Y49783*
X16089*
Y49829*
X16135*
Y49921*
X16181*
Y49967*
X16227*
Y50197*
X16181*
Y50289*
X16135*
Y50381*
X16089*
Y50473*
X16043*
Y50519*
X15997*
Y50611*
X15951*
Y50657*
X15905*
Y50749*
X15859*
Y50841*
X15813*
Y50887*
X15767*
Y50933*
X15721*
Y50979*
X15629*
Y51025*
X15583*
Y50979*
X15261*
Y50933*
X15123*
Y50887*
X15077*
Y50933*
X15031*
X14985*
Y51071*
X14939*
Y51163*
X14893*
Y51393*
X14847*
Y51577*
X14801*
Y51807*
X14755*
Y51945*
X14801*
Y51991*
X14847*
Y52036*
X15031*
Y52082*
X15077*
X15123*
X15169*
X15215*
Y52128*
X15261*
X15307*
X15353*
Y52174*
X15399*
Y5222*
X15445*
Y52404*
X15491*
Y52588*
X15537*
Y53002*
X15583*
Y53232*
X15537*
Y53324*
X15491*
X15445*
Y5337*
X15399*
Y53416*
X15307*
Y53462*
X15215*
Y53508*
X15123*
Y53554*
X15031*
Y53784*
X15077*
Y53876*
X15123*
Y53968*
X15169*
Y5406*
X15215*
Y54152*
X15261*
Y54244*
X15307*
Y54336*
X15353*
Y54428*
X15399*
Y54474*
X15445*
Y54566*
X15675*
Y5452*
X15721*
Y54474*
X15767*
X15813*
Y54428*
X15859*
X15905*
X15951*
Y54382*
X16043*
Y54336*
X16181*
Y54382*
X16227*
Y54428*
X16273*
X16319*
Y54474*
X16365*
Y5452*
X16411*
Y54566*
X16457*
Y54612*
X16503*
Y54658*
X16549*
Y54704*
X16595*
Y5475*
X16641*
Y54796*
X16687*
Y54842*
X16779*
Y54934*
X16825*
Y5498*
X16871*
Y55026*
X16917*
Y55209*
X16871*
Y55393*
X16825*
Y55439*
X16779*
Y55623*
X16733*
Y55669*
X16779*
Y55761*
X16825*
Y55807*
X16871*
X16917*
Y55853*
X17009*
Y55899*
X17055*
X17101*
X17147*
Y55945*
X17193*
X17238*
X17284*
Y55991*
X1733*
X17376*
Y56129*
X1733*
Y56175*
X17284*
Y56221*
X17238*
Y56267*
X17193*
Y56313*
X17147*
Y56359*
X17101*
Y56405*
X17055*
X17009*
Y56451*
X17055*
Y56497*
X17009*
Y56543*
X16963*
Y56681*
X16917*
X16871*
Y56727*
X16917*
Y56773*
X16871*
Y56819*
X16825*
Y56865*
X16871*
Y57003*
X16825*
Y57095*
X16779*
Y57187*
X16825*
Y57647*
G37*
G36*
X20411Y57325D02*
X20365D01*
Y57279*
X20411*
Y57233*
X20457*
X20503*
Y57187*
X20549*
Y57233*
X20503*
Y57279*
X20411*
Y57325*
G37*
G36*
Y57601D02*
X20365D01*
Y57417*
X20411*
Y57601*
G37*
G36*
X19676Y56175D02*
X1963D01*
X19584*
X19538*
Y56129*
X19584*
X1963*
X19676*
Y56175*
G37*
G36*
X20779Y57187D02*
X20595D01*
Y57095*
X20549*
Y57049*
X20503*
Y56957*
X20549*
Y56911*
X20503*
Y56865*
X20457*
Y56773*
X20503*
Y56727*
X20457*
Y56681*
X20411*
Y56635*
X20457*
Y56589*
X20365*
Y56543*
X20319*
Y56451*
X20274*
Y56405*
X20319*
Y56359*
X20274*
Y56313*
X20228*
X20182*
Y56267*
X20136*
Y56221*
X2009*
Y56175*
X20044*
Y56083*
X1986*
Y56037*
X2009*
Y55991*
X20228*
Y55945*
X20319*
Y55899*
X20411*
Y55623*
X20365*
Y55485*
X20319*
Y55117*
X20411*
Y55072*
X20457*
Y55026*
X20503*
Y5498*
X20549*
Y54934*
X20595*
X20641*
Y54888*
X20687*
Y54842*
X20733*
Y54796*
X20779*
X20825*
Y5475*
X20871*
Y54704*
X20917*
Y54658*
X21009*
Y54612*
X21055*
Y54566*
X21285*
Y54612*
X21331*
Y54658*
X21423*
Y54704*
X21515*
Y5475*
X21561*
Y54796*
X21607*
X21653*
Y54842*
X21699*
X21745*
X21791*
Y54796*
X21837*
Y5475*
X21883*
Y54658*
X21929*
Y54612*
X21975*
Y5452*
X22021*
Y54474*
X22067*
Y54382*
X22113*
Y54336*
X22159*
Y54244*
X22205*
Y54152*
X22251*
Y54106*
X22297*
Y53876*
X22251*
Y5383*
X22159*
Y53784*
X22113*
Y53738*
X22067*
Y53692*
X21975*
Y53646*
X21883*
Y536*
X21837*
Y53554*
X21791*
Y53324*
X21837*
Y5314*
X21883*
Y5291*
X21929*
Y5268*
X21975*
Y52542*
X22021*
Y5245*
X22067*
X22113*
X22159*
Y52404*
X22435*
Y52358*
X22619*
Y52312*
X22665*
Y52266*
X22711*
Y52128*
X22757*
Y52174*
X22803*
Y5222*
X22849*
Y52312*
X22986*
Y52358*
X23032*
Y5245*
X23079*
Y52404*
X23125*
Y5245*
X23171*
Y52496*
X23217*
Y52588*
X23263*
Y52542*
X23309*
Y52588*
X23355*
Y52634*
X23401*
Y52726*
X23538*
Y52772*
X23584*
Y52864*
X23722*
Y5291*
X23768*
Y53002*
X23814*
Y52956*
X2386*
Y53002*
X23906*
Y53048*
X23952*
Y5314*
X2409*
Y53232*
X24136*
Y53186*
X24182*
Y53232*
X24136*
Y53278*
X24182*
Y53232*
X24228*
Y53278*
X24274*
Y5337*
X2432*
Y53416*
X24366*
Y5337*
X24412*
Y53416*
X24458*
Y53508*
X24504*
Y53554*
X2455*
Y53508*
X24596*
Y53554*
X24642*
Y53646*
X24688*
Y53692*
X24642*
X24596*
X2455*
Y53738*
X2363*
Y53692*
X23584*
Y53646*
X23538*
Y53508*
X23492*
Y53416*
X23446*
Y53324*
X23401*
Y53232*
X23355*
Y53186*
X23309*
Y5314*
X23171*
Y53186*
X23032*
Y53232*
X22941*
Y53278*
X22803*
Y53324*
X22757*
X22711*
Y5337*
X22619*
Y53416*
X22481*
Y53462*
X22389*
Y53508*
X22343*
Y53738*
X22389*
Y53876*
X22435*
Y53968*
X22481*
Y5429*
X22435*
Y54336*
X22389*
Y54382*
X22343*
Y54428*
X22297*
Y54474*
X22251*
Y5452*
X22159*
Y54566*
X22113*
Y54612*
X22067*
Y54658*
X22021*
Y54704*
X21975*
Y5475*
X21929*
Y54796*
X21883*
Y54842*
X21837*
Y54888*
X21791*
X21745*
X21699*
X21653*
X21607*
X21515*
Y54842*
X21469*
X21423*
Y54796*
X21331*
Y5475*
X21239*
Y54704*
X21055*
Y5475*
X21009*
Y54796*
X20963*
Y54842*
X20917*
Y5498*
X20871*
Y55072*
X20825*
Y55117*
X20779*
Y55209*
X20733*
Y55301*
X20687*
Y55393*
X20641*
Y55531*
X20595*
Y55669*
X20641*
Y55715*
X20687*
X20733*
Y55761*
X20825*
Y55807*
X20871*
X20917*
Y55853*
X20963*
Y55899*
X21055*
Y55945*
X21101*
Y55991*
X21147*
Y56497*
X21101*
Y56727*
X21055*
Y57003*
X21009*
Y57095*
X20963*
Y57141*
X20779*
Y57187*
G37*
G36*
X23446Y57279D02*
X23355D01*
Y57095*
X23309*
Y56819*
X23355*
Y56635*
X23401*
Y56497*
X23446*
Y56451*
X23492*
Y56359*
X23538*
Y56313*
X23584*
Y56267*
X2363*
Y56221*
X23676*
Y56175*
X23722*
Y56129*
X23768*
Y56083*
X23814*
X2386*
X23906*
Y56037*
X23998*
Y55991*
X24182*
Y55945*
X24504*
Y55991*
X2455*
X24642*
Y56037*
X2478*
Y56083*
X24826*
Y56129*
X24872*
X24918*
Y56175*
X24964*
Y56221*
X2501*
Y56267*
X24964*
Y56313*
X24918*
X24872*
Y56359*
X2478*
Y56405*
X24734*
Y56359*
X24688*
Y56313*
X24596*
Y56267*
X24412*
Y56221*
X24366*
X2432*
X24274*
X24228*
Y56267*
X24182*
X24136*
X2409*
X24044*
Y56313*
X23998*
X23952*
Y56359*
X23906*
Y56405*
X23814*
Y56497*
X23768*
Y56543*
X23722*
Y56589*
X23676*
Y56681*
X2363*
Y56819*
X23584*
Y57187*
X23492*
Y57233*
X23446*
Y57279*
G37*
G36*
X20457Y5783D02*
X20411D01*
Y57647*
X20457*
Y5783*
G37*
G36*
X20549Y58199D02*
X20503D01*
Y58061*
X20549*
Y58199*
G37*
G36*
X18572D02*
X18526D01*
X1848*
X18434*
X17422*
Y58153*
X17376*
Y57923*
X17422*
Y57969*
X17468*
X17514*
X17561*
X17606*
Y58015*
X17882*
Y58061*
X1825*
Y58107*
X18572*
Y58199*
G37*
G36*
X26159Y58704D02*
X26068D01*
Y58612*
X26022*
Y5852*
X25976*
Y58474*
X2593*
Y58382*
X25884*
Y58336*
X25838*
Y58244*
X25792*
Y58199*
X25746*
Y58015*
X25792*
Y57969*
X25838*
Y57877*
X25884*
Y5783*
X2593*
Y57693*
X25976*
Y57601*
X26022*
Y57509*
X26068*
Y57233*
X26113*
Y56773*
X26068*
Y56451*
X26022*
Y56313*
X25976*
Y56221*
X2593*
Y56129*
X25884*
Y56037*
X25838*
Y55945*
X25792*
Y55899*
X25746*
Y55853*
X257*
Y55807*
X25654*
Y55715*
X25608*
Y55669*
X25562*
X25516*
Y55577*
X25424*
Y55531*
X25378*
Y55485*
X25286*
Y55439*
X2524*
Y55393*
X25194*
X25148*
Y55347*
X25102*
X25056*
Y55301*
X2501*
X24964*
X24918*
Y55255*
X24872*
X24826*
X2478*
Y55209*
X24596*
Y55163*
X24044*
Y55209*
X23998*
X23952*
X23906*
X2386*
Y55117*
X23814*
Y55072*
X23768*
Y5498*
X23722*
Y54934*
X23676*
Y54842*
X2363*
Y5475*
X23584*
Y54704*
X23538*
Y54612*
X23492*
Y54566*
X2363*
Y5452*
X23768*
Y54474*
X23814*
X2386*
X23906*
X23952*
X23998*
X24044*
X2409*
X24136*
Y54428*
X24182*
X24228*
X24274*
X2432*
X24504*
Y54474*
X2478*
X24826*
X24872*
Y5452*
X2501*
Y54566*
X25148*
Y54612*
X25286*
Y54658*
X25378*
Y54704*
X25516*
Y5475*
X25562*
Y54796*
X25654*
Y54842*
X257*
Y54888*
X25792*
Y54934*
X25838*
Y5498*
X2593*
Y55026*
X25976*
Y55072*
X26022*
Y55117*
X26068*
Y55163*
X26113*
Y55209*
X26159*
Y55255*
X26205*
Y55301*
X26251*
Y55393*
X26297*
Y55439*
X26344*
Y55485*
X2639*
Y55531*
X26436*
Y55623*
X26482*
Y55715*
X26528*
Y55761*
X26573*
Y55899*
X26619*
Y55991*
X26665*
Y56083*
X26711*
Y56221*
X26757*
Y56405*
X26803*
Y56681*
X26849*
Y57279*
X26803*
Y57509*
X26757*
Y57739*
X26711*
Y5783*
X26665*
Y57923*
X26619*
Y58061*
X26573*
Y58153*
X26528*
Y58199*
X26482*
Y5829*
X26436*
Y58382*
X2639*
Y58428*
X26344*
Y5852*
X26297*
Y58566*
X26251*
Y58612*
X26205*
Y58658*
X26159*
Y58704*
G37*
G36*
X20503Y58015D02*
X20457D01*
Y57877*
X20503*
Y58015*
G37*
G36*
X2455Y57969D02*
X2409D01*
Y57923*
X24044*
X23998*
X23952*
Y57877*
X2386*
Y5783*
X23768*
Y57784*
X23722*
Y57739*
X23676*
Y57693*
X2363*
Y57647*
X23722*
Y57601*
X23768*
Y57555*
X23814*
X23952*
Y57601*
X23998*
Y57647*
X24136*
Y57693*
X24504*
Y57647*
X24642*
Y57601*
X24688*
Y57555*
X24734*
X2478*
Y57509*
X24826*
Y57463*
X24872*
Y57417*
X24918*
Y57325*
X24964*
Y57233*
X2501*
Y57095*
X25056*
Y56773*
X25102*
Y56727*
X25194*
Y56681*
X2524*
Y56635*
X25286*
Y56773*
X25332*
Y57141*
X25286*
Y57325*
X2524*
Y57417*
X25194*
Y57509*
X25148*
Y57555*
X25102*
Y57601*
X25056*
Y57693*
X2501*
Y57739*
X24918*
Y57784*
X24872*
Y5783*
X2478*
Y57877*
X24734*
X24688*
Y57923*
X2455*
Y57969*
G37*
G36*
X19952Y58199D02*
X1871D01*
Y58015*
X1848*
X18434*
X18388*
X18342*
Y57969*
X17974*
Y57923*
X17744*
X17698*
Y57877*
X17514*
Y5783*
X17376*
Y57325*
X17422*
Y57141*
X17468*
Y57003*
X17514*
Y56911*
X17561*
Y56865*
X17606*
Y56773*
X17652*
Y56727*
X17744*
Y56681*
X1779*
Y56635*
X17882*
Y56589*
X17928*
X17974*
X1802*
Y56543*
X18158*
Y56497*
X1917*
Y56543*
X19308*
Y56589*
X19446*
Y56635*
X19538*
Y56681*
X1963*
Y56727*
X19676*
Y56773*
X19722*
Y56819*
X19768*
Y56865*
X19814*
Y56911*
X1986*
Y56957*
X19906*
Y57095*
X19952*
Y58199*
G37*
%LNramps_tmc-3*%
%LPD*%
G54D34*
X-03441Y2319D02*
X-00862D01*
X-03441Y32207D02*
X-00862D01*
X-03562Y50698D02*
X-00761D01*
X-03562Y6289D02*
X-00761D01*
X-03441Y2319D02*
Y32207D01*
X-03562Y50698D02*
Y6289D01*
X-00761Y19049D02*
X98297D01*
X97027Y72389D02*
X98297Y71119D01*
Y59689D02*
Y71119D01*
Y59689D02*
X100837Y57149D01*
Y22859D02*
Y57149D01*
X-00761Y72389D02*
X97027D01*
X98297Y20319D02*
X100837Y22859D01*
X98297Y19049D02*
Y20319D01*
X-00761Y19049D02*
Y50698D01*
Y6289*
Y72389*
G54D96*
X16128Y29844D02*
Y28829D01*
X16636*
X16806Y28998*
Y29337*
X16636Y29506*
X16128*
X16467D02*
X16806Y29844D01*
X17144D02*
X17483D01*
X17313*
Y28829*
X17144Y28998*
X17991Y29675D02*
X1816Y29844D01*
X18498*
X18668Y29675*
Y28998*
X18498Y28829*
X1816*
X17991Y28998*
Y29167*
X1816Y29337*
X18668*
X26796Y38226D02*
X27812D01*
Y38734*
X27643Y38904*
X27304*
X27135Y38734*
Y38226*
Y38565D02*
X26796Y38904D01*
Y39242D02*
Y39581D01*
Y39411*
X27812*
X27643Y39242*
Y40089D02*
X27812Y40258D01*
Y40596*
X27643Y40766*
X27474*
X27304Y40596*
X27135Y40766*
X26966*
X26796Y40596*
Y40258*
X26966Y40089*
X27135*
X27304Y40258*
X27474Y40089*
X27643*
X27304Y40258D02*
Y40596D01*
X18541Y34416D02*
Y35432D01*
X18034*
X17864Y35263*
Y34924*
X18034Y34755*
X18541*
X18203D02*
X17864Y34416D01*
X17526D02*
X17187D01*
X17357*
Y35432*
X17526Y35263*
X16679D02*
X1651Y35432D01*
X16172*
X16002Y35263*
Y35094*
X16172Y34924*
X16341*
X16172*
X16002Y34755*
Y34586*
X16172Y34416*
X1651*
X16679Y34586*
X21716Y4356D02*
X20701D01*
Y43053*
X2087Y42883*
X21209*
X21378Y43053*
Y4356*
Y43222D02*
X21716Y42883D01*
Y42545D02*
Y42206D01*
Y42376*
X20701*
X2087Y42545*
X21716Y41021D02*
Y41698D01*
X21039Y41021*
X2087*
X20701Y41191*
Y41529*
X2087Y41698*
M02*