%FSTAX23Y23*%
%MOMM*%
%SFA1B1*%

%IPPOS*%
%AMD66*
4,1,4,-4.069080,6.228080,-6.228080,4.069080,4.069080,-6.228080,6.228080,-4.069080,-4.069080,6.228080,0.0*
%
%AMD72*
4,1,4,1.480820,0.000000,0.000000,1.480820,-1.480820,0.000000,0.000000,-1.480820,1.480820,0.000000,0.0*
1,1,2.095500,-0.739140,0.739140*
1,1,2.095500,0.739140,-0.739140*
%
%AMD75*
4,1,4,-1.363980,-0.365760,0.365760,-1.363980,1.363980,0.365760,-0.365760,1.363980,-1.363980,-0.365760,0.0*
%
%AMD79*
4,1,4,0.000000,-1.059180,1.059180,0.000000,0.000000,1.059180,-1.059180,0.000000,0.000000,-1.059180,0.0*
%
%AMD82*
4,1,4,2.296160,8.686800,-8.686800,-2.296160,-2.296160,-8.686800,8.686800,2.296160,2.296160,8.686800,0.0*
%
%AMD84*
4,1,4,-4.998720,8.361680,-8.361680,4.998720,4.998720,-8.361680,8.361680,-4.998720,-4.998720,8.361680,0.0*
%
%AMD87*
4,1,4,0.398780,2.237740,-2.237740,-0.398780,-0.398780,-2.237740,2.237740,0.398780,0.398780,2.237740,0.0*
%
%ADD10R,1.100074X1.400048*%
%ADD14R,1.999996X1.999996*%
%ADD15R,1.999996X1.999996*%
%ADD17R,1.400048X1.100074*%
%ADD31C,0.304800*%
%ADD32C,0.508000*%
%ADD33C,0.635000*%
%ADD34C,0.254000*%
%ADD35C,3.810000*%
%ADD36C,1.270000*%
%ADD39C,2.540000*%
G04~CAMADD=66~9~0.0~0.0~1202.1~5735.1~0.0~0.0~0~0.0~0.0~0.0~0.0~0~0.0~0.0~0.0~0.0~0~0.0~0.0~0.0~45.0~4904.0~4903.0*
%ADD66D66*%
%ADD68C,3.400044*%
%ADD69C,1.999996*%
%ADD70R,1.500124X1.500124*%
%ADD71C,1.500124*%
G04~CAMADD=72~3~0.0~0.0~1650.0~825.0~0.0~0.0~0~0.0~0.0~0.0~0.0~0~0.0~0.0~0.0~0.0~0~0.0~0.0~0.0~315.0~1408.0~1408.0*
%ADD72D72*%
%ADD73R,1.500124X1.500124*%
%ADD74O,3.657600X1.828800*%
G04~CAMADD=75~10~0.0~787.4~0.0~0.0~0.0~0.0~0~0.0~0.0~0.0~0.0~0~0.0~0.0~0.0~0.0~0~0.0~0.0~0.0~150.0~787.4~0.0*
%ADD75D75*%
%ADD76C,3.200400*%
%ADD77C,1.422400*%
%ADD78C,1.371600*%
G04~CAMADD=79~10~0.0~590.6~0.0~0.0~0.0~0.0~0~0.0~0.0~0.0~0.0~0~0.0~0.0~0.0~0.0~0~0.0~0.0~0.0~225.0~590.6~0.0*
%ADD79D79*%
%ADD80C,0.599948*%
%ADD81R,4.826000X8.636000*%
G04~CAMADD=82~9~0.0~0.0~6116.5~3559.2~0.0~0.0~0~0.0~0.0~0.0~0.0~0~0.0~0.0~0.0~0.0~0~0.0~0.0~0.0~45.0~6840.0~6839.0*
%ADD82D82*%
%ADD83R,13.335000X2.794000*%
G04~CAMADD=84~9~0.0~0.0~1873.8~7439.5~0.0~0.0~0~0.0~0.0~0.0~0.0~0~0.0~0.0~0.0~0.0~0~0.0~0.0~0.0~45.0~6584.0~6583.0*
%ADD84D84*%
%ADD85R,6.350000X12.319000*%
%ADD86R,3.302000X3.429000*%
G04~CAMADD=87~9~0.0~0.0~1468.2~1025.3~0.0~0.0~0~0.0~0.0~0.0~0.0~0~0.0~0.0~0.0~0.0~0~0.0~0.0~0.0~45.0~1762.0~1761.0*
%ADD87D87*%
%LNramps_tmc-1*%
%LPD*%
G36*
X87629Y28535D02*
Y28191D01*
X87612Y28148*
X87585Y27939*
X87612Y27731*
X87629Y27688*
Y27348*
X86486Y26161*
X83946*
Y27453*
X84011Y27536*
X84091Y27731*
X84118Y27939*
X84091Y28148*
X84011Y28343*
X83946Y28426*
Y2959*
X86613*
X87629Y28535*
G37*
G36*
X33404Y63988D02*
X3351Y63944D01*
X33586Y63913*
X33781Y63887*
X34287*
X34328Y63766*
X34227Y63689*
X34098Y63522*
X34018Y63327*
X33991Y63118*
X34018Y6291*
X34098Y62715*
X34227Y62548*
X34394Y62419*
X34589Y62339*
X34797Y62312*
X35006Y62339*
X35049Y62356*
X35201Y62419*
X35368Y62548*
X35497Y62715*
X35577Y6291*
X35604Y63118*
X35577Y63327*
X35497Y63522*
X35368Y63689*
X35267Y63766*
X35308Y63887*
X36827*
X36868Y63766*
X36767Y63689*
X36638Y63522*
X36558Y63327*
X36531Y63118*
X36558Y6291*
X36638Y62715*
X36767Y62548*
X36934Y62419*
X37129Y62339*
X37337Y62312*
X37546Y62339*
X37589Y62356*
X37741Y62419*
X37908Y62548*
X38037Y62715*
X38117Y6291*
X38144Y63118*
X38117Y63327*
X38037Y63522*
X37908Y63689*
X37807Y63766*
X37848Y63887*
X39367*
X39408Y63766*
X39307Y63689*
X39178Y63522*
X39098Y63327*
X39071Y63118*
X39098Y6291*
X39178Y62715*
X39307Y62548*
X39474Y62419*
X39669Y62339*
X39877Y62312*
X40086Y62339*
X40129Y62356*
X40281Y62419*
X40448Y62548*
X40577Y62715*
X40657Y6291*
X40684Y63118*
X40657Y63327*
X40577Y63522*
X40448Y63689*
X40347Y63766*
X40388Y63887*
X41907*
X41948Y63766*
X41847Y63689*
X41719Y63522*
X41638Y63327*
X41611Y63118*
X41638Y6291*
X41719Y62715*
X41847Y62548*
X42014Y62419*
X42209Y62339*
X42417Y62312*
X42626Y62339*
X42669Y62356*
X42821Y62419*
X42988Y62548*
X43117Y62715*
X43197Y6291*
X43224Y63118*
X43197Y63327*
X43117Y63522*
X42988Y63689*
X42887Y63766*
X42928Y63887*
X43121*
X44235Y62772*
X44259Y62715*
X44387Y62548*
X44554Y62419*
X44749Y62339*
X44957Y62312*
X45166Y62339*
X45209Y62356*
X45361Y62419*
X45528Y62548*
X45657Y62715*
X4568Y62772*
X46794Y63887*
X46987*
X47028Y63766*
X46927Y63689*
X46798Y63522*
X46718Y63327*
X46691Y63118*
X46718Y6291*
X46798Y62715*
X46927Y62548*
X47094Y62419*
X47289Y62339*
X47497Y62312*
X47706Y62339*
X47749Y62356*
X47901Y62419*
X48068Y62548*
X48197Y62715*
X48277Y6291*
X48304Y63118*
X48277Y63327*
X48197Y63522*
X48068Y63689*
X47967Y63766*
X48008Y63887*
X52067*
X52108Y63766*
X52007Y63689*
X51878Y63522*
X51798Y63327*
X51771Y63118*
X51798Y6291*
X51878Y62715*
X52007Y62548*
X52174Y62419*
X52369Y62339*
X52577Y62312*
X52786Y62339*
X52829Y62356*
X52981Y62419*
X53148Y62548*
X53277Y62715*
X53357Y6291*
X53384Y63118*
X53357Y63327*
X53277Y63522*
X53148Y63689*
X53047Y63766*
X53088Y63887*
X54607*
X54648Y63766*
X54547Y63689*
X54418Y63522*
X54338Y63327*
X54311Y63118*
X54338Y6291*
X54418Y62715*
X54547Y62548*
X54714Y62419*
X54909Y62339*
X55117Y62312*
X55326Y62339*
X55369Y62356*
X55521Y62419*
X55688Y62548*
X55817Y62715*
X55897Y6291*
X55924Y63118*
X55897Y63327*
X55817Y63522*
X55688Y63689*
X55587Y63766*
X55628Y63887*
X57147*
X57188Y63766*
X57087Y63689*
X56959Y63522*
X56878Y63327*
X56851Y63118*
X56878Y6291*
X56959Y62715*
X57087Y62548*
X57254Y62419*
X57449Y62339*
X57657Y62312*
X57866Y62339*
X57909Y62356*
X58061Y62419*
X58228Y62548*
X58357Y62715*
X58437Y6291*
X58464Y63118*
X58437Y63327*
X58357Y63522*
X58228Y63689*
X58127Y63766*
X58168Y63887*
X59687*
X59728Y63766*
X59627Y63689*
X59498Y63522*
X59418Y63327*
X59391Y63118*
X59418Y6291*
X59498Y62715*
X59627Y62548*
X59794Y62419*
X59989Y62339*
X60197Y62312*
X60406Y62339*
X60449Y62356*
X60601Y62419*
X60768Y62548*
X60897Y62715*
X60977Y6291*
X61004Y63118*
X60977Y63327*
X60897Y63522*
X60768Y63689*
X60667Y63766*
X60708Y63887*
X62227*
X62268Y63766*
X62167Y63689*
X62039Y63522*
X61958Y63327*
X61931Y63118*
X61958Y6291*
X62039Y62715*
X62167Y62548*
X62334Y62419*
X62529Y62339*
X62737Y62312*
X62946Y62339*
X62989Y62356*
X63141Y62419*
X63308Y62548*
X63437Y62715*
X63517Y6291*
X63544Y63118*
X63517Y63327*
X63437Y63522*
X63308Y63689*
X63207Y63766*
X63248Y63887*
X64767*
X64808Y63766*
X64707Y63689*
X64578Y63522*
X64498Y63327*
X64471Y63118*
X64498Y6291*
X64578Y62715*
X64707Y62548*
X64874Y62419*
X65069Y62339*
X65277Y62312*
X65486Y62339*
X65681Y62419*
X65848Y62548*
X65977Y62715*
X66057Y6291*
X66084Y63118*
X66057Y63327*
X66045Y63355*
X66577Y63887*
X67307*
X67348Y63766*
X67247Y63689*
X67118Y63522*
X67038Y63327*
X67011Y63118*
X67038Y6291*
X67118Y62715*
X67247Y62548*
X67414Y62419*
X67609Y62339*
X67817Y62312*
X68026Y62339*
X68221Y62419*
X68388Y62548*
X68517Y62715*
X68597Y6291*
X68624Y63118*
X68597Y63327*
X68517Y63522*
X68388Y63689*
X68287Y63766*
X68328Y63887*
X72387*
X72428Y63766*
X72327Y63689*
X72198Y63522*
X72118Y63327*
X72091Y63118*
X72118Y6291*
X72198Y62715*
X72327Y62548*
X72494Y62419*
X72689Y62339*
X72897Y62312*
X73106Y62339*
X73301Y62419*
X73468Y62548*
X73597Y62715*
X73677Y6291*
X73704Y63118*
X73677Y63327*
X73597Y63522*
X73468Y63689*
X73367Y63766*
X73408Y63887*
X74927*
X74968Y63766*
X74867Y63689*
X74739Y63522*
X74658Y63327*
X74631Y63118*
X74658Y6291*
X74739Y62715*
X74867Y62548*
X75034Y62419*
X75229Y62339*
X75437Y62312*
X75646Y62339*
X75841Y62419*
X76008Y62548*
X76137Y62715*
X76217Y6291*
X76244Y63118*
X76217Y63327*
X76137Y63522*
X76008Y63689*
X75907Y63766*
X75948Y63887*
X77467*
X77508Y63766*
X77407Y63689*
X77278Y63522*
X77198Y63327*
X77171Y63118*
X77198Y6291*
X77278Y62715*
X77407Y62548*
X77574Y62419*
X77769Y62339*
X77977Y62312*
X78186Y62339*
X78381Y62419*
X78548Y62548*
X78677Y62715*
X78757Y6291*
X78784Y63118*
X78757Y63327*
X78677Y63522*
X78548Y63689*
X78447Y63766*
X78488Y63887*
X80007*
X80048Y63766*
X79947Y63689*
X79818Y63522*
X79738Y63327*
X79711Y63118*
X79738Y6291*
X79818Y62715*
X79947Y62548*
X80114Y62419*
X80309Y62339*
X80517Y62312*
X80726Y62339*
X80921Y62419*
X81088Y62548*
X81217Y62715*
X81297Y6291*
X81324Y63118*
X81297Y63327*
X81217Y63522*
X81088Y63689*
X80987Y63766*
X81028Y63887*
X82547*
X82588Y63766*
X82487Y63689*
X82359Y63522*
X82278Y63327*
X82251Y63118*
X82278Y6291*
X82359Y62715*
X82487Y62548*
X82654Y62419*
X82849Y62339*
X83057Y62312*
X83266Y62339*
X83461Y62419*
X83628Y62548*
X83757Y62715*
X83837Y6291*
X83864Y63118*
X83837Y63327*
X83757Y63522*
X83628Y63689*
X83527Y63766*
X83568Y63887*
X83761*
X84842Y62806*
Y62289*
X76016Y53463*
X7467*
Y5499*
X74641Y55134*
X7456Y55256*
X74182Y55634*
X74177Y5566*
X74085Y55797*
X73948Y55889*
X73786Y55921*
X73625Y55889*
X73488Y55797*
X73396Y5566*
X73364Y55498*
X73396Y55337*
X73488Y552*
X73625Y55108*
X73651Y55103*
X73919Y54835*
Y53463*
X73659*
X73572Y53427*
X73536Y53339*
Y51081*
X73422Y51025*
X73301Y51118*
X73106Y51198*
X72897Y51225*
X72689Y51198*
X72494Y51118*
X72327Y50989*
X72198Y50822*
X72118Y50627*
X72091Y50418*
X72118Y5021*
X72198Y50015*
X72327Y49848*
X72494Y49719*
X72652Y49654*
X72627Y49529*
X70628*
X70603Y49654*
X70761Y49719*
X70928Y49848*
X71057Y50015*
X71137Y5021*
X71164Y50418*
X71141Y506*
X71693Y51152*
X71789Y51171*
X71926Y51263*
X72018Y514*
X7205Y51561*
X72018Y51723*
X71926Y5186*
X71874Y51895*
Y54736*
X71855Y54831*
X71801Y5491*
X71403Y55309*
X71415Y55371*
X71383Y55533*
X71291Y5567*
X71154Y55762*
X70992Y55794*
X70831Y55762*
X70694Y5567*
X70602Y55533*
X7057Y55371*
X70602Y5521*
X70694Y55073*
X70831Y54981*
X70992Y54949*
X71055Y54962*
X71381Y54635*
Y51895*
X71329Y5186*
X71237Y51723*
X71205Y51561*
X71237Y514*
X7124Y51395*
X70875Y5103*
X70761Y51118*
X70566Y51198*
X70357Y51225*
X70149Y51198*
X69954Y51118*
X69787Y50989*
X69659Y50822*
X69578Y50627*
X69551Y50418*
X69578Y5021*
X69659Y50015*
X69787Y49848*
X69954Y49719*
X70112Y49654*
X70087Y49529*
X68088*
X68063Y49654*
X68221Y49719*
X68388Y49848*
X68517Y50015*
X68597Y5021*
X68624Y50418*
X68601Y506*
X69152Y51152*
X69214Y51139*
X69376Y51171*
X69513Y51263*
X69605Y514*
X69637Y51561*
X69605Y51723*
X6959Y51745*
X6965Y51857*
X70382*
X7044Y51771*
X70577Y51679*
X70738Y51647*
X709Y51679*
X71037Y51771*
X71129Y51908*
X71161Y52069*
X71129Y52231*
X71037Y52368*
X709Y5246*
X70738Y52492*
X70577Y5246*
X7044Y52368*
X70427Y52349*
X66962*
X66868Y5233*
X66788Y52277*
X65644Y51133*
X65486Y51198*
X65277Y51225*
X65069Y51198*
X64874Y51118*
X64707Y50989*
X64578Y50822*
X64498Y50627*
X64471Y50418*
X64498Y5021*
X64578Y50015*
X64707Y49848*
X64874Y49719*
X65032Y49654*
X65007Y49529*
X64007*
Y41528*
X65261*
X65286Y41404*
X65128Y41338*
X64961Y4121*
X64832Y41043*
X64752Y40848*
X64725Y40639*
X64752Y40431*
X64832Y40236*
X64961Y40069*
X65128Y3994*
X65323Y3986*
X65531Y39833*
X6574Y3986*
X65935Y3994*
X66102Y40069*
X66231Y40236*
X66311Y40431*
X66338Y40639*
X66311Y40848*
X66231Y41043*
X66102Y4121*
X65935Y41338*
X65777Y41404*
X65802Y41528*
X67801*
X67826Y41404*
X67668Y41338*
X67501Y4121*
X67372Y41043*
X67292Y40848*
X67265Y40639*
X67292Y40431*
X67372Y40236*
X67501Y40069*
X67668Y3994*
X67863Y3986*
X68071Y39833*
X6828Y3986*
X68475Y3994*
X68642Y40069*
X68771Y40236*
X68851Y40431*
X68878Y40639*
X68851Y40848*
X68771Y41043*
X68642Y4121*
X68475Y41338*
X68317Y41404*
X68342Y41528*
X72881*
X72906Y41404*
X72748Y41338*
X72581Y4121*
X72452Y41043*
X72372Y40848*
X72345Y40639*
X72372Y40431*
X72452Y40236*
X72581Y40069*
X72748Y3994*
X72943Y3986*
X73151Y39833*
X7336Y3986*
X73555Y3994*
X73722Y40069*
X73851Y40236*
X73931Y40431*
X73958Y40639*
X73931Y40848*
X73851Y41043*
X73722Y4121*
X73555Y41338*
X73397Y41404*
X73422Y41528*
X75421*
X75446Y41404*
X75288Y41338*
X75121Y4121*
X74993Y41043*
X74912Y40848*
X74885Y40639*
X74912Y40431*
X74993Y40236*
X75121Y40069*
X75288Y3994*
X75483Y3986*
X75691Y39833*
X759Y3986*
X76095Y3994*
X76262Y40069*
X76391Y40236*
X76471Y40431*
X76498Y40639*
X76471Y40848*
X76391Y41043*
X76262Y4121*
X76095Y41338*
X75937Y41404*
X75962Y41528*
X77961*
X77986Y41404*
X77828Y41338*
X77661Y4121*
X77532Y41043*
X77452Y40848*
X77425Y40639*
X77452Y40431*
X77532Y40236*
X77661Y40069*
X77828Y3994*
X78023Y3986*
X78231Y39833*
X7844Y3986*
X78635Y3994*
X78802Y40069*
X78931Y40236*
X79011Y40431*
X79038Y40639*
X79011Y40848*
X78931Y41043*
X78802Y4121*
X78635Y41338*
X78477Y41404*
X78502Y41528*
X80501*
X80526Y41404*
X80368Y41338*
X80201Y4121*
X80072Y41043*
X79992Y40848*
X79965Y40639*
X79992Y40431*
X80072Y40236*
X80201Y40069*
X80368Y3994*
X80563Y3986*
X80771Y39833*
X8098Y3986*
X81175Y3994*
X81342Y40069*
X81471Y40236*
X81551Y40431*
X81578Y40639*
X81551Y40848*
X81471Y41043*
X81342Y4121*
X81175Y41338*
X81017Y41404*
X81042Y41528*
X8293*
Y41348*
X82908Y41338*
X82741Y4121*
X82613Y41043*
X82532Y40848*
X82505Y40639*
X82532Y40431*
X82613Y40236*
X82741Y40069*
X82908Y3994*
X8293Y39931*
Y33394*
X80958*
X79073Y35279*
X78986Y35487*
X78848Y35668*
X78667Y35806*
X78457Y35894*
X78231Y35923*
X78006Y35894*
X77798Y35807*
X76126*
X75917Y35894*
X75691Y35923*
X75466Y35894*
X75258Y35807*
X73585*
X73377Y35894*
X73151Y35923*
X72926Y35894*
X72716Y35806*
X72535Y35668*
X72397Y35487*
X72309Y35277*
X7228Y35051*
X72309Y34826*
X72397Y34616*
X72535Y34435*
X72716Y34297*
X72926Y34209*
X73151Y3418*
X73377Y34209*
X73585Y34296*
X75258*
X75466Y34209*
X75691Y3418*
X75917Y34209*
X76126Y34296*
X77798*
X78004Y3421*
X8011Y32104*
X80267Y31984*
X80373Y3194*
X80449Y31909*
X80644Y31883*
X8293*
Y28648*
X82908Y28638*
X82741Y2851*
X82613Y28343*
X82547Y28186*
X81536*
X81471Y28343*
X81342Y2851*
X81175Y28638*
X8098Y28719*
X80771Y28746*
X80563Y28719*
X80368Y28638*
X80201Y2851*
X80122Y28407*
X80002Y28448*
Y29235*
X80456Y29689*
X80517Y29676*
X80679Y29708*
X80816Y298*
X80908Y29937*
X8094Y30098*
X80908Y3026*
X80816Y30397*
X80679Y30489*
X80517Y30521*
X80356Y30489*
X80219Y30397*
X80127Y3026*
X80095Y30098*
X80108Y30036*
X79582Y2951*
X79528Y29431*
X79509Y29336*
Y2705*
X78502*
X78477Y27175*
X78635Y2724*
X78802Y27369*
X78931Y27536*
X79011Y27731*
X79038Y27939*
X79011Y28148*
X78931Y28343*
X78802Y2851*
X78635Y28638*
X78478Y28704*
Y31678*
X78667Y31757*
X78848Y31895*
X78986Y32076*
X79074Y32286*
X79103Y32511*
X79074Y32737*
X78986Y32947*
X78848Y33128*
X78667Y33266*
X78457Y33354*
X78231Y33383*
X78006Y33354*
X77796Y33266*
X77615Y33128*
X77477Y32947*
X77389Y32737*
X7736Y32511*
X77389Y32286*
X77477Y32076*
X77615Y31895*
X77796Y31757*
X77985Y31678*
Y28704*
X77828Y28638*
X77661Y2851*
X77532Y28343*
X77452Y28148*
X77425Y27939*
X77452Y27731*
X77532Y27536*
X77661Y27369*
X77828Y2724*
X77986Y27175*
X77961Y2705*
X75962*
X75937Y27175*
X76095Y2724*
X76262Y27369*
X76391Y27536*
X76471Y27731*
X76498Y27939*
X76471Y28148*
X76391Y28343*
X76262Y2851*
X76095Y28638*
X75938Y28704*
Y31678*
X76127Y31757*
X76308Y31895*
X76446Y32076*
X76534Y32286*
X76563Y32511*
X76534Y32737*
X76446Y32947*
X76308Y33128*
X76127Y33266*
X75917Y33354*
X75691Y33383*
X75466Y33354*
X75256Y33266*
X75075Y33128*
X74937Y32947*
X74849Y32737*
X7482Y32511*
X74849Y32286*
X74937Y32076*
X75075Y31895*
X75256Y31757*
X75445Y31678*
Y28704*
X75288Y28638*
X75121Y2851*
X74993Y28343*
X74912Y28148*
X74885Y27939*
X74912Y27731*
X74993Y27536*
X75121Y27369*
X75288Y2724*
X75446Y27175*
X75421Y2705*
X73422*
X73397Y27175*
X73555Y2724*
X73722Y27369*
X73851Y27536*
X73931Y27731*
X73958Y27939*
X73931Y28148*
X73851Y28343*
X73722Y2851*
X73555Y28638*
X73398Y28704*
Y31647*
X74016*
Y33376*
X72287*
Y31647*
X72905*
Y28704*
X72748Y28638*
X72581Y2851*
X72452Y28343*
X72372Y28148*
X72345Y27939*
X72372Y27731*
X72452Y27536*
X72581Y27369*
X72748Y2724*
X72906Y27175*
X72881Y2705*
X71848*
X71326Y27573*
X71391Y27731*
X71418Y27939*
X71391Y28148*
X71311Y28343*
X71182Y2851*
X71015Y28638*
X7082Y28719*
X70611Y28746*
X70403Y28719*
X70208Y28638*
X70041Y2851*
X69913Y28343*
X69832Y28148*
X69805Y27939*
X69832Y27731*
X69913Y27536*
X70041Y27369*
X70208Y2724*
X70297Y27204*
X70284Y27077*
X70196Y2706*
X70182Y2705*
X68318*
Y27175*
X68475Y2724*
X68642Y27369*
X68771Y27536*
X68851Y27731*
X68878Y27939*
X68851Y28148*
X68771Y28343*
X68642Y2851*
X68475Y28638*
X6828Y28719*
X68071Y28746*
X67863Y28719*
X67668Y28638*
X67501Y2851*
X67372Y28343*
X67292Y28148*
X67265Y27939*
X67292Y27731*
X67372Y27536*
X67501Y27369*
X67668Y2724*
X67825Y27175*
Y2705*
X65778*
Y27175*
X65935Y2724*
X66102Y27369*
X66231Y27536*
X66311Y27731*
X66338Y27939*
X66311Y28148*
X66231Y28343*
X66102Y2851*
X65935Y28638*
X6574Y28719*
X65531Y28746*
X65323Y28719*
X65128Y28638*
X64961Y2851*
X64832Y28343*
X64752Y28148*
X64725Y27939*
X64752Y27731*
X64832Y27536*
X64961Y27369*
X65128Y2724*
X65285Y27175*
Y2705*
X63262*
X63237Y27175*
X63395Y2724*
X63562Y27369*
X63691Y27536*
X63771Y27731*
X63798Y27939*
X63771Y28148*
X63691Y28343*
X63562Y2851*
X63395Y28638*
X632Y28719*
X62991Y28746*
X62783Y28719*
X62588Y28638*
X62421Y2851*
X62293Y28343*
X62212Y28148*
X62185Y27939*
X62212Y27731*
X62293Y27536*
X62421Y27369*
X62588Y2724*
X62746Y27175*
X62721Y2705*
X60815*
X60735Y27149*
X60744Y27195*
X60855Y2724*
X61022Y27369*
X61151Y27536*
X61231Y27731*
X61258Y27939*
X61231Y28148*
X61151Y28343*
X61022Y2851*
X60855Y28638*
X6066Y28719*
X60451Y28746*
X60243Y28719*
X60048Y28638*
X59881Y2851*
X59752Y28343*
X59672Y28148*
X59645Y27939*
X59672Y27731*
X59752Y27536*
X59881Y27369*
X60048Y2724*
X60205Y27175*
Y2705*
X58182*
X58157Y27175*
X58315Y2724*
X58482Y27369*
X58611Y27536*
X58691Y27731*
X58718Y27939*
X58691Y28148*
X58636Y2828*
X59374Y29017*
X59433Y29105*
X59439Y29137*
X5948Y29165*
X59572Y29302*
X59604Y29463*
X59572Y29625*
X5948Y29762*
X59343Y29854*
X59181Y29886*
X5902Y29854*
X58883Y29762*
X58791Y29625*
X58759Y29463*
X58791Y29302*
X5883Y29243*
X58252Y28664*
X5812Y28719*
X57911Y28746*
X57703Y28719*
X57508Y28638*
X57341Y2851*
X57213Y28343*
X57132Y28148*
X57105Y27939*
X57132Y27731*
X57213Y27536*
X57341Y27369*
X57508Y2724*
X57666Y27175*
X57641Y2705*
X55642*
X55617Y27175*
X55775Y2724*
X55942Y27369*
X56071Y27536*
X56151Y27731*
X56178Y27939*
X56151Y28148*
X56071Y28343*
X55942Y2851*
X55775Y28638*
X5558Y28719*
X55371Y28746*
X55163Y28719*
X54968Y28638*
X54801Y2851*
X54672Y28343*
X54592Y28148*
X54565Y27939*
X54592Y27731*
X54672Y27536*
X54801Y27369*
X54968Y2724*
X55126Y27175*
X55101Y2705*
X53102*
X53077Y27175*
X53235Y2724*
X53402Y27369*
X53531Y27536*
X53611Y27731*
X53638Y27939*
X53611Y28148*
X53531Y28343*
X53402Y2851*
X53235Y28638*
X5304Y28719*
X52831Y28746*
X52623Y28719*
X52428Y28638*
X52261Y2851*
X52132Y28343*
X52052Y28148*
X52025Y27939*
X52052Y27731*
X52132Y27536*
X52261Y27369*
X52428Y2724*
X52586Y27175*
X52561Y2705*
X51528*
X51006Y27573*
X51071Y27731*
X51098Y27939*
X51071Y28148*
X50991Y28343*
X50862Y2851*
X50695Y28638*
X505Y28719*
X50291Y28746*
X50083Y28719*
X49888Y28638*
X49721Y2851*
X49592Y28343*
X49512Y28148*
X49485Y27939*
X49512Y27731*
X49592Y27536*
X49721Y27369*
X49888Y2724*
X50046Y27175*
X50021Y2705*
X48988*
X48466Y27573*
X48531Y27731*
X48558Y27939*
X48531Y28148*
X48451Y28343*
X48322Y2851*
X48155Y28638*
X4796Y28719*
X47751Y28746*
X47543Y28719*
X47348Y28638*
X47181Y2851*
X47052Y28343*
X46972Y28148*
X46945Y27939*
X46972Y27731*
X47052Y27536*
X47181Y27369*
X47348Y2724*
X47506Y27175*
X47481Y2705*
X46448*
X45926Y27573*
X45991Y27731*
X46018Y27939*
X45991Y28148*
X45911Y28343*
X45782Y2851*
X45615Y28638*
X4542Y28719*
X45211Y28746*
X45003Y28719*
X44808Y28638*
X44641Y2851*
X44513Y28343*
X44432Y28148*
X44405Y27939*
X44432Y27731*
X44513Y27536*
X44641Y27369*
X44808Y2724*
X44966Y27175*
X44941Y2705*
X42942*
X42917Y27175*
X43075Y2724*
X43242Y27369*
X43371Y27536*
X43451Y27731*
X43478Y27939*
X43451Y28148*
X43371Y28343*
X43242Y2851*
X43075Y28638*
X4288Y28719*
X42671Y28746*
X42463Y28719*
X42268Y28638*
X42101Y2851*
X41973Y28343*
X41892Y28148*
X41865Y27939*
X41882Y27808*
X41763Y27763*
X417Y27857*
X41563Y27949*
X41401Y27981*
X4124Y27949*
X41103Y27857*
X41102Y27856*
X40976Y27842*
X40931Y27884*
X40938Y27939*
X40911Y28148*
X40831Y28343*
X40702Y2851*
X40535Y28638*
X4034Y28719*
X40131Y28746*
X39923Y28719*
X39728Y28638*
X39561Y2851*
X39432Y28343*
X39352Y28148*
X39325Y27939*
X39352Y27731*
X39432Y27536*
X39558Y27372*
X39502Y27259*
X38221*
X38165Y27372*
X38291Y27536*
X38371Y27731*
X38398Y27939*
X38371Y28148*
X38291Y28343*
X38162Y2851*
X37995Y28638*
X37864Y28693*
Y29344*
X37962Y29424*
X37972Y29422*
X38134Y29454*
X38271Y29546*
X38363Y29683*
X38395Y29844*
X38363Y30006*
X38271Y30143*
X38134Y30235*
X37972Y30267*
X37811Y30235*
X37674Y30143*
X37582Y30006*
X3755Y29844*
X37556Y29813*
X37399Y29656*
X3734Y29568*
X3732Y29463*
Y28693*
X37188Y28638*
X37021Y2851*
X36892Y28343*
X36812Y28148*
X36785Y27939*
X36812Y27731*
X36892Y27536*
X37018Y27372*
X36962Y27259*
X35681*
X35625Y27372*
X35751Y27536*
X35831Y27731*
X35858Y27939*
X35831Y28148*
X35751Y28343*
X35622Y2851*
X35455Y28638*
X3526Y28719*
X35051Y28746*
X34843Y28719*
X34648Y28638*
X34481Y2851*
X34352Y28343*
X34272Y28148*
X34245Y27939*
X34272Y27731*
X34352Y27536*
X34478Y27372*
X34422Y27259*
X3354*
X33226Y27573*
X33291Y27731*
X33318Y27939*
X33291Y28148*
X33211Y28343*
X33082Y2851*
X32915Y28638*
X3272Y28719*
X32511Y28746*
X32303Y28719*
X32108Y28638*
X31941Y2851*
X31813Y28343*
X31732Y28148*
X31705Y27939*
X31732Y27731*
X31813Y27536*
X31941Y27369*
X32108Y2724*
X32266Y27175*
X32241Y2705*
X30242*
X30217Y27175*
X30375Y2724*
X30542Y27369*
X30671Y27536*
X30751Y27731*
X30778Y27939*
X30751Y28148*
X30671Y28343*
X30542Y2851*
X30375Y28638*
X3018Y28719*
X29971Y28746*
X29763Y28719*
X29568Y28638*
X29401Y2851*
X29273Y28343*
X29192Y28148*
X29165Y27939*
X29192Y27731*
X29273Y27536*
X29401Y27369*
X29568Y2724*
X29726Y27175*
X29701Y2705*
X27812*
X22415Y33845*
X26525Y37955*
X26595*
Y38025*
X28574Y40004*
Y49529*
Y64007*
X31987*
X32012Y63883*
X31854Y63818*
X31687Y63689*
X31559Y63522*
X31478Y63327*
X31451Y63118*
X31478Y6291*
X31559Y62715*
X31687Y62548*
X31854Y62419*
X32049Y62339*
X32257Y62312*
X32466Y62339*
X32509Y62356*
X32661Y62419*
X32828Y62548*
X32957Y62715*
X33037Y6291*
X33064Y63118*
X33037Y63327*
X32957Y63522*
X32828Y63689*
X32661Y63818*
X32503Y63883*
X32528Y64007*
X33378*
X33404Y63988*
G37*
G36*
X77596Y51127D02*
X77574Y51118D01*
X77407Y50989*
X77278Y50822*
X77198Y50627*
X77171Y50418*
X77198Y5021*
X77278Y50015*
X77407Y49848*
X77574Y49719*
X77596Y4971*
Y47624*
X7611*
X75917Y47705*
X75691Y47734*
X75466Y47705*
X75273Y47624*
X73659*
Y50167*
X73677Y5021*
X73704Y50418*
X73677Y50627*
X73659Y5067*
Y53339*
X77596*
Y51127*
G37*
G36*
X11667Y61267D02*
X11679Y61217D01*
X11331Y61031*
X11023Y60779*
X10771Y60471*
X10584Y6012*
X10468Y5974*
X10429Y59344*
Y58892*
X10081Y58543*
X07619*
X07224Y58505*
X06843Y58389*
X06492Y58202*
X06185Y57949*
X05932Y57642*
X05745Y57291*
X05629Y5691*
X05591Y56514*
X05629Y56119*
X05745Y55738*
X05932Y55387*
X06185Y5508*
X06492Y54827*
X06843Y5464*
X07224Y54524*
X07619Y54485*
X10921*
X11317Y54524*
X11609Y54613*
X11698Y5464*
X12049Y54827*
X12356Y5508*
X13893Y56616*
X14145Y56924*
X14333Y57275*
X14448Y57655*
X1446Y57772*
X14586Y57765*
Y46113*
X1457Y4611*
X14433Y46018*
X14341Y45881*
X14309Y45719*
X14341Y45558*
X14433Y45421*
X1457Y45329*
X14731Y45297*
Y28574*
X00246*
Y6134*
X05206*
Y61213*
X05243Y61126*
X0533Y6109*
X07648*
X07736Y61126*
X07772Y61213*
Y61332*
X09254*
X09275Y6134*
X11645*
X11667Y61267*
G37*
G36*
X25461Y63053D02*
D01*
X25549Y62994*
X25653Y62973*
X2705*
X27155Y62994*
X27192Y6302*
X27304Y6296*
Y45429*
X27214Y45339*
X15199Y45435*
X15119Y45534*
X15131Y45592*
Y45601*
X15154Y45719*
X15131Y45838*
Y61213*
Y63387*
X16495Y64751*
X23763*
X25461Y63053*
G37*
G36*
X94695Y8771D02*
X99653Y82751D01*
Y70901*
X99532Y70864*
X99507Y70902*
X98805Y71604*
X98717Y71663*
X98613Y71684*
X96622*
Y7285*
X97037Y73265*
X97246Y73056*
X9724Y73024*
X97272Y72863*
X97364Y72726*
X97501Y72634*
X97662Y72602*
X97824Y72634*
X97961Y72726*
X98053Y72863*
X98085Y73024*
X98053Y73186*
X97961Y73323*
X97824Y73415*
X97662Y73447*
X97631Y73441*
X97383Y73688*
X97403Y73786*
Y75212*
X9869Y76499*
X98771Y76621*
X98776Y76645*
X988Y76765*
Y7754*
X98815Y77562*
X98847Y77723*
X98815Y77885*
X98723Y78022*
X98586Y78114*
X9856Y78119*
X97547Y79132*
X97425Y79213*
X97281Y79242*
X96182*
X96157Y79367*
X96193Y79382*
X96374Y7952*
X96512Y79701*
X966Y79911*
X96629Y80136*
X966Y80362*
X96512Y80572*
X96374Y80753*
X96193Y80891*
X95983Y80979*
X95757Y81008*
X95532Y80979*
X95322Y80891*
X95141Y80753*
X95003Y80572*
X94915Y80362*
X94886Y80136*
X94915Y79911*
X95003Y79701*
X95015Y79684*
X9492Y796*
X93977Y80543*
X93855Y80624*
X93712Y80653*
X89795*
X8977Y80713*
X89631Y80894*
X89451Y81032*
X8924Y81119*
X89015Y81149*
X88789Y81119*
X88579Y81032*
X88398Y80894*
X8826Y80713*
X88173Y80503*
X88143Y80277*
X88173Y80052*
X8826Y79841*
X88398Y79661*
X88579Y79522*
X88789Y79435*
X89015Y79405*
X8924Y79435*
X8938Y79493*
X89434Y79482*
X89578Y79511*
X897Y79592*
X89781Y79714*
X8981Y79858*
X89846Y79902*
X93556*
X94857Y78601*
X94979Y7852*
X95122Y78491*
X95333*
X95358Y78366*
X95322Y78351*
X95141Y78213*
X95003Y78032*
X94915Y77822*
X94886Y77596*
X94915Y77371*
X95003Y77161*
X95141Y7698*
X95322Y76842*
X95532Y76754*
X95757Y76725*
X95983Y76754*
X96193Y76842*
X96374Y7698*
X96512Y77161*
X966Y77371*
X96629Y77596*
X966Y77822*
X96512Y78032*
X96374Y78213*
X96193Y78351*
X96157Y78366*
X96182Y78491*
X97126*
X98029Y77588*
X98034Y77562*
X98049Y7754*
Y76921*
X96762Y75634*
X96681Y75512*
X96652Y75368*
Y73942*
X96091Y73381*
X94893*
Y71684*
X75891*
X75843Y71801*
X78375Y74333*
X79719*
Y76062*
X7799*
Y74718*
X75376Y72103*
X75066*
X75017Y7222*
X76507Y7371*
X76566Y73798*
X76587Y73902*
Y74333*
X77179*
Y76062*
X7545*
Y74333*
X76043*
Y74015*
X74563Y72535*
X5753*
X57426Y72514*
X57338Y72455*
X55477Y70594*
X55333Y70654*
X55117Y70682*
X54902Y70654*
X54701Y70571*
X54529Y70438*
X54396Y70266*
X54313Y70065*
X54285Y69849*
X54313Y69634*
X54373Y6949*
X5299Y68107*
X52958Y68113*
X52797Y68081*
X5266Y67989*
X52568Y67852*
X52443Y67877*
Y68938*
X52538Y69022*
X52577Y69017*
X52793Y69045*
X52994Y69128*
X53166Y69261*
X53299Y69433*
X53382Y69634*
X5341Y69849*
X53382Y70065*
X53299Y70266*
X53166Y70438*
X52994Y70571*
X52793Y70654*
X52577Y70682*
X52362Y70654*
X52161Y70571*
X51989Y70438*
X51856Y70266*
X51797Y70122*
X51533*
X48235Y7342*
X48146Y73479*
X48042Y735*
X31828*
X29697Y75631*
Y79388*
X29714Y794*
X29742Y79414*
X29851Y79349*
Y76453*
X29877Y76258*
X29952Y76076*
X30072Y75919*
X30326Y75665*
X30483Y75545*
X30665Y7547*
X3086Y75444*
X334*
X33596Y7547*
X33778Y75545*
X33935Y75665*
X34447Y76177*
X34542Y76093*
X34524Y76069*
X34479Y7596*
X34407Y75853*
X34375Y75691*
X34407Y7553*
X34479Y75423*
X34524Y75314*
X34644Y75157*
X34801Y75037*
X34983Y74962*
X35178Y74936*
X35248*
X35271Y7492*
X35432Y74888*
X35594Y7492*
X35617Y74936*
X36829*
X37025Y74962*
X37207Y75037*
X37364Y75157*
X40345Y78138*
X40465Y78294*
X4054Y78477*
X40566Y78672*
Y84727*
X40925*
Y86956*
X38696*
X38691*
X38639Y87008*
X38612Y87073*
X39429Y8789*
X6222*
X6422Y8589*
X64213Y85842*
X64252Y85551*
X64364Y85279*
X64543Y85047*
X64776Y84868*
X65047Y84756*
X65337Y84718*
X65629Y84756*
X659Y84868*
X66132Y85047*
X66311Y85279*
X66423Y85551*
X66461Y85842*
X66423Y86132*
X66311Y86403*
X66132Y86636*
X659Y86815*
X65629Y86927*
X65337Y86966*
X65289Y86959*
X63068Y8918*
X62911Y893*
X62729Y89375*
X62534Y89401*
X39115*
X3892Y89375*
X38844Y89344*
X38738Y893*
X38581Y8918*
X37311Y8791*
X37191Y87753*
X37116Y87571*
X3709Y87375*
Y80958*
X33088Y76955*
X32807*
X32783Y7708*
X3282Y77096*
X33001Y77234*
X33139Y77415*
X33227Y77625*
X33256Y7785*
X33227Y78076*
X33139Y78286*
X33001Y78467*
X3282Y78605*
X3261Y78693*
X32384Y78722*
X32159Y78693*
X31949Y78605*
X31768Y78467*
X3163Y78286*
X31542Y78076*
X31513Y7785*
X31542Y77625*
X3163Y77415*
X31768Y77234*
X31949Y77096*
X31986Y7708*
X31962Y76955*
X31362*
Y79755*
X31336Y79951*
X31261Y80133*
X31141Y8029*
X31117Y80308*
X31032Y80435*
X30895Y80527*
X30733Y80559*
X30572Y80527*
X30534Y80502*
X30411Y80485*
X30229Y8041*
X30072Y8029*
X29966Y80151*
X29937Y80146*
X29809Y80061*
X29714Y80111*
X29697Y80123*
Y84594*
X329Y87798*
X33027Y87789*
X33038Y87775*
X33219Y87637*
X33429Y87549*
X33654Y8752*
X3388Y87549*
X3409Y87637*
X34271Y87775*
X34409Y87956*
X34497Y88166*
X34526Y88391*
X34497Y88617*
X34409Y88827*
X34271Y89008*
X3409Y89146*
X3388Y89234*
X33654Y89263*
X33429Y89234*
X33219Y89146*
X33038Y89008*
X329Y88827*
X32812Y88617*
X32783Y88391*
X32785Y88378*
X29421Y85014*
X29304Y85063*
Y86196*
X30725Y87617*
X30889Y87549*
X31114Y8752*
X3134Y87549*
X3155Y87637*
X31731Y87775*
X31869Y87956*
X31957Y88166*
X31986Y88391*
X31957Y88617*
X31869Y88827*
X31731Y89008*
X3155Y89146*
X3134Y89234*
X31114Y89263*
X30889Y89234*
X30679Y89146*
X30498Y89008*
X3036Y88827*
X30272Y88617*
X30243Y88391*
X30272Y88166*
X3034Y88002*
X29002Y86663*
X28885Y86712*
Y87584*
X2901Y87637*
X29191Y87775*
X29329Y87956*
X29417Y88166*
X29446Y88391*
X29417Y88617*
X29329Y88827*
X29191Y89008*
X2901Y89146*
X288Y89234*
X28574Y89263*
X28349Y89234*
X28139Y89146*
X27958Y89008*
X2782Y88827*
X27732Y88617*
X27703Y88391*
X27732Y88166*
X2782Y87956*
X27958Y87775*
X28139Y87637*
X28341Y87553*
Y85129*
X28336Y85122*
X28315Y85018*
Y82889*
X28203Y82829*
X28161Y82858*
X28066Y82877*
X27972Y82858*
X27893Y82805*
X27875Y82786*
X27812Y82799*
X27651Y82767*
X27514Y82675*
X27444Y82571*
X27323Y82608*
Y85851*
X27302Y85956*
X27243Y86044*
X26945Y86341*
X27008Y95003*
X87401*
X94695Y8771*
G37*
G36*
X99567Y12666D02*
X98458Y11556D01*
X94868*
Y13532*
X94993Y13556*
X95003Y13534*
X95141Y13353*
X95322Y13215*
X95532Y13127*
X95757Y13098*
X95983Y13127*
X96193Y13215*
X96374Y13353*
X96512Y13534*
X966Y13744*
X96629Y13969*
X966Y14195*
X96512Y14405*
X96374Y14586*
X96193Y14724*
X95983Y14812*
X95757Y14841*
X95532Y14812*
X95322Y14724*
X95141Y14586*
X95003Y14405*
X94993Y14383*
X94868Y14407*
Y16072*
X94993Y16096*
X95003Y16074*
X95141Y15893*
X95322Y15755*
X95532Y15667*
X95757Y15638*
X95983Y15667*
X96193Y15755*
X96374Y15893*
X96512Y16074*
X966Y16284*
X96629Y16509*
X966Y16735*
X96512Y16945*
X96374Y17126*
X96193Y17264*
X95983Y17352*
X95757Y17381*
X95532Y17352*
X95322Y17264*
X95141Y17126*
X95003Y16945*
X94993Y16923*
X94868Y16947*
Y17779*
X99567*
Y12666*
G37*
G36*
X26796Y91556D02*
X26676Y91515D01*
X26651Y91548*
X2647Y91686*
X2626Y91774*
X26034Y91803*
X25809Y91774*
X25599Y91686*
X25418Y91548*
X2528Y91367*
X25192Y91157*
X25163Y90931*
X25192Y90706*
X2528Y90496*
X25418Y90315*
X25599Y90177*
X25809Y90089*
X26034Y9006*
X2626Y90089*
X2647Y90177*
X26651Y90315*
X26676Y90348*
X26796Y90307*
Y89016*
X26676Y88975*
X26651Y89008*
X2647Y89146*
X2626Y89234*
X26034Y89263*
X25809Y89234*
X25599Y89146*
X25418Y89008*
X2528Y88827*
X25192Y88617*
X25163Y88391*
X25192Y88166*
X2528Y87956*
X25418Y87775*
X25599Y87637*
X25762Y87569*
Y86867*
X25783Y86763*
X25842Y86675*
X26778Y85739*
Y75183*
X26796Y75093*
Y72128*
X26496*
X2646Y7218*
X26323Y72272*
X26161Y72304*
X26Y72272*
X25863Y7218*
X25771Y72043*
X25739Y71881*
X25771Y7172*
X25863Y71583*
X26Y71491*
X26161Y71459*
X26323Y71491*
X2646Y71583*
X26496Y71635*
X26796*
Y688*
X26496Y68499*
X26442Y6842*
X26423Y68325*
Y64469*
X26371Y64433*
X26279Y64296*
X26247Y64134*
X26279Y63973*
X26371Y63836*
X26508Y63744*
X26669Y63712*
X26698Y63718*
X26796Y63637*
Y63518*
X25766*
X24068Y65216*
X2398Y65275*
X23875Y65296*
X16382*
X16278Y65275*
X1619Y65216*
X14666Y63692*
X14607Y63604*
X14586Y63499*
Y61213*
X13244*
X13235Y61219*
X12854Y61334*
X12458Y61373*
X12207Y61348*
X12128Y61401*
X12093Y6144*
X12124Y61594*
X1209Y61763*
X11995Y61906*
X11852Y62001*
X11683Y62035*
X10015*
X09847Y62001*
X09704Y61906*
X09254Y61456*
X07648*
Y61213*
X0533*
Y68325*
X05294Y68413*
X05206Y68449*
X0038*
X00351Y68437*
X00246Y68508*
Y79273*
X15976Y95003*
X26796*
Y91556*
G37*
G36*
X84835Y22185D02*
Y21907D01*
X84793Y21805*
X84765Y21589*
X84793Y21374*
X84835Y21272*
Y20998*
X83692Y19811*
X81152*
Y21061*
X81239Y21173*
X81322Y21374*
X8135Y21589*
X81322Y21805*
X81239Y22006*
X81152Y22118*
Y2324*
X83819*
X84835Y22185*
G37*
G36*
X17652Y16636D02*
Y16509D01*
X07492*
Y18922*
X10159Y21589*
X11429Y22859*
X17652Y16636*
G37*
%LNramps_tmc-2*%
%LPC*%
G36*
X40131Y45702D02*
X39906Y45673D01*
X39696Y45585*
X39515Y45447*
X39377Y45266*
X39289Y45056*
X3926Y4483*
X39289Y44605*
X39377Y44395*
X39515Y44214*
X39696Y44076*
X39906Y43988*
X40131Y43959*
X40357Y43988*
X40567Y44076*
X40748Y44214*
X40886Y44395*
X40974Y44605*
X41003Y4483*
X40974Y45056*
X40886Y45266*
X40748Y45447*
X40567Y45585*
X40357Y45673*
X40131Y45702*
G37*
G36*
X42671D02*
X42446Y45673D01*
X42236Y45585*
X42055Y45447*
X41917Y45266*
X41829Y45056*
X418Y4483*
X41829Y44605*
X41917Y44395*
X42055Y44214*
X42236Y44076*
X42446Y43988*
X42671Y43959*
X42897Y43988*
X43107Y44076*
X43288Y44214*
X43426Y44395*
X43514Y44605*
X43543Y4483*
X43514Y45056*
X43426Y45266*
X43288Y45447*
X43107Y45585*
X42897Y45673*
X42671Y45702*
G37*
G36*
X08534Y42312D02*
X06705D01*
X06437Y42277*
X06186Y42173*
X05972Y42008*
X05806Y41793*
X05703Y41543*
X05668Y41274*
X05703Y41006*
X05806Y40756*
X05972Y40541*
X06186Y40376*
X06437Y40272*
X06705Y40237*
X08534*
X08802Y40272*
X09053Y40376*
X09268Y40541*
X09433Y40756*
X09536Y41006*
X09571Y41274*
X09536Y41543*
X09433Y41793*
X09268Y42008*
X09053Y42173*
X08802Y42277*
X08534Y42312*
G37*
G36*
X37591Y45702D02*
X37366Y45673D01*
X37156Y45585*
X36975Y45447*
X36837Y45266*
X36749Y45056*
X3672Y4483*
X36749Y44605*
X36837Y44395*
X36975Y44214*
X37156Y44076*
X37366Y43988*
X37591Y43959*
X37817Y43988*
X38027Y44076*
X38208Y44214*
X38346Y44395*
X38434Y44605*
X38463Y4483*
X38434Y45056*
X38346Y45266*
X38208Y45447*
X38027Y45585*
X37817Y45673*
X37591Y45702*
G37*
G36*
X57911D02*
X57686Y45673D01*
X57476Y45585*
X57295Y45447*
X57157Y45266*
X57069Y45056*
X5704Y4483*
X57069Y44605*
X57157Y44395*
X57295Y44214*
X57476Y44076*
X57686Y43988*
X57911Y43959*
X58137Y43988*
X58347Y44076*
X58528Y44214*
X58666Y44395*
X58754Y44605*
X58783Y4483*
X58754Y45056*
X58666Y45266*
X58528Y45447*
X58347Y45585*
X58137Y45673*
X57911Y45702*
G37*
G36*
X56236Y45695D02*
X54507D01*
Y43966*
X56236*
Y45695*
G37*
G36*
X37337Y51225D02*
X37129Y51198D01*
X36934Y51118*
X36767Y50989*
X36638Y50822*
X36558Y50627*
X36531Y50418*
X36558Y5021*
X36638Y50015*
X36767Y49848*
X36934Y49719*
X37091Y49654*
Y49529*
Y4872*
X37039Y48685*
X36947Y48548*
X36915Y48386*
X36947Y48225*
X37039Y48088*
X37176Y47996*
X37337Y47964*
X37499Y47996*
X37636Y48088*
X37728Y48225*
X3776Y48386*
X37728Y48548*
X37636Y48685*
X37584Y4872*
Y49529*
Y49654*
X37741Y49719*
X37908Y49848*
X38037Y50015*
X38117Y5021*
X38144Y50418*
X38117Y50627*
X38037Y50822*
X37908Y50989*
X37741Y51118*
X37546Y51198*
X37337Y51225*
G37*
G36*
X34797D02*
X34589Y51198D01*
X34394Y51118*
X34227Y50989*
X34098Y50822*
X34018Y50627*
X33991Y50418*
X34018Y5021*
X34098Y50015*
X34227Y49848*
X34394Y49719*
X34551Y49654*
Y49529*
Y49229*
X34499Y49193*
X34407Y49056*
X34375Y48894*
X34407Y48733*
X34499Y48596*
X34636Y48504*
X34797Y48472*
X34959Y48504*
X35096Y48596*
X35188Y48733*
X3522Y48894*
X35188Y49056*
X35096Y49193*
X35044Y49229*
Y49529*
Y49654*
X35201Y49719*
X35368Y49848*
X35497Y50015*
X35577Y5021*
X35604Y50418*
X35577Y50627*
X35497Y50822*
X35368Y50989*
X35201Y51118*
X35006Y51198*
X34797Y51225*
G37*
G36*
X60451Y45702D02*
X60226Y45673D01*
X60016Y45585*
X59835Y45447*
X59697Y45266*
X59609Y45056*
X5958Y4483*
X59609Y44605*
X59697Y44395*
X59835Y44214*
X60016Y44076*
X60226Y43988*
X60451Y43959*
X60677Y43988*
X60887Y44076*
X61068Y44214*
X61206Y44395*
X61294Y44605*
X61323Y4483*
X61294Y45056*
X61206Y45266*
X61068Y45447*
X60887Y45585*
X60677Y45673*
X60451Y45702*
G37*
G36*
X62991D02*
X62766Y45673D01*
X62556Y45585*
X62375Y45447*
X62237Y45266*
X62149Y45056*
X6212Y4483*
X62149Y44605*
X62237Y44395*
X62375Y44214*
X62556Y44076*
X62766Y43988*
X62991Y43959*
X63217Y43988*
X63427Y44076*
X63608Y44214*
X63746Y44395*
X63834Y44605*
X63863Y4483*
X63834Y45056*
X63746Y45266*
X63608Y45447*
X63427Y45585*
X63217Y45673*
X62991Y45702*
G37*
G36*
X35916Y45695D02*
X34187D01*
Y43966*
X35916*
Y45695*
G37*
G36*
X62991Y41446D02*
X62783Y41419D01*
X62746Y41404*
X62588Y41338*
X62421Y4121*
X62293Y41043*
X62212Y40848*
X62185Y40639*
X62212Y40431*
X62293Y40236*
X62421Y40069*
X62588Y3994*
X62783Y3986*
X62991Y39833*
X632Y3986*
X63395Y3994*
X63562Y40069*
X63691Y40236*
X63771Y40431*
X63798Y40639*
X63771Y40848*
X63691Y41043*
X63562Y4121*
X63395Y41338*
X632Y41419*
X62991Y41446*
G37*
G36*
X32511D02*
X32303Y41419D01*
X32266Y41404*
X32108Y41338*
X31941Y4121*
X31813Y41043*
X31732Y40848*
X31705Y40639*
X31732Y40431*
X31813Y40236*
X31941Y40069*
X32108Y3994*
X32303Y3986*
X32511Y39833*
X3272Y3986*
X32915Y3994*
X33082Y40069*
X33211Y40236*
X33291Y40431*
X33318Y40639*
X33291Y40848*
X33211Y41043*
X33082Y4121*
X32915Y41338*
X3272Y41419*
X32511Y41446*
G37*
G36*
X35051D02*
X34843Y41419D01*
X34806Y41404*
X34648Y41338*
X34481Y4121*
X34352Y41043*
X34272Y40848*
X34245Y40639*
X34272Y40431*
X34352Y40236*
X34481Y40069*
X34648Y3994*
X34843Y3986*
X35051Y39833*
X3526Y3986*
X35455Y3994*
X35622Y40069*
X35751Y40236*
X35831Y40431*
X35858Y40639*
X35831Y40848*
X35751Y41043*
X35622Y4121*
X35455Y41338*
X3526Y41419*
X35051Y41446*
G37*
G36*
X37591D02*
X37383Y41419D01*
X37346Y41404*
X37188Y41338*
X37021Y4121*
X36892Y41043*
X36812Y40848*
X36785Y40639*
X36812Y40431*
X36892Y40236*
X37021Y40069*
X37188Y3994*
X37383Y3986*
X37591Y39833*
X378Y3986*
X37995Y3994*
X38162Y40069*
X38291Y40236*
X38371Y40431*
X38398Y40639*
X38371Y40848*
X38291Y41043*
X38162Y4121*
X37995Y41338*
X378Y41419*
X37591Y41446*
G37*
G36*
X08534Y32152D02*
X06705D01*
X06437Y32117*
X06186Y32013*
X05972Y31848*
X05806Y31633*
X05703Y31383*
X05668Y31114*
X05703Y30846*
X05806Y30596*
X05972Y30381*
X06186Y30216*
X06437Y30112*
X06705Y30077*
X08534*
X08802Y30112*
X09053Y30216*
X09268Y30381*
X09433Y30596*
X09536Y30846*
X09571Y31114*
X09536Y31383*
X09433Y31633*
X09268Y31848*
X09053Y32013*
X08802Y32117*
X08534Y32152*
G37*
G36*
X98297Y14841D02*
X98072Y14812D01*
X97862Y14724*
X97681Y14586*
X97543Y14405*
X97455Y14195*
X97426Y13969*
X97455Y13744*
X97543Y13534*
X97681Y13353*
X97862Y13215*
X98072Y13127*
X98297Y13098*
X98523Y13127*
X98733Y13215*
X98914Y13353*
X99052Y13534*
X9914Y13744*
X99169Y13969*
X9914Y14195*
X99052Y14405*
X98914Y14586*
X98733Y14724*
X98523Y14812*
X98297Y14841*
G37*
G36*
X83057Y22422D02*
X82842Y22394D01*
X82641Y22311*
X82469Y22178*
X82336Y22006*
X82253Y21805*
X82225Y21589*
X82253Y21374*
X82336Y21173*
X82469Y21001*
X82641Y20868*
X82842Y20785*
X83057Y20757*
X83273Y20785*
X83474Y20868*
X83646Y21001*
X83779Y21173*
X83862Y21374*
X8389Y21589*
X83862Y21805*
X83779Y22006*
X83646Y22178*
X83474Y22311*
X83273Y22394*
X83057Y22422*
G37*
G36*
X85851Y28746D02*
X85643Y28719D01*
X85448Y28638*
X85281Y2851*
X85152Y28343*
X85072Y28148*
X85045Y27939*
X85072Y27731*
X85152Y27536*
X85281Y27369*
X85448Y2724*
X85643Y2716*
X85851Y27133*
X8606Y2716*
X86255Y2724*
X86422Y27369*
X86551Y27536*
X86631Y27731*
X86658Y27939*
X86631Y28148*
X86551Y28343*
X86422Y2851*
X86255Y28638*
X8606Y28719*
X85851Y28746*
G37*
G36*
X40131Y41446D02*
X39923Y41419D01*
X39886Y41404*
X39728Y41338*
X39561Y4121*
X39432Y41043*
X39352Y40848*
X39325Y40639*
X39352Y40431*
X39432Y40236*
X39561Y40069*
X39728Y3994*
X39923Y3986*
X40131Y39833*
X4034Y3986*
X40535Y3994*
X40702Y40069*
X40831Y40236*
X40911Y40431*
X40938Y40639*
X40911Y40848*
X40831Y41043*
X40702Y4121*
X40535Y41338*
X4034Y41419*
X40131Y41446*
G37*
G36*
X55371D02*
X55163Y41419D01*
X55126Y41404*
X54968Y41338*
X54801Y4121*
X54672Y41043*
X54592Y40848*
X54565Y40639*
X54592Y40431*
X54672Y40236*
X54801Y40069*
X54968Y3994*
X55163Y3986*
X55371Y39833*
X5558Y3986*
X55775Y3994*
X55942Y40069*
X56071Y40236*
X56151Y40431*
X56178Y40639*
X56151Y40848*
X56071Y41043*
X55942Y4121*
X55775Y41338*
X5558Y41419*
X55371Y41446*
G37*
G36*
X57911D02*
X57703Y41419D01*
X57666Y41404*
X57508Y41338*
X57341Y4121*
X57213Y41043*
X57132Y40848*
X57105Y40639*
X57132Y40431*
X57213Y40236*
X57341Y40069*
X57508Y3994*
X57703Y3986*
X57911Y39833*
X5812Y3986*
X58315Y3994*
X58482Y40069*
X58611Y40236*
X58691Y40431*
X58718Y40639*
X58691Y40848*
X58611Y41043*
X58482Y4121*
X58315Y41338*
X5812Y41419*
X57911Y41446*
G37*
G36*
X60451D02*
X60243Y41419D01*
X60206Y41404*
X60048Y41338*
X59881Y4121*
X59752Y41043*
X59672Y40848*
X59645Y40639*
X59672Y40431*
X59752Y40236*
X59881Y40069*
X60048Y3994*
X60243Y3986*
X60451Y39833*
X6066Y3986*
X60855Y3994*
X61022Y40069*
X61151Y40236*
X61231Y40431*
X61258Y40639*
X61231Y40848*
X61151Y41043*
X61022Y4121*
X60855Y41338*
X6066Y41419*
X60451Y41446*
G37*
G36*
X52831D02*
X52623Y41419D01*
X52586Y41404*
X52428Y41338*
X52261Y4121*
X52132Y41043*
X52052Y40848*
X52025Y40639*
X52052Y40431*
X52132Y40236*
X52261Y40069*
X52428Y3994*
X52623Y3986*
X52831Y39833*
X5304Y3986*
X53235Y3994*
X53402Y40069*
X53531Y40236*
X53611Y40431*
X53638Y40639*
X53611Y40848*
X53531Y41043*
X53402Y4121*
X53235Y41338*
X5304Y41419*
X52831Y41446*
G37*
G36*
X42671D02*
X42463Y41419D01*
X42426Y41404*
X42268Y41338*
X42101Y4121*
X41973Y41043*
X41892Y40848*
X41865Y40639*
X41892Y40431*
X41973Y40236*
X42101Y40069*
X42268Y3994*
X42463Y3986*
X42671Y39833*
X4288Y3986*
X43075Y3994*
X43242Y40069*
X43371Y40236*
X43451Y40431*
X43478Y40639*
X43451Y40848*
X43371Y41043*
X43242Y4121*
X43075Y41338*
X4288Y41419*
X42671Y41446*
G37*
G36*
X45211D02*
X45003Y41419D01*
X44966Y41404*
X44808Y41338*
X44641Y4121*
X44513Y41043*
X44432Y40848*
X44405Y40639*
X44432Y40431*
X44513Y40236*
X44641Y40069*
X44808Y3994*
X45003Y3986*
X45211Y39833*
X4542Y3986*
X45615Y3994*
X45782Y40069*
X45911Y40236*
X45991Y40431*
X46018Y40639*
X45991Y40848*
X45911Y41043*
X45782Y4121*
X45615Y41338*
X4542Y41419*
X45211Y41446*
G37*
G36*
X47751D02*
X47543Y41419D01*
X47506Y41404*
X47348Y41338*
X47181Y4121*
X47052Y41043*
X46972Y40848*
X46945Y40639*
X46972Y40431*
X47052Y40236*
X47181Y40069*
X47348Y3994*
X47543Y3986*
X47751Y39833*
X4796Y3986*
X48155Y3994*
X48322Y40069*
X48451Y40236*
X48531Y40431*
X48558Y40639*
X48531Y40848*
X48451Y41043*
X48322Y4121*
X48155Y41338*
X4796Y41419*
X47751Y41446*
G37*
G36*
X78855Y81149D02*
X78629Y81119D01*
X78419Y81032*
X78238Y80894*
X781Y80713*
X78013Y80503*
X77983Y80277*
X78013Y80052*
X781Y79841*
X78238Y79661*
X78419Y79522*
X78629Y79435*
X78855Y79405*
X7908Y79435*
X79291Y79522*
X79471Y79661*
X7961Y79841*
X79697Y80052*
X79727Y80277*
X79697Y80503*
X7961Y80713*
X79471Y80894*
X79291Y81032*
X7908Y81119*
X78855Y81149*
G37*
G36*
X86475D02*
X86249Y81119D01*
X86039Y81032*
X85858Y80894*
X8572Y80713*
X85633Y80503*
X85603Y80277*
X85633Y80052*
X8572Y79841*
X85858Y79661*
X86039Y79522*
X86249Y79435*
X86475Y79405*
X867Y79435*
X86911Y79522*
X87091Y79661*
X8723Y79841*
X87317Y80052*
X87347Y80277*
X87317Y80503*
X8723Y80713*
X87091Y80894*
X86911Y81032*
X867Y81119*
X86475Y81149*
G37*
G36*
X32384Y83802D02*
X32159Y83773D01*
X31949Y83685*
X31768Y83547*
X3163Y83366*
X31542Y83156*
X31513Y8293*
X31542Y82705*
X3163Y82495*
X31768Y82314*
X31949Y82176*
X32159Y82088*
X32384Y82059*
X3261Y82088*
X3282Y82176*
X33001Y82314*
X33139Y82495*
X33227Y82705*
X33256Y8293*
X33227Y83156*
X33139Y83366*
X33001Y83547*
X3282Y83685*
X3261Y83773*
X32384Y83802*
G37*
G36*
Y81262D02*
X32159Y81233D01*
X31949Y81145*
X31768Y81007*
X3163Y80826*
X31542Y80616*
X31513Y8039*
X31542Y80165*
X3163Y79955*
X31768Y79774*
X31949Y79636*
X32159Y79548*
X32384Y79519*
X3261Y79548*
X3282Y79636*
X33001Y79774*
X33139Y79955*
X33227Y80165*
X33256Y8039*
X33227Y80616*
X33139Y80826*
X33001Y81007*
X3282Y81145*
X3261Y81233*
X32384Y81262*
G37*
G36*
X45973Y79797D02*
X45812Y79765D01*
X45675Y79673*
X45583Y79536*
X45551Y79374*
X45583Y79213*
X45675Y79076*
X45701Y79058*
Y76199*
X45722Y76095*
X45781Y76007*
X46446Y75342*
X4644Y7531*
X46472Y75149*
X46564Y75012*
X46701Y7492*
X46862Y74888*
X47024Y7492*
X47161Y75012*
X47253Y75149*
X47285Y7531*
X47253Y75472*
X47161Y75609*
X47024Y75701*
X46862Y75733*
X46831Y75727*
X46246Y76312*
Y79058*
X46272Y79076*
X46364Y79213*
X46396Y79374*
X46364Y79536*
X46272Y79673*
X46135Y79765*
X45973Y79797*
G37*
G36*
X84799Y76062D02*
X8307D01*
Y74333*
X84799*
Y76062*
G37*
G36*
X83935Y81149D02*
X83709Y81119D01*
X83499Y81032*
X83318Y80894*
X8318Y80713*
X83093Y80503*
X83063Y80277*
X83093Y80052*
X8318Y79841*
X83318Y79661*
X83499Y79522*
X83709Y79435*
X83935Y79405*
X8416Y79435*
X84371Y79522*
X84551Y79661*
X8469Y79841*
X84777Y80052*
X84807Y80277*
X84777Y80503*
X8469Y80713*
X84551Y80894*
X84371Y81032*
X8416Y81119*
X83935Y81149*
G37*
G36*
X81395D02*
X81169Y81119D01*
X80959Y81032*
X80778Y80894*
X8064Y80713*
X80553Y80503*
X80523Y80277*
X80553Y80052*
X8064Y79841*
X80778Y79661*
X80959Y79522*
X81169Y79435*
X81395Y79405*
X8162Y79435*
X81831Y79522*
X82011Y79661*
X8215Y79841*
X82237Y80052*
X82267Y80277*
X82237Y80503*
X8215Y80713*
X82011Y80894*
X81831Y81032*
X8162Y81119*
X81395Y81149*
G37*
G36*
X31114Y91803D02*
X30889Y91774D01*
X30679Y91686*
X30498Y91548*
X3036Y91367*
X30272Y91157*
X30243Y90931*
X30272Y90706*
X3036Y90496*
X30498Y90315*
X30679Y90177*
X30889Y90089*
X31114Y9006*
X3134Y90089*
X3155Y90177*
X31731Y90315*
X31869Y90496*
X31957Y90706*
X31986Y90931*
X31957Y91157*
X31869Y91367*
X31731Y91548*
X3155Y91686*
X3134Y91774*
X31114Y91803*
G37*
G36*
X28574D02*
X28349Y91774D01*
X28139Y91686*
X27958Y91548*
X2782Y91367*
X27732Y91157*
X27703Y90931*
X27732Y90706*
X2782Y90496*
X27958Y90315*
X28139Y90177*
X28349Y90089*
X28574Y9006*
X288Y90089*
X2901Y90177*
X29191Y90315*
X29329Y90496*
X29417Y90706*
X29446Y90931*
X29417Y91157*
X29329Y91367*
X29191Y91548*
X2901Y91686*
X288Y91774*
X28574Y91803*
G37*
G36*
X18505Y90311D02*
X18109Y90273D01*
X17827Y90187*
X17764Y90195*
X1746Y90156*
X17178Y90038*
X16935Y89852*
X16749Y89609*
X16632Y89327*
X16592Y89023*
X166Y8896*
X16515Y88679*
X16476Y88283*
X16515Y87887*
X1663Y87506*
X16818Y87155*
X1707Y86848*
X18418Y855*
Y73865*
X17606Y73054*
X17354Y72746*
X17166Y72396*
X17139Y72307*
X17051Y72015*
X17012Y71619*
Y69433*
X17051Y69037*
X17166Y68657*
X17354Y68306*
X17606Y67998*
X17914Y67746*
X18264Y67558*
X18645Y67443*
X19041Y67404*
X19437Y67443*
X19818Y67558*
X20168Y67746*
X20476Y67998*
X20728Y68306*
X20916Y68657*
X21031Y69037*
X2107Y69433*
Y70779*
X21881Y7159*
X22134Y71897*
X22321Y72248*
X22437Y72629*
X22476Y73024*
Y86341*
X22437Y86737*
X22348Y87029*
X22321Y87117*
X22134Y87468*
X21881Y87776*
X1994Y89717*
X19632Y8997*
X19281Y90157*
X18901Y90273*
X18505Y90311*
G37*
G36*
X33654Y91803D02*
X33429Y91774D01*
X33219Y91686*
X33038Y91548*
X329Y91367*
X32812Y91157*
X32783Y90931*
X32812Y90706*
X329Y90496*
X33038Y90315*
X33219Y90177*
X33429Y90089*
X33654Y9006*
X3388Y90089*
X3409Y90177*
X34271Y90315*
X34409Y90496*
X34497Y90706*
X34526Y90931*
X34497Y91157*
X34409Y91367*
X34271Y91548*
X3409Y91686*
X3388Y91774*
X33654Y91803*
G37*
G36*
X81797Y94039D02*
X81436Y93991D01*
X81099Y93852*
X8081Y9363*
X80588Y93341*
X80449Y93004*
X80401Y92642*
X80449Y92281*
X80588Y91944*
X8081Y91655*
X84582Y87883*
Y86176*
X82494Y84087*
X75523*
X75161Y8404*
X75127Y84026*
X75057Y84131*
X76238Y85312*
X7646Y85601*
X76599Y85938*
X76647Y863*
Y91195*
X76599Y91557*
X7646Y91894*
X76365Y92017*
Y9231*
X76072*
X75949Y92405*
X75612Y92544*
X75251Y92592*
X74889Y92544*
X74552Y92405*
X74429Y9231*
X74136*
Y92017*
X74041Y91894*
X73902Y91557*
X73854Y91195*
Y86878*
X71783Y84807*
X71561Y84518*
X71497Y84363*
X71373Y84388*
Y90488*
X7138Y90497*
X71519Y90834*
X71567Y91195*
X71519Y91557*
X7138Y91894*
X71158Y92183*
X70869Y92405*
X70532Y92544*
X70171Y92592*
X69809Y92544*
X69472Y92405*
X69183Y92183*
X68989Y91989*
X68767Y917*
X68628Y91363*
X6858Y91002*
Y81477*
X65715Y78612*
X61975*
X61614Y78564*
X61277Y78425*
X60988Y78203*
X60766Y77914*
X60627Y77577*
X60579Y77215*
X60627Y76854*
X60766Y76518*
X60988Y76228*
X61277Y76006*
X61614Y75867*
X61975Y75819*
X66293*
X66539Y75852*
X66595Y75738*
X66421Y75564*
X57855*
X5547Y77949*
X55181Y78171*
X54844Y7831*
X54482Y78358*
X54121Y7831*
X53785Y78171*
X53495Y77949*
X53273Y7766*
X53134Y77323*
X53086Y76961*
X53134Y766*
X53273Y76264*
X53495Y75974*
X56289Y7318*
X56578Y72958*
X56915Y72819*
X57276Y72771*
X66999*
X67361Y72819*
X67558Y72901*
X67697Y72958*
X67987Y7318*
X75357Y80551*
X7537Y80545*
X75472Y80495*
X75443Y80277*
X75473Y80052*
X7556Y79841*
X75698Y79661*
X75879Y79522*
X76089Y79435*
X76315Y79405*
X7654Y79435*
X76751Y79522*
X76931Y79661*
X7707Y79841*
X77157Y80052*
X77187Y80277*
X77157Y80503*
X7707Y80713*
X76931Y80894*
X76751Y81032*
X7654Y81119*
X76315Y81149*
X76097Y8112*
X76064Y81187*
X76131Y81295*
X83072*
X83433Y81342*
X8377Y81482*
X84059Y81704*
X86966Y8461*
X87188Y84899*
X87327Y85236*
X87375Y85597*
Y88461*
Y88462*
X87327Y88823*
X87188Y8916*
X86966Y89449*
X82785Y9363*
X82496Y93852*
X82159Y93991*
X81797Y94039*
G37*
G36*
X11321Y83127D02*
X10925Y83088D01*
X10643Y83003*
X1058Y83011*
X10276Y82971*
X09994Y82854*
X09751Y82668*
X09565Y82425*
X09448Y82143*
X09408Y81839*
X09416Y81776*
X0933Y81494*
X09292Y81098*
X0933Y80702*
X09446Y80322*
X09633Y79971*
X09886Y79664*
X1067Y78879*
Y76769*
X07328Y73426*
X07075Y73119*
X06888Y72768*
X06772Y72387*
X06734Y71991*
X06772Y71596*
X06888Y71215*
X07075Y70864*
X07328Y70557*
X07635Y70304*
X07986Y70117*
X08367Y70001*
X08762Y69963*
X09158Y70001*
X09539Y70117*
X0989Y70304*
X10197Y70557*
X14134Y74494*
X14387Y74801*
X14487Y74989*
X14574Y75152*
X1469Y75533*
X14729Y75928*
Y79719*
X1469Y80115*
X14574Y80496*
X14487Y80659*
X14387Y80847*
X14134Y81154*
X12755Y82533*
X12448Y82785*
X12097Y82973*
X11717Y83088*
X11321Y83127*
G37*
G36*
X5505Y87238D02*
X54689Y8719D01*
X54352Y87051*
X54063Y86829*
X53841Y8654*
X53702Y86203*
X53695Y86149*
X52126Y84581*
X48126*
X45878Y86829*
X45589Y87051*
X45252Y8719*
X4489Y87238*
X44529Y8719*
X44192Y87051*
X43903Y86829*
X43681Y8654*
X43542Y86203*
X43494Y85842*
X43542Y8548*
X43681Y85143*
X43903Y84854*
X4656Y82197*
X46849Y81975*
X47018Y81906*
X47186Y81836*
X47548Y81788*
X52704*
X53066Y81836*
X53402Y81975*
X53692Y82197*
X56038Y84543*
X5626Y84832*
X56399Y85169*
X56447Y8553*
Y85842*
X56399Y86203*
X5626Y8654*
X56038Y86829*
X55749Y87051*
X55412Y8719*
X5505Y87238*
G37*
G36*
X91566Y88183D02*
X91211Y88148D01*
X90869Y88044*
X90554Y87875*
X90277Y87649*
X90051Y87372*
X89882Y87057*
X89778Y86715*
X89744Y86359*
X89778Y86004*
X89882Y85662*
X90051Y85347*
X90277Y8507*
X90554Y84844*
X90869Y84675*
X91211Y84571*
X91566Y84536*
X91922Y84571*
X92264Y84675*
X92579Y84844*
X92856Y8507*
X93082Y85347*
X93251Y85662*
X93355Y86004*
X93389Y86359*
X93355Y86715*
X93251Y87057*
X93082Y87372*
X92856Y87649*
X92579Y87875*
X92264Y88044*
X91922Y88148*
X91566Y88183*
G37*
G36*
X89879Y76062D02*
X8815D01*
Y74333*
X89879*
Y76062*
G37*
G36*
X42417Y51225D02*
X42209Y51198D01*
X42014Y51118*
X41847Y50989*
X41719Y50822*
X41638Y50627*
X41611Y50418*
X41638Y5021*
X41719Y50015*
X41847Y49848*
X42014Y49719*
X42209Y49639*
X42417Y49612*
X42626Y49639*
X42663Y49654*
X42821Y49719*
X42988Y49848*
X43117Y50015*
X43197Y5021*
X43224Y50418*
X43197Y50627*
X43117Y50822*
X42988Y50989*
X42821Y51118*
X42626Y51198*
X42417Y51225*
G37*
G36*
X39877D02*
X39669Y51198D01*
X39474Y51118*
X39307Y50989*
X39178Y50822*
X39098Y50627*
X39071Y50418*
X39098Y5021*
X39178Y50015*
X39307Y49848*
X39474Y49719*
X39669Y49639*
X39877Y49612*
X40086Y49639*
X40123Y49654*
X40281Y49719*
X40448Y49848*
X40577Y50015*
X40657Y5021*
X40684Y50418*
X40657Y50627*
X40577Y50822*
X40448Y50989*
X40281Y51118*
X40086Y51198*
X39877Y51225*
G37*
G36*
X08534Y52472D02*
X06705D01*
X06437Y52437*
X06186Y52333*
X05972Y52168*
X05806Y51953*
X05703Y51703*
X05668Y51434*
X05703Y51166*
X05806Y50916*
X05972Y50701*
X06186Y50536*
X06437Y50432*
X06705Y50397*
X08534*
X08802Y50432*
X09053Y50536*
X09268Y50701*
X09433Y50916*
X09536Y51166*
X09571Y51434*
X09536Y51703*
X09433Y51953*
X09268Y52168*
X09053Y52333*
X08802Y52437*
X08534Y52472*
G37*
G36*
X52577Y51225D02*
X52369Y51198D01*
X52174Y51118*
X52007Y50989*
X51878Y50822*
X51798Y50627*
X51771Y50418*
X51798Y5021*
X51878Y50015*
X52007Y49848*
X52174Y49719*
X52369Y49639*
X52577Y49612*
X52786Y49639*
X52823Y49654*
X52981Y49719*
X53148Y49848*
X53277Y50015*
X53357Y5021*
X53384Y50418*
X53357Y50627*
X53277Y50822*
X53148Y50989*
X52981Y51118*
X52786Y51198*
X52577Y51225*
G37*
G36*
X75437D02*
X75229Y51198D01*
X75034Y51118*
X74867Y50989*
X74739Y50822*
X74658Y50627*
X74631Y50418*
X74658Y5021*
X74739Y50015*
X74867Y49848*
X75034Y49719*
X75191Y49654*
Y49229*
X75139Y49193*
X75047Y49056*
X75015Y48894*
X75047Y48733*
X75139Y48596*
X75276Y48504*
X75437Y48472*
X75599Y48504*
X75736Y48596*
X75828Y48733*
X7586Y48894*
X75828Y49056*
X75736Y49193*
X75684Y49229*
Y49654*
X75841Y49719*
X76008Y49848*
X76137Y50015*
X76217Y5021*
X76244Y50418*
X76217Y50627*
X76137Y50822*
X76008Y50989*
X75841Y51118*
X75646Y51198*
X75437Y51225*
G37*
G36*
X55117D02*
X54909Y51198D01*
X54714Y51118*
X54547Y50989*
X54418Y50822*
X54338Y50627*
X54311Y50418*
X54338Y5021*
X54418Y50015*
X54547Y49848*
X54714Y49719*
X54871Y49654*
Y49529*
Y49229*
X54819Y49193*
X54727Y49056*
X54695Y48894*
X54727Y48733*
X54819Y48596*
X54956Y48504*
X55117Y48472*
X55279Y48504*
X55416Y48596*
X55508Y48733*
X5554Y48894*
X55508Y49056*
X55416Y49193*
X55364Y49229*
Y49529*
Y49654*
X55521Y49719*
X55688Y49848*
X55817Y50015*
X55897Y5021*
X55924Y50418*
X55897Y50627*
X55817Y50822*
X55688Y50989*
X55521Y51118*
X55326Y51198*
X55117Y51225*
G37*
G36*
X32257D02*
X32049Y51198D01*
X31854Y51118*
X31687Y50989*
X31559Y50822*
X31478Y50627*
X31451Y50418*
X31478Y5021*
X31559Y50015*
X31687Y49848*
X31854Y49719*
X32049Y49639*
X32257Y49612*
X32466Y49639*
X32503Y49654*
X32661Y49719*
X32828Y49848*
X32957Y50015*
X33037Y5021*
X33064Y50418*
X33037Y50627*
X32957Y50822*
X32828Y50989*
X32661Y51118*
X32466Y51198*
X32257Y51225*
G37*
G36*
X29717D02*
X29509Y51198D01*
X29314Y51118*
X29147Y50989*
X29019Y50822*
X28938Y50627*
X28911Y50418*
X28938Y5021*
X29019Y50015*
X29147Y49848*
X29314Y49719*
X29509Y49639*
X29717Y49612*
X29926Y49639*
X29963Y49654*
X30121Y49719*
X30288Y49848*
X30417Y50015*
X30497Y5021*
X30524Y50418*
X30497Y50627*
X30417Y50822*
X30288Y50989*
X30121Y51118*
X29926Y51198*
X29717Y51225*
G37*
G36*
X23113Y70682D02*
X22898Y70654D01*
X22697Y70571*
X22525Y70438*
X22392Y70266*
X22309Y70065*
X22281Y69849*
X22309Y69634*
X22392Y69433*
X22525Y69261*
X22697Y69128*
X22898Y69045*
X23113Y69017*
X23329Y69045*
X2353Y69128*
X23702Y69261*
X23835Y69433*
X23918Y69634*
X23946Y69849*
X23918Y70065*
X23835Y70266*
X23702Y70438*
X2353Y70571*
X23329Y70654*
X23113Y70682*
G37*
G36*
X14477Y71572D02*
X14141Y71539D01*
X13818Y71441*
X1352Y71282*
X13259Y71068*
X13045Y70807*
X12886Y70509*
X12788Y70186*
X12755Y69849*
X12788Y69513*
X12886Y6919*
X13045Y68892*
X13259Y68631*
X1352Y68417*
X13818Y68258*
X14141Y6816*
X14477Y68127*
X14814Y6816*
X15137Y68258*
X15435Y68417*
X15696Y68631*
X1591Y68892*
X16069Y6919*
X16167Y69513*
X162Y69849*
X16167Y70186*
X16069Y70509*
X1591Y70807*
X15696Y71068*
X15435Y71282*
X15137Y71441*
X14814Y71539*
X14477Y71572*
G37*
G36*
X87339Y76062D02*
X8561D01*
Y74333*
X87339*
Y76062*
G37*
G36*
X82259D02*
X8053D01*
Y74333*
X81875*
X82487Y73721*
X82575Y73662*
X82679Y73641*
X86374*
X87594Y72421*
X87588Y72389*
X8762Y72228*
X87712Y72091*
X87849Y71999*
X8801Y71967*
X88172Y71999*
X88309Y72091*
X88401Y72228*
X88433Y72389*
X88401Y72551*
X88309Y72688*
X88172Y7278*
X8801Y72812*
X87979Y72806*
X86679Y74106*
X86591Y74165*
X86486Y74186*
X82791*
X82259Y74718*
Y76062*
G37*
G36*
X53212Y54651D02*
X53051Y54619D01*
X52914Y54527*
X52822Y5439*
X5279Y54228*
X52822Y54067*
X52914Y5393*
X52966Y53895*
Y53568*
X5137Y51971*
X51307Y51984*
X51146Y51952*
X51009Y5186*
X50917Y51723*
X50885Y51561*
X50917Y514*
X50971Y51319*
X50639Y50987*
X50608Y50989*
X50441Y51118*
X50246Y51198*
X50037Y51225*
X49829Y51198*
X49634Y51118*
X49467Y50989*
X49338Y50822*
X49258Y50627*
X49231Y50418*
X49258Y5021*
X49338Y50015*
X49467Y49848*
X49634Y49719*
X49829Y49639*
X50037Y49612*
X50246Y49639*
X50283Y49654*
X50441Y49719*
X50608Y49848*
X50737Y50015*
X50817Y5021*
X50844Y50418*
X50836Y50488*
X51481Y51134*
X51535Y51213*
X51535Y51215*
X51606Y51263*
X51698Y514*
X5173Y51561*
X51717Y51624*
X53386Y53293*
X5344Y53372*
X53459Y53466*
Y53895*
X53511Y5393*
X53603Y54067*
X53635Y54228*
X53603Y5439*
X53511Y54527*
X53374Y54619*
X53212Y54651*
G37*
G36*
X64769Y52492D02*
X64608Y5246D01*
X64471Y52368*
X64379Y52231*
X64347Y52069*
X64379Y51908*
X64433Y51827*
X64198Y51592*
X58585*
X5849Y51573*
X58411Y5152*
X58024Y51133*
X57866Y51198*
X57657Y51225*
X57449Y51198*
X57254Y51118*
X57087Y50989*
X56959Y50822*
X56878Y50627*
X56851Y50418*
X56878Y5021*
X56959Y50015*
X57087Y49848*
X57254Y49719*
X57449Y49639*
X57657Y49612*
X57866Y49639*
X58061Y49719*
X58228Y49848*
X58357Y50015*
X58437Y5021*
X58464Y50418*
X58437Y50627*
X58372Y50785*
X58686Y51099*
X59568*
X59624Y50986*
X59498Y50822*
X59418Y50627*
X59391Y50418*
X59418Y5021*
X59498Y50015*
X59627Y49848*
X59794Y49719*
X59989Y49639*
X60197Y49612*
X60406Y49639*
X60601Y49719*
X60768Y49848*
X60897Y50015*
X60977Y5021*
X61004Y50418*
X60977Y50627*
X60897Y50822*
X60771Y50986*
X60827Y51099*
X62108*
X62164Y50986*
X62039Y50822*
X61958Y50627*
X61931Y50418*
X61958Y5021*
X62039Y50015*
X62167Y49848*
X62334Y49719*
X62529Y49639*
X62737Y49612*
X62946Y49639*
X63141Y49719*
X63308Y49848*
X63437Y50015*
X63517Y5021*
X63544Y50418*
X63517Y50627*
X63437Y50822*
X63311Y50986*
X63367Y51099*
X643*
X64394Y51118*
X64474Y51172*
X64943Y51642*
X64997Y51721*
X64997Y51723*
X65068Y51771*
X6516Y51908*
X65192Y52069*
X6516Y52231*
X65068Y52368*
X64931Y5246*
X64769Y52492*
G37*
G36*
X50545Y54651D02*
X50384Y54619D01*
X50247Y54527*
X50155Y5439*
X50123Y54228*
X50155Y54067*
X50247Y5393*
X50384Y53838*
X50545Y53806*
X50707Y53838*
X50844Y5393*
X50936Y54067*
X50968Y54228*
X50936Y5439*
X50844Y54527*
X50707Y54619*
X50545Y54651*
G37*
G36*
X48259Y54397D02*
X48098Y54365D01*
X47961Y54273*
X47869Y54136*
X47837Y53974*
X47843Y53943*
X46475Y52574*
X46416Y52486*
X46395Y52382*
Y52125*
X46283Y52065*
X46262Y52079*
X461Y52111*
X45939Y52079*
X45802Y51987*
X4571Y5185*
X45678Y51688*
X4571Y51527*
X45713Y51522*
X45324Y51133*
X45166Y51198*
X44957Y51225*
X44749Y51198*
X44554Y51118*
X44387Y50989*
X44259Y50822*
X44178Y50627*
X44151Y50418*
X44178Y5021*
X44259Y50015*
X44387Y49848*
X44554Y49719*
X44749Y49639*
X44957Y49612*
X45166Y49639*
X45361Y49719*
X45528Y49848*
X45657Y50015*
X45737Y5021*
X45764Y50418*
X45737Y50627*
X45672Y50785*
X46166Y51279*
X46262Y51298*
X46283Y51312*
X46395Y51252*
Y51048*
X46035Y50688*
X45976Y506*
X45956Y50495*
Y48322*
X45929Y48304*
X45837Y48167*
X45805Y48005*
X45837Y47844*
X45929Y47707*
X46066Y47615*
X46227Y47583*
X46389Y47615*
X46526Y47707*
X46618Y47844*
X4665Y48005*
X46618Y48167*
X46526Y48304*
X465Y48322*
Y5037*
X46603Y50444*
X46691Y50413*
X46718Y5021*
X46798Y50015*
X46927Y49848*
X47094Y49719*
X47289Y49639*
X47497Y49612*
X47706Y49639*
X47743Y49654*
X47901Y49719*
X48068Y49848*
X48197Y50015*
X48277Y5021*
X48304Y50418*
X48281Y506*
X48833Y51152*
X48929Y51171*
X49066Y51263*
X49158Y514*
X4919Y51561*
X49158Y51723*
X49066Y5186*
X48929Y51952*
X48767Y51984*
X48606Y51952*
X48469Y5186*
X48377Y51723*
X48345Y51561*
X48377Y514*
X4838Y51395*
X48015Y5103*
X47901Y51118*
X47706Y51198*
X47497Y51225*
X47289Y51198*
X47094Y51118*
X47053Y51086*
X46939Y51142*
Y5227*
X48228Y53558*
X48259Y53552*
X48421Y53584*
X48558Y53676*
X4865Y53813*
X48682Y53974*
X4865Y54136*
X48558Y54273*
X48421Y54365*
X48259Y54397*
G37*
%LNramps_tmc-3*%
%LPD*%
G54D10*
X16521Y32892D03*
X18022D03*
X16521Y31114D03*
X18022D03*
G54D14*
X75251Y91195D03*
X4997Y85842D03*
X3981D03*
X60257D03*
G54D15*
X81797Y87562D03*
X08762Y60342D03*
X08137Y18855D03*
G54D17*
X22732Y43041D03*
Y4154D03*
X2578Y38619D03*
Y4012D03*
G54D31*
X72008Y03644D02*
Y05587D01*
X69976Y07619D02*
X72008Y05587D01*
X67198Y07619D02*
X69976D01*
X64163Y04584D02*
X67198Y07619D01*
X62431Y04584D02*
X64163D01*
X6134Y05675D02*
X62431Y04584D01*
X6134Y05675D02*
Y05714D01*
X52154Y73278D02*
Y77124D01*
Y73278D02*
X5245D01*
X49656Y79621D02*
Y81406D01*
Y79621D02*
X52154Y77124D01*
X45973Y76199D02*
Y79374D01*
Y76199D02*
X46862Y7531D01*
X95122Y38353D02*
X95376Y38099D01*
X9478Y49021D02*
Y52941D01*
X94754Y29463D02*
Y35178D01*
X95135Y35559*
X96138*
X969Y36321*
Y37337*
X96138Y38099D02*
X969Y37337D01*
X95376Y38099D02*
X96138D01*
X89407Y43687D02*
X91185Y45465D01*
X64134Y68452D02*
X96138D01*
X62737Y69849D02*
X64134Y68452D01*
X9436Y15239D02*
Y17779D01*
X94868Y18287*
X98551*
X99453Y19189*
Y22979*
X99314Y23118D02*
X99453Y22979D01*
X98613Y71412D02*
X99314Y7071D01*
X62917Y71412D02*
X98613D01*
X99314Y23118D02*
Y7071D01*
X60197Y69849D02*
X61354D01*
X72897D02*
X7404Y70992D01*
X97154*
X98297Y69849*
X96735Y68872D02*
X98297Y67309D01*
X76415Y68872D02*
X96735D01*
X75437Y69849D02*
X76415Y68872D01*
X34378Y70658D02*
X35005Y71285D01*
X34378Y69388D02*
Y70658D01*
X3255Y67559D02*
X34378Y69388D01*
X31618Y67559D02*
X3255D01*
X30259Y662D02*
X31618Y67559D01*
X34797Y70484D02*
X35178Y70865D01*
X30645Y65781D02*
X32003Y6714D01*
X34797Y69214D02*
Y70484D01*
X32723Y6714D02*
X34797Y69214D01*
X32003Y6714D02*
X32723D01*
X28998Y65362D02*
X31448D01*
X35813Y69849D02*
X35814Y69849D01*
Y66449D02*
Y69849D01*
X35658Y66293D02*
X35814Y66449D01*
X33406Y66293D02*
X35658D01*
X33266Y66433D02*
X33406Y66293D01*
X32519Y66433D02*
X33266D01*
X31448Y65362D02*
X32519Y66433D01*
X35178Y70865D02*
X37337D01*
X97027Y73659D02*
Y73786D01*
Y73659D02*
X97662Y73024D01*
X66547Y2324D02*
X66674D01*
X64769Y18414D02*
X66674Y20319D01*
X60324Y18414D02*
X64769D01*
X57149Y15239D02*
X60324Y18414D01*
X57149Y14858D02*
Y15239D01*
Y12318D02*
X58292Y13461D01*
Y15493*
X60451Y17652*
X61848*
X19557Y41059D02*
X27216D01*
X21462Y40639D02*
X27389D01*
X18541Y40512D02*
X186Y40454D01*
X21277*
X21462Y40639*
X37337Y70865D02*
X38353Y69849D01*
X28824Y65781D02*
X30645D01*
X27812Y64769D02*
X28824Y65781D01*
X28232Y41482D02*
Y64596D01*
X27389Y40639D02*
X28232Y41482D01*
Y64596D02*
X28998Y65362D01*
X27812Y41655D02*
Y64769D01*
X27216Y41059D02*
X27812Y41655D01*
X93217Y54503D02*
Y54609D01*
Y54503D02*
X9478Y52941D01*
X37591Y29463D02*
X37972Y29844D01*
X37591Y27939D02*
Y29463D01*
X59181Y29209D02*
Y29463D01*
X57911Y27939D02*
X59181Y29209D01*
X46227Y50495D02*
X46667Y50935D01*
X46227Y48005D02*
Y50495D01*
X46667Y50935D02*
Y52382D01*
X48259Y53974*
X72008Y11175D02*
X8801D01*
X70738Y09905D02*
X72008Y11175D01*
X66039Y11556D02*
X6769Y09905D01*
X70738*
X64769Y07619D02*
Y12318D01*
X64134Y06984D02*
X64769Y07619D01*
Y12318D02*
X66293Y13842D01*
Y13997*
X66293Y13998D02*
X66293Y13997D01*
X66293Y13998D02*
Y16763D01*
X45211Y12318D02*
Y13421D01*
X46228Y14437*
Y18542*
X47878Y20192*
X5626*
X57657Y21589*
X58381Y19773D02*
X60197Y21589D01*
X48052Y19773D02*
X58381D01*
X46647Y18369D02*
X48052Y19773D01*
X46647Y13423D02*
Y18369D01*
Y13423D02*
X47751Y12318D01*
X39458Y71285D02*
X40893Y69849D01*
X35005Y71285D02*
X39458D01*
X51421Y69849D02*
X52577D01*
X78855Y74766D02*
Y75197D01*
X57657Y69849D02*
X59639Y71831D01*
X55117Y69849D02*
X5753Y72262D01*
X61354Y69849D02*
X62917Y71412D01*
X52958Y6769D02*
X55117Y69849D01*
X27393Y65019D02*
X28574Y662D01*
X27393Y63588D02*
Y65019D01*
X2705Y63245D02*
X27393Y63588D01*
X25653Y63245D02*
X2705D01*
X23875Y65023D02*
X25653Y63245D01*
X28574Y662D02*
X30259D01*
X14858Y63499D02*
X16382Y65023D01*
X23875*
X14731Y45719D02*
X14858Y45592D01*
Y63499*
X19684Y36067D02*
X20954D01*
X1689Y38861D02*
X19684Y36067D01*
X18022Y32892D02*
X18911Y33781D01*
X20192*
X35305Y25653D02*
X37337Y23621D01*
Y21589D02*
Y23621D01*
X18022Y30087D02*
Y31114D01*
X1181Y23875D02*
X18022Y30087D01*
X11556Y23875D02*
X1181D01*
X31114Y88391D02*
X31483D01*
X86486Y73913D02*
X8801Y72389D01*
X76315Y73902D02*
Y75197D01*
X74675Y72262D02*
X76315Y73902D01*
X5753Y72262D02*
X74675D01*
X75488Y71831D02*
X78855Y75197D01*
X59639Y71831D02*
X75488D01*
X66293Y16763D02*
X69595Y20065D01*
X73913*
X75437Y21589*
X66674Y20319D02*
Y2324D01*
X26034Y86867D02*
Y88391D01*
X28574D02*
X28613Y88353D01*
X29032Y86309D02*
X31114Y88391D01*
X48042Y73228D02*
X51421Y69849D01*
X44957Y72389D02*
X47497Y69849D01*
X47078Y72809D02*
X50037Y69849D01*
X28587Y75171D02*
X31368Y72389D01*
X44957*
X29006Y75344D02*
X31542Y72809D01*
X29425Y75518D02*
X31716Y73228D01*
X29006Y84844D02*
X29032Y84869D01*
Y86309*
X28587Y75171D02*
Y85018D01*
X28613Y85043*
X29425Y75518D02*
Y8467D01*
X31716Y73228D02*
X48042D01*
X31542Y72809D02*
X47078D01*
X29006Y75344D02*
Y84844D01*
X28613Y85043D02*
Y88353D01*
X32384Y69849D02*
X33273D01*
X2705Y75183D02*
X32384Y69849D01*
X2705Y75183D02*
Y85851D01*
X26034Y86867D02*
X2705Y85851D01*
X82679Y73913D02*
X86486D01*
X81395Y75197D02*
X82679Y73913D01*
G54D32*
X68071Y06603D02*
Y0673D01*
X65531Y04063D02*
X68071Y06603D01*
X6134Y04063D02*
X65531D01*
X5821Y07194D02*
X6134Y04063D01*
X56133Y07194D02*
X5821D01*
X54464Y06349D02*
X55289D01*
X56133Y07194*
Y09778*
X53847Y12064D02*
X56133Y09778D01*
X97281Y78866D02*
X98424Y77723D01*
Y76765D02*
Y77723D01*
X97027Y75368D02*
X98424Y76765D01*
X84835Y12699D02*
X88772D01*
X73786Y49529D02*
X74294Y50037D01*
Y52577D02*
Y5499D01*
Y50037D02*
Y52577D01*
X96265Y12699D02*
X97179Y13613D01*
Y14433*
X98297Y15551*
Y16509*
Y41909D02*
Y42417D01*
X96265Y44449D02*
X98297Y42417D01*
X95757Y44449D02*
X96265D01*
X95757Y72516D02*
X97027Y73786D01*
Y75368*
X93217Y69849D02*
Y69976D01*
X76707Y15239D02*
X77977Y16509D01*
X74167Y15239D02*
X76707D01*
X72897Y16509D02*
X74167Y15239D01*
X8547Y14096D02*
X87502D01*
X83057Y16509D02*
X8547Y14096D01*
X81914Y17652D02*
X83057Y16509D01*
X65277Y63118D02*
X66801Y64642D01*
X73786Y55498D02*
X74294Y5499D01*
X89015Y80277D02*
X89434Y79858D01*
X95122Y78866D02*
X97281D01*
X89015Y77737D02*
X89139Y77613D01*
X89015Y77737D02*
X93077D01*
X95757Y75056*
X89015Y80277D02*
X93712D01*
X95122Y78866*
X77977Y16509D02*
X7912Y17652D01*
X81914*
G54D33*
X53085Y0546D02*
X56322D01*
X5683Y05968*
X13715Y04444D02*
X16763Y07492D01*
X30479*
X26669Y09397D02*
Y16636D01*
Y09397D02*
X26796Y0927D01*
X51942Y06603D02*
X53085Y0546D01*
X42798Y03682D02*
X43179D01*
X44449Y04952*
X40639Y07492D02*
X44576D01*
Y10286*
X51942Y05968D02*
Y06603D01*
X48894Y0292D02*
X51942Y05968D01*
X45592Y0292D02*
X48894D01*
X48767Y07492D02*
X55244D01*
X59054Y07619D02*
Y10032D01*
X89661Y72643D02*
X93471D01*
X14731Y32892D02*
X16521D01*
X14223Y334D02*
X14731Y32892D01*
X16521Y31114D02*
Y32892D01*
X41147Y05206D02*
X49529D01*
X39242Y07111D02*
X41147Y05206D01*
X34924Y03936D02*
Y05587D01*
Y03936D02*
X36956Y01904D01*
Y01396D02*
Y01904D01*
X13715Y04444D02*
X13842Y04317D01*
X34162Y19938D02*
X3467Y1943D01*
X29971Y19938D02*
X34162D01*
X26669Y16636D02*
X29971Y19938D01*
X30479Y07492D02*
Y10794D01*
X3086Y07111D02*
X39242D01*
X30479Y07492D02*
X3086Y07111D01*
X29336Y16509D02*
X33654D01*
X35305Y14858*
X10015Y61594D02*
X11683D01*
X08762Y60342D02*
X10015Y61594D01*
G54D34*
X65899Y16926D02*
X70357Y21384D01*
Y26669*
X90874Y30422D02*
X91185Y30733D01*
X90874Y29336D02*
Y30422D01*
X89477Y27939D02*
X90874Y29336D01*
X88391Y27939D02*
X89477D01*
X94423Y44983D02*
X9521Y4577D01*
X89788Y29717D02*
Y38861D01*
X91566Y40639*
X93598*
X94423Y41464*
Y44983*
X94792Y4483D02*
X95363Y45402D01*
X94792Y38684D02*
X95122Y38353D01*
X94792Y38684D02*
Y4483D01*
X9478Y45885D02*
Y49021D01*
X9436Y45465D02*
X9478Y45885D01*
X91185Y45465D02*
X9436D01*
X9521Y4577D02*
X96049D01*
X9671Y46431*
Y65164*
X96163Y65711D02*
X9671Y65164D01*
X96163Y65711D02*
Y66027D01*
X96202Y45402D02*
X97281Y46481D01*
X95363Y45402D02*
X96202D01*
X97281Y46481D02*
Y6731D01*
X96138Y68452D02*
X97281Y6731D01*
X47751Y14858D02*
X55244D01*
X6115Y20764*
Y22288*
X62229Y23367*
X91312Y2451D02*
Y25145D01*
X92062Y23863D02*
X93598Y25399D01*
X9055Y23863D02*
X92062D01*
X90042Y24371D02*
X9055Y23863D01*
X90042Y24371D02*
Y24637D01*
X93459Y23494D02*
X94221Y24256D01*
X94995*
X90042Y23494D02*
X93459D01*
X89407Y24129D02*
X90042Y23494D01*
X91312Y25145D02*
X91554Y25387D01*
Y26504*
X92748Y27698*
X93574*
X94729Y28853*
Y29438*
X94754Y29463*
X90677Y25272D02*
X91185Y2578D01*
X92595Y28066D02*
X93421D01*
X91185Y2578D02*
Y26657D01*
X92595Y28066*
X9055Y26288D02*
Y26542D01*
X91243Y29775D02*
X93217Y31749D01*
X91243Y28078D02*
Y29775D01*
X90665Y34416D02*
X93078Y36829D01*
X90423Y30987D02*
X9055D01*
X90665Y31102*
Y34416*
X91185D02*
X916Y34831D01*
X91185Y30733D02*
Y34416D01*
X70611Y27939D02*
X72897Y25653D01*
Y21589D02*
Y25653D01*
X92074Y15112D02*
X93217Y13969D01*
X90423Y15112D02*
X92074D01*
X89661Y15874D02*
X90423Y15112D01*
X89661Y15874D02*
Y17017D01*
X93598Y20954*
Y22732*
X94106Y2324*
X97281Y30606D02*
X97408Y30479D01*
X97281Y30606D02*
Y32765D01*
X95757Y34289D02*
X97281Y32765D01*
X93421Y28066D02*
X9436Y29006D01*
Y36067*
X9055Y26542D02*
X93217Y29209D01*
X97027Y40639D02*
Y4229D01*
X96138Y43179D02*
X97027Y4229D01*
X95757Y39369D02*
X97027Y40639D01*
X73151Y27939D02*
Y32511D01*
X75691Y27939D02*
Y32511D01*
X78231Y27939D02*
Y32511D01*
X89661Y45719D02*
X90931Y46989D01*
X9055Y38226D02*
X9436D01*
X89395Y47231D02*
X89661Y47497D01*
X91058Y48005D02*
X92582D01*
X89915Y46862D02*
X91058Y48005D01*
X90931Y46989D02*
X93217D01*
X41062Y27558D02*
X41401D01*
X40516Y27012D02*
X41062Y27558D01*
X32511Y27939D02*
X33439Y27012D01*
X40516*
X45211Y27939D02*
X50037Y23113D01*
Y21589D02*
Y23113D01*
X52577Y21589D02*
Y23113D01*
X47751Y27939D02*
X52577Y23113D01*
X50291Y27939D02*
X55117Y23113D01*
Y21589D02*
Y23113D01*
X60451Y2699D02*
X6097Y26471D01*
X60451Y2699D02*
Y27939D01*
X79755Y29336D02*
X80517Y30098D01*
X79755Y26034D02*
Y29336D01*
X77977Y24256D02*
X79755Y26034D01*
X77977Y21589D02*
Y24256D01*
X67817Y21589D02*
X68071Y21843D01*
Y27939*
X65277Y21589D02*
X65531Y21843D01*
Y27939*
X80771D02*
X83311D01*
X93078Y36829D02*
X93217D01*
X92676Y34831D02*
X93217Y34289D01*
X916Y34831D02*
X92676D01*
X51307Y51561D02*
X53212Y53466D01*
Y54228*
X70992Y55371D02*
X71627Y54736D01*
Y51561D02*
Y54736D01*
X9436Y38226D02*
X95757Y36829D01*
X37337Y48386D02*
Y50418D01*
X48767Y51434D02*
Y51561D01*
X47751Y50418D02*
X48767Y51434D01*
X47497Y50418D02*
X47751D01*
X461Y51561D02*
Y51688D01*
X44957Y50418D02*
X461Y51561D01*
X51307Y51307D02*
Y51561D01*
X50418Y50418D02*
X51307Y51307D01*
X50037Y50418D02*
X50418D01*
X94106Y461D02*
X94233Y46227D01*
Y50164*
X93471Y50926D02*
X94233Y50164D01*
X64769Y51815D02*
Y52069D01*
X643Y51346D02*
X64769Y51815D01*
X58585Y51346D02*
X643D01*
X57657Y50418D02*
X58585Y51346D01*
X65277Y50418D02*
X66962Y52103D01*
X70705*
X70738Y52069*
X68071Y50418D02*
X69214Y51561D01*
X67817Y50418D02*
X68071D01*
X71627Y51434D02*
Y51561D01*
X70611Y50418D02*
X71627Y51434D01*
X70357Y50418D02*
X70611D01*
X67817D02*
Y50926D01*
X77977Y50418D02*
X79Y49396D01*
X75437Y48894D02*
Y50418D01*
X55117Y48894D02*
Y50418D01*
X34797Y48894D02*
Y50418D01*
X92201Y32765D02*
Y33781D01*
X91947Y34035D02*
Y34289D01*
Y34035D02*
X92201Y33781D01*
Y32765D02*
X93217Y31749D01*
X65899Y14337D02*
Y16926D01*
X65023Y13461D02*
X65899Y14337D01*
X64388Y13461D02*
X65023D01*
X63499Y12572D02*
X64388Y13461D01*
X63499Y05841D02*
Y12572D01*
X62864Y05206D02*
X63499Y05841D01*
X6261Y05206D02*
X62864D01*
X53225Y66027D02*
X96163D01*
X52196Y67055D02*
X53225Y66027D01*
X52196Y67055D02*
Y69468D01*
X52577Y69849*
X26669Y64134D02*
Y68325D01*
X28193Y69849*
X27431Y66801D02*
X29463Y68833D01*
Y70738*
X2832Y71881D02*
X29463Y70738D01*
X26161Y71881D02*
X2832D01*
X79Y49396D02*
X82429D01*
X84962Y46862*
X89915*
X85597Y47878D02*
Y50418D01*
Y47878D02*
X86245Y47231D01*
X89395*
X86232Y48513D02*
X88137Y50418D01*
X86232Y48132D02*
Y48513D01*
X87756Y43687D02*
Y46227D01*
Y43687D02*
X8942Y42024D01*
Y31635D02*
Y42024D01*
X88264Y30479D02*
X8942Y31635D01*
X79374Y2451D02*
X82041Y27177D01*
X79374Y22224D02*
Y2451D01*
X29425Y8467D02*
X33146Y88391D01*
X33654*
X91566Y52704D02*
X92265Y52006D01*
Y51498D02*
Y52006D01*
Y51498D02*
X92836Y50926D01*
X93471*
X89788Y50418D02*
Y54228D01*
X90677Y55117*
X87375Y48005D02*
X89788Y50418D01*
X90804Y49148D02*
Y54479D01*
X91219Y54893*
Y64863*
X90423Y65658D02*
X91219Y64863D01*
X50545Y65658D02*
X90423D01*
X4737Y68833D02*
X50545Y65658D01*
X44195Y68833D02*
X4737D01*
X42544Y70484D02*
X44195Y68833D01*
X41605Y70484D02*
X42544D01*
X40412Y71678D02*
X41605Y70484D01*
X33464Y71996D02*
X33781Y71678D01*
X31205Y71996D02*
X33464D01*
X28066Y75135D02*
X31205Y71996D01*
X33781Y71678D02*
X40412D01*
X27812Y82377D02*
X28066Y82631D01*
Y75135D02*
Y82631D01*
G54D35*
X18505Y88283D02*
X20446Y86341D01*
X19041Y69433D02*
Y71619D01*
X20446Y73024*
Y86341*
X11321Y81098D02*
X12699Y79719D01*
Y75928D02*
Y79719D01*
X08762Y71991D02*
X12699Y75928D01*
X07619Y56514D02*
X10921D01*
X12458Y58051*
Y59344*
G54D36*
X70865Y18414D02*
X75945D01*
X88772Y12699D02*
Y15874D01*
Y12318D02*
Y12699D01*
X96265Y12318D02*
X96392Y12445D01*
X88772Y12318D02*
X96265D01*
X842Y20446D02*
X88772Y15874D01*
X81787Y22478D02*
Y24002D01*
X84581Y26796*
Y32384D02*
X85851Y33654D01*
X84581Y29463D02*
Y32384D01*
X80644Y32638D02*
X84835D01*
X78231Y35051D02*
X80644Y32638D01*
X73151Y35051D02*
X75691D01*
X78231*
X85851Y33654D02*
Y40639D01*
X842Y4229D02*
X85851Y40639D01*
X74548Y4229D02*
X842D01*
X71119Y45719D02*
X74548Y4229D01*
X71119Y45719D02*
Y48132D01*
X73532D02*
X74358Y48958D01*
X71119Y48132D02*
X73532D01*
X74294Y52577D02*
X76199D01*
X85597Y61975*
Y63118*
X66801Y64642D02*
X84073D01*
X46481D02*
X66801D01*
X84073D02*
X85597Y63118D01*
X44957D02*
X46481Y64642D01*
X43433D02*
X44957Y63118D01*
X33781Y64642D02*
X43433D01*
X32892Y65531D02*
X33781Y64642D01*
X90677Y16509D02*
X93408Y1924D01*
X97599*
X98551Y20192*
Y22605*
X95757Y25399D02*
X98551Y22605D01*
X95757Y25399D02*
Y26669D01*
X98297Y29209*
X93217Y26669D02*
X95757D01*
X67309Y14858D02*
X69468Y12699D01*
X40131Y14858D02*
Y18795D01*
Y12318D02*
Y14858D01*
X69468Y10921D02*
Y12699D01*
X37337Y21589D02*
X40131Y18795D01*
X42417Y21589D02*
X42671Y21335D01*
Y14858D02*
Y21335D01*
X67309Y14858D02*
X70865Y18414D01*
X3981Y78672D02*
Y85842D01*
X75945Y18414D02*
X76326Y18795D01*
X8039*
X8166Y20065*
X62534Y88645D02*
X65337Y85842D01*
X36829Y75691D02*
X3981Y78672D01*
X37845Y87375D02*
X39115Y88645D01*
X37845Y80644D02*
Y87375D01*
X39115Y88645D02*
X62534D01*
X35178Y75691D02*
X36829D01*
X3086Y76199D02*
X334D01*
X30606Y76453D02*
X3086Y76199D01*
X30606Y76453D02*
Y79755D01*
X334Y76199D02*
X37845Y80644D01*
G54D39*
X7277Y83819D02*
X75251Y863D01*
Y91195*
X69976Y91002D02*
X70171Y91195D01*
X69976Y80898D02*
Y91002D01*
X81797Y92642D02*
X85978Y88462D01*
Y85597D02*
Y88462D01*
X83072Y82691D02*
X85978Y85597D01*
X75523Y82691D02*
X83072D01*
X1506Y19251D02*
X21716Y12594D01*
Y0927D02*
Y12594D01*
X54482Y76961D02*
X57276Y74167D01*
X66999*
X75523Y82691*
X61975Y77215D02*
X66293D01*
X69976Y80898*
X4489Y85842D02*
X47548Y83184D01*
X52704*
X5505Y8553*
Y85842*
G54D66*
X07322Y07028D03*
G54D68*
X26796Y04317D03*
X91566Y86359D03*
X79501Y05841D03*
G54D69*
X81797Y92642D03*
X70171Y91195D03*
X5505Y85842D03*
X4489D03*
X65337D03*
X08762Y71991D03*
X19041Y69433D03*
X08137Y23935D03*
G54D70*
X26034Y93471D03*
X31114D03*
X76315Y75197D03*
X78855D03*
X81395D03*
X83935D03*
X86475D03*
X89015D03*
X98297Y69849D03*
X95757Y72516D03*
X32384Y8547D03*
G54D71*
X28574Y93471D03*
X26034Y90931D03*
X28574D03*
X26034Y88391D03*
X28574D03*
X33654Y93471D03*
X31114Y90931D03*
X33654D03*
X31114Y88391D03*
X33654D03*
X76315Y77737D03*
Y80277D03*
X78855Y77737D03*
Y80277D03*
X81395Y77737D03*
Y80277D03*
X83935Y77737D03*
Y80277D03*
X86475Y77737D03*
Y80277D03*
X89015Y77737D03*
Y80277D03*
X75437Y16509D03*
X77977D03*
X80517D03*
X83057D03*
X85597D03*
X90677Y13969D03*
Y16509D03*
X93217Y13969D03*
Y16509D03*
X95757Y13969D03*
Y16509D03*
X98297Y13969D03*
Y26669D03*
Y29209D03*
Y31749D03*
Y34289D03*
Y36829D03*
Y39369D03*
Y41909D03*
Y44449D03*
Y46989D03*
Y49529D03*
Y52069D03*
Y54609D03*
Y57149D03*
Y59689D03*
Y62229D03*
Y64769D03*
Y67309D03*
X83057D03*
X80517D03*
X77977D03*
X62737D03*
X60197D03*
X57657D03*
X42417D03*
X39877D03*
X37337D03*
X62991Y4483D03*
X60451D03*
X57911D03*
X42671D03*
X40131D03*
X37591D03*
X73151Y35051D03*
X75691Y32511D03*
Y35051D03*
X78231Y32511D03*
Y35051D03*
X83311Y46862D03*
Y44322D03*
X80771Y46862D03*
Y44322D03*
X78231Y46862D03*
Y44322D03*
X75691Y46862D03*
X95757Y80136D03*
Y77596D03*
Y75056D03*
X57149Y12318D03*
Y14858D03*
X59689Y12318D03*
Y14858D03*
X62229Y12318D03*
Y14858D03*
X64769Y12318D03*
Y14858D03*
X67309Y12318D03*
X47751Y14858D03*
Y12318D03*
X45211Y14858D03*
Y12318D03*
X42671Y14858D03*
Y12318D03*
X40131Y14858D03*
X32765Y12318D03*
Y14858D03*
X35305Y12318D03*
X32384Y8293D03*
Y8039D03*
Y7785D03*
X21716Y0927D03*
X24256D03*
X26796D03*
X11919Y02648D03*
Y06241D03*
X10123Y04444D03*
Y08037D03*
X08327Y06241D03*
Y09833D03*
X06531Y08037D03*
Y11629D03*
X04735Y09833D03*
Y13425D03*
X02939Y11629D03*
G54D72*
X07728Y77506D03*
X11321Y81098D03*
X14913Y8469D03*
X18505Y88283D03*
G54D73*
X72897Y16509D03*
X98297D03*
X75437Y67309D03*
X55117D03*
X34797D03*
X55371Y4483D03*
X35051D03*
X73151Y32511D03*
X75691Y44322D03*
X67309Y14858D03*
X40131Y12318D03*
X35305Y14858D03*
X19176Y0927D03*
G54D74*
X07619Y31114D03*
Y36194D03*
Y41274D03*
Y46354D03*
Y51434D03*
Y56514D03*
G54D75*
X13216Y59344D03*
G54D76*
X14477Y69849D03*
X95757Y21589D03*
G54D77*
X44957Y21589D03*
X60197Y69849D03*
X62737D03*
X32257Y21589D03*
X95757Y26669D03*
X93217D03*
X25653Y69849D03*
X42417Y21589D03*
X39877D03*
X95757Y29209D03*
X93217D03*
X95757Y31749D03*
X93217D03*
X95757Y34289D03*
X93217D03*
X95757Y36829D03*
X93217D03*
X95757Y39369D03*
X93217D03*
X95757Y41909D03*
X93217D03*
X95757Y44449D03*
X93217D03*
X95757Y46989D03*
X93217D03*
X95757Y49529D03*
X93217D03*
X95757Y52069D03*
X93217D03*
X95757Y54609D03*
X93217D03*
X95757Y57149D03*
X93217D03*
X95757Y59689D03*
X93217D03*
X95757Y62229D03*
X93217D03*
X95757Y64769D03*
X93217D03*
X95757Y67309D03*
X93217D03*
X85597Y69849D03*
X83057D03*
X80517D03*
X77977D03*
X75437D03*
X72897D03*
X70357D03*
X67817D03*
X28193D03*
X30733D03*
X33273D03*
X35813D03*
X38353D03*
X40893D03*
X44957D03*
X47497D03*
X50037D03*
X52577D03*
X55117D03*
X57657D03*
X23113D03*
X90677Y21589D03*
X88137D03*
X85597D03*
X83057D03*
X80517D03*
X77977D03*
X75437D03*
X72897D03*
X67817D03*
X65277D03*
X62737D03*
X60197D03*
X57657D03*
X55117D03*
X52577D03*
X50037D03*
X95757Y69849D03*
X93217D03*
X37337Y21589D03*
X34797D03*
G54D78*
X70611Y40639D03*
X85851D03*
Y27939D03*
X83311D03*
X80771D03*
X78231D03*
X75691D03*
X73151D03*
Y40639D03*
X88391D03*
X70611Y27939D03*
X88391D03*
X75691Y40639D03*
X78231D03*
X83311D03*
X80771D03*
X50291D03*
X65531D03*
Y27939D03*
X62991D03*
X60451D03*
X57911D03*
X55371D03*
X52831D03*
Y40639D03*
X68071D03*
X50291Y27939D03*
X68071D03*
X55371Y40639D03*
X57911D03*
X62991D03*
X60451D03*
X70357Y63118D03*
X85597D03*
Y50418D03*
X83057D03*
X80517D03*
X77977D03*
X75437D03*
X72897D03*
Y63118D03*
X88137D03*
X70357Y50418D03*
X88137D03*
X75437Y63118D03*
X77977D03*
X83057D03*
X80517D03*
X29717D03*
X44957D03*
Y50418D03*
X42417D03*
X39877D03*
X37337D03*
X34797D03*
X32257D03*
Y63118D03*
X47497D03*
X29717Y50418D03*
X47497D03*
X34797Y63118D03*
X37337D03*
X42417D03*
X39877D03*
X50037D03*
X65277D03*
Y50418D03*
X62737D03*
X60197D03*
X57657D03*
X55117D03*
X52577D03*
Y63118D03*
X67817D03*
X50037Y50418D03*
X67817D03*
X55117Y63118D03*
X57657D03*
X62737D03*
X60197D03*
X29971Y40639D03*
X45211D03*
Y27939D03*
X42671D03*
X40131D03*
X37591D03*
X35051D03*
X32511D03*
Y40639D03*
X47751D03*
X29971Y27939D03*
X47751D03*
X35051Y40639D03*
X37591D03*
X42671D03*
X40131D03*
G54D79*
X13715Y04444D03*
G54D80*
X72008Y03644D03*
X6134Y05714D03*
X68071Y0673D03*
X5683Y05968D03*
X53847Y12064D03*
X32765Y6515D03*
X32892Y65785D03*
X5245Y73278D03*
X72613Y84231D03*
X73151Y83692D03*
X72433Y83513D03*
X49656Y80513D03*
Y81406D03*
X53847Y77342D03*
X54482Y76961D03*
Y77723D03*
X61594Y77215D03*
X62229Y76834D03*
Y77596D03*
X45973Y79374D03*
X46862Y7531D03*
X70357Y26669D03*
X89788Y29717D03*
X62229Y23367D03*
X91312Y2451D03*
X91243Y28078D03*
X8801Y11175D03*
X9436Y15239D03*
X97662Y73024D03*
X98424Y77723D03*
X66547Y2324D03*
X61848Y17652D03*
X90423Y30987D03*
X19557Y4102D03*
X18541Y40512D03*
X84835Y12699D03*
X94106Y2324D03*
X93598Y25399D03*
X97408Y30479D03*
X9436Y36067D03*
X90677Y25272D03*
X90042Y24637D03*
X94995Y24256D03*
X89407Y24129D03*
X9055Y26288D03*
X96138Y43179D03*
X89407Y43687D03*
X37972Y29844D03*
X59181Y29463D03*
X89661Y45719D03*
X9055Y38226D03*
X87375Y48005D03*
X89661Y47497D03*
X90677Y55117D03*
X87502Y14096D03*
X82422Y34035D03*
Y34797D03*
X8166D03*
Y34035D03*
X80898Y34797D03*
Y34035D03*
X57149Y34162D03*
Y34924D03*
X56387D03*
Y34162D03*
X55625Y34924D03*
Y34162D03*
X37337Y34035D03*
Y34797D03*
X36575D03*
Y34035D03*
X35813Y34797D03*
Y34035D03*
X41401Y27558D03*
X6097Y26471D03*
X80517Y30098D03*
X46227Y48005D03*
X71119Y48132D03*
X48259Y53974D03*
X50545Y54228D03*
X73786Y55498D03*
X53212Y54228D03*
X70992Y55371D03*
X77723Y5626D03*
Y57022D03*
X76961D03*
Y5626D03*
X76199Y57022D03*
Y5626D03*
X56768Y56006D03*
Y56768D03*
X56006D03*
Y56006D03*
X55244Y56768D03*
Y56006D03*
X35178D03*
Y56768D03*
X3594Y56006D03*
Y56768D03*
X36702D03*
Y56006D03*
X37337Y48386D03*
X48767Y51561D03*
X461Y51688D03*
X51307Y51561D03*
X94106Y461D03*
X64769Y52069D03*
X70738D03*
X69214Y51561D03*
X71627D03*
X92582Y48005D03*
X75437Y48894D03*
X55117D03*
X34797D03*
X91947Y34289D03*
X-11302Y60451D03*
Y61213D03*
X-12064D03*
Y60451D03*
X-12826Y61213D03*
Y60451D03*
X25272Y45973D03*
Y46735D03*
X26034Y45973D03*
Y46735D03*
X26796D03*
Y45973D03*
Y47497D03*
Y48259D03*
X26034D03*
Y47497D03*
X25272Y48259D03*
Y47497D03*
X26796Y49021D03*
Y49783D03*
X26034D03*
Y49021D03*
X25272Y49783D03*
Y49021D03*
X26796Y50545D03*
Y51307D03*
X26034D03*
Y50545D03*
X25272Y51307D03*
Y50545D03*
X26796Y58927D03*
Y59689D03*
X26034D03*
Y58927D03*
X25272Y59689D03*
Y58927D03*
X26796Y57403D03*
Y58165D03*
X26034D03*
Y57403D03*
X25272Y58165D03*
Y57403D03*
X26796Y55879D03*
Y56641D03*
X26034D03*
Y55879D03*
X25272Y56641D03*
Y55879D03*
X17144Y6261D03*
Y63372D03*
Y64134D03*
X19049Y6261D03*
X17144Y60705D03*
X19049Y59181D03*
Y59943D03*
Y60705D03*
X0165Y62102D03*
X02412D03*
X0165Y6134D03*
X02412D03*
Y60578D03*
X0165D03*
X03174Y67436D03*
X03936D03*
X03174Y66674D03*
X03936D03*
Y65912D03*
X03174D03*
X20954Y60705D03*
Y59943D03*
Y59181D03*
Y64134D03*
Y63372D03*
Y6261D03*
X17144Y59943D03*
X19049Y63372D03*
Y64134D03*
X69468Y11175D03*
X69087Y1054D03*
X69849D03*
X66039Y11556D03*
X64134Y06984D03*
X6261Y05206D03*
X49529D03*
X51942Y06603D03*
X42798Y03682D03*
X40639Y07492D03*
X44576D03*
Y10286D03*
X45592Y0292D03*
X48767Y07492D03*
X54464Y06349D03*
X55244Y07492D03*
X59054Y07619D03*
Y10032D03*
X11683Y61594D03*
X52958Y6769D03*
X8801Y72389D03*
X89661Y72643D03*
X93471D03*
X26669Y64134D03*
X27431Y66801D03*
X26161Y71881D03*
X14731Y45719D03*
X20954Y36067D03*
X1689Y38861D03*
X20192Y33781D03*
X35305Y25653D03*
X69849Y16509D03*
X2578Y38619D03*
X22732Y43041D03*
X13842Y21462D03*
Y22224D03*
X14604Y21462D03*
Y22224D03*
X15366D03*
Y21462D03*
X15239Y17906D03*
Y18668D03*
X16001Y17906D03*
Y18668D03*
X16763D03*
Y17906D03*
X11556Y23875D03*
X3467Y1943D03*
X34924Y05587D03*
X36956Y01396D03*
X04571Y26288D03*
Y2705D03*
X05333Y26288D03*
Y2705D03*
X06095D03*
Y26288D03*
X11556Y6769D03*
X10794D03*
X11556Y68452D03*
X10794D03*
Y69214D03*
X11556D03*
X07492Y66547D03*
Y67309D03*
X08254Y66547D03*
Y67309D03*
X09016D03*
Y66547D03*
X86232Y48132D03*
X87756Y46227D03*
X88264Y30479D03*
X82041Y27177D03*
X79374Y22224D03*
X36829Y93217D03*
X37464Y92836D03*
Y93598D03*
X91566Y52704D03*
X90804Y49148D03*
X37591Y80771D03*
X38226Y8039D03*
Y81152D03*
X30733Y80136D03*
Y79374D03*
X30098Y79755D03*
X35432Y76072D03*
Y7531D03*
X34797Y75691D03*
X27812Y82377D03*
X06192Y15524D03*
X05653Y14985D03*
X06192Y14447D03*
X0673Y14985D03*
Y13908D03*
X07269Y14447D03*
X30479Y10794D03*
X29336Y16509D03*
X44322Y81914D03*
X44957Y81533D03*
Y82295D03*
X60832Y83184D03*
X61467Y82803D03*
Y83565D03*
G54D81*
X02793Y64007D03*
G54D82*
X20119Y25156D03*
G54D83*
X31432Y93598D03*
G54D84*
X08681Y11448D03*
G54D85*
X03555Y22669D03*
G54D86*
X05079Y1543D03*
G54D87*
X59927Y8539D03*
M02*